%TF.GenerationSoftware,KiCad,Pcbnew,10.0.6*%
%TF.CreationDate,2026-09-05T21:59:17+01:00*%
%TF.ProjectId,CC1101ExtBoardV2,43433131-3031-4457-9874-426f61726456,rev?*%
%TF.SameCoordinates,Original*%
%TF.FileFunction,OtherDrawing,Comment*%
%FSLAX46Y46*%
G04 Gerber Fmt 4.6, Leading zero omitted, Abs format (unit mm)*
G04 Created by KiCad (PCBNEW 10.0.6) date 2026-09-05 21:59:17*
%MOMM*%
%LPD*%
G01*
G04 APERTURE LIST*
%ADD10C,0.150000*%
%ADD11C,0.100000*%
G04 APERTURE END LIST*
D10*
X-10721428Y-9894819D02*
X-11292856Y-9894819D01*
X-11007142Y-9894819D02*
X-11007142Y-8894819D01*
X-11007142Y-8894819D02*
X-11102380Y-9037676D01*
X-11102380Y-9037676D02*
X-11197618Y-9132914D01*
X-11197618Y-9132914D02*
X-11292856Y-9180533D01*
X-10292856Y-9799580D02*
X-10245237Y-9847200D01*
X-10245237Y-9847200D02*
X-10292856Y-9894819D01*
X-10292856Y-9894819D02*
X-10340475Y-9847200D01*
X-10340475Y-9847200D02*
X-10292856Y-9799580D01*
X-10292856Y-9799580D02*
X-10292856Y-9894819D01*
X-9388095Y-9228152D02*
X-9388095Y-9894819D01*
X-9626190Y-8847200D02*
X-9864285Y-9561485D01*
X-9864285Y-9561485D02*
X-9245238Y-9561485D01*
X-8435714Y-8894819D02*
X-8626190Y-8894819D01*
X-8626190Y-8894819D02*
X-8721428Y-8942438D01*
X-8721428Y-8942438D02*
X-8769047Y-8990057D01*
X-8769047Y-8990057D02*
X-8864285Y-9132914D01*
X-8864285Y-9132914D02*
X-8911904Y-9323390D01*
X-8911904Y-9323390D02*
X-8911904Y-9704342D01*
X-8911904Y-9704342D02*
X-8864285Y-9799580D01*
X-8864285Y-9799580D02*
X-8816666Y-9847200D01*
X-8816666Y-9847200D02*
X-8721428Y-9894819D01*
X-8721428Y-9894819D02*
X-8530952Y-9894819D01*
X-8530952Y-9894819D02*
X-8435714Y-9847200D01*
X-8435714Y-9847200D02*
X-8388095Y-9799580D01*
X-8388095Y-9799580D02*
X-8340476Y-9704342D01*
X-8340476Y-9704342D02*
X-8340476Y-9466247D01*
X-8340476Y-9466247D02*
X-8388095Y-9371009D01*
X-8388095Y-9371009D02*
X-8435714Y-9323390D01*
X-8435714Y-9323390D02*
X-8530952Y-9275771D01*
X-8530952Y-9275771D02*
X-8721428Y-9275771D01*
X-8721428Y-9275771D02*
X-8816666Y-9323390D01*
X-8816666Y-9323390D02*
X-8864285Y-9371009D01*
X-8864285Y-9371009D02*
X-8911904Y-9466247D01*
X-7721428Y-8894819D02*
X-7626190Y-8894819D01*
X-7626190Y-8894819D02*
X-7530952Y-8942438D01*
X-7530952Y-8942438D02*
X-7483333Y-8990057D01*
X-7483333Y-8990057D02*
X-7435714Y-9085295D01*
X-7435714Y-9085295D02*
X-7388095Y-9275771D01*
X-7388095Y-9275771D02*
X-7388095Y-9513866D01*
X-7388095Y-9513866D02*
X-7435714Y-9704342D01*
X-7435714Y-9704342D02*
X-7483333Y-9799580D01*
X-7483333Y-9799580D02*
X-7530952Y-9847200D01*
X-7530952Y-9847200D02*
X-7626190Y-9894819D01*
X-7626190Y-9894819D02*
X-7721428Y-9894819D01*
X-7721428Y-9894819D02*
X-7816666Y-9847200D01*
X-7816666Y-9847200D02*
X-7864285Y-9799580D01*
X-7864285Y-9799580D02*
X-7911904Y-9704342D01*
X-7911904Y-9704342D02*
X-7959523Y-9513866D01*
X-7959523Y-9513866D02*
X-7959523Y-9275771D01*
X-7959523Y-9275771D02*
X-7911904Y-9085295D01*
X-7911904Y-9085295D02*
X-7864285Y-8990057D01*
X-7864285Y-8990057D02*
X-7816666Y-8942438D01*
X-7816666Y-8942438D02*
X-7721428Y-8894819D01*
X-6769047Y-8894819D02*
X-6673809Y-8894819D01*
X-6673809Y-8894819D02*
X-6578571Y-8942438D01*
X-6578571Y-8942438D02*
X-6530952Y-8990057D01*
X-6530952Y-8990057D02*
X-6483333Y-9085295D01*
X-6483333Y-9085295D02*
X-6435714Y-9275771D01*
X-6435714Y-9275771D02*
X-6435714Y-9513866D01*
X-6435714Y-9513866D02*
X-6483333Y-9704342D01*
X-6483333Y-9704342D02*
X-6530952Y-9799580D01*
X-6530952Y-9799580D02*
X-6578571Y-9847200D01*
X-6578571Y-9847200D02*
X-6673809Y-9894819D01*
X-6673809Y-9894819D02*
X-6769047Y-9894819D01*
X-6769047Y-9894819D02*
X-6864285Y-9847200D01*
X-6864285Y-9847200D02*
X-6911904Y-9799580D01*
X-6911904Y-9799580D02*
X-6959523Y-9704342D01*
X-6959523Y-9704342D02*
X-7007142Y-9513866D01*
X-7007142Y-9513866D02*
X-7007142Y-9275771D01*
X-7007142Y-9275771D02*
X-6959523Y-9085295D01*
X-6959523Y-9085295D02*
X-6911904Y-8990057D01*
X-6911904Y-8990057D02*
X-6864285Y-8942438D01*
X-6864285Y-8942438D02*
X-6769047Y-8894819D01*
X-5245237Y-9894819D02*
X-5245237Y-9228152D01*
X-5245237Y-9323390D02*
X-5197618Y-9275771D01*
X-5197618Y-9275771D02*
X-5102380Y-9228152D01*
X-5102380Y-9228152D02*
X-4959523Y-9228152D01*
X-4959523Y-9228152D02*
X-4864285Y-9275771D01*
X-4864285Y-9275771D02*
X-4816666Y-9371009D01*
X-4816666Y-9371009D02*
X-4816666Y-9894819D01*
X-4816666Y-9371009D02*
X-4769047Y-9275771D01*
X-4769047Y-9275771D02*
X-4673809Y-9228152D01*
X-4673809Y-9228152D02*
X-4530952Y-9228152D01*
X-4530952Y-9228152D02*
X-4435713Y-9275771D01*
X-4435713Y-9275771D02*
X-4388094Y-9371009D01*
X-4388094Y-9371009D02*
X-4388094Y-9894819D01*
X-3911904Y-9894819D02*
X-3911904Y-9228152D01*
X-3911904Y-9323390D02*
X-3864285Y-9275771D01*
X-3864285Y-9275771D02*
X-3769047Y-9228152D01*
X-3769047Y-9228152D02*
X-3626190Y-9228152D01*
X-3626190Y-9228152D02*
X-3530952Y-9275771D01*
X-3530952Y-9275771D02*
X-3483333Y-9371009D01*
X-3483333Y-9371009D02*
X-3483333Y-9894819D01*
X-3483333Y-9371009D02*
X-3435714Y-9275771D01*
X-3435714Y-9275771D02*
X-3340476Y-9228152D01*
X-3340476Y-9228152D02*
X-3197619Y-9228152D01*
X-3197619Y-9228152D02*
X-3102380Y-9275771D01*
X-3102380Y-9275771D02*
X-3054761Y-9371009D01*
X-3054761Y-9371009D02*
X-3054761Y-9894819D01*
X4270953Y-11180057D02*
X4318572Y-11132438D01*
X4318572Y-11132438D02*
X4413810Y-11084819D01*
X4413810Y-11084819D02*
X4651905Y-11084819D01*
X4651905Y-11084819D02*
X4747143Y-11132438D01*
X4747143Y-11132438D02*
X4794762Y-11180057D01*
X4794762Y-11180057D02*
X4842381Y-11275295D01*
X4842381Y-11275295D02*
X4842381Y-11370533D01*
X4842381Y-11370533D02*
X4794762Y-11513390D01*
X4794762Y-11513390D02*
X4223334Y-12084819D01*
X4223334Y-12084819D02*
X4842381Y-12084819D01*
X5461429Y-11084819D02*
X5556667Y-11084819D01*
X5556667Y-11084819D02*
X5651905Y-11132438D01*
X5651905Y-11132438D02*
X5699524Y-11180057D01*
X5699524Y-11180057D02*
X5747143Y-11275295D01*
X5747143Y-11275295D02*
X5794762Y-11465771D01*
X5794762Y-11465771D02*
X5794762Y-11703866D01*
X5794762Y-11703866D02*
X5747143Y-11894342D01*
X5747143Y-11894342D02*
X5699524Y-11989580D01*
X5699524Y-11989580D02*
X5651905Y-12037200D01*
X5651905Y-12037200D02*
X5556667Y-12084819D01*
X5556667Y-12084819D02*
X5461429Y-12084819D01*
X5461429Y-12084819D02*
X5366191Y-12037200D01*
X5366191Y-12037200D02*
X5318572Y-11989580D01*
X5318572Y-11989580D02*
X5270953Y-11894342D01*
X5270953Y-11894342D02*
X5223334Y-11703866D01*
X5223334Y-11703866D02*
X5223334Y-11465771D01*
X5223334Y-11465771D02*
X5270953Y-11275295D01*
X5270953Y-11275295D02*
X5318572Y-11180057D01*
X5318572Y-11180057D02*
X5366191Y-11132438D01*
X5366191Y-11132438D02*
X5461429Y-11084819D01*
X6223334Y-11989580D02*
X6270953Y-12037200D01*
X6270953Y-12037200D02*
X6223334Y-12084819D01*
X6223334Y-12084819D02*
X6175715Y-12037200D01*
X6175715Y-12037200D02*
X6223334Y-11989580D01*
X6223334Y-11989580D02*
X6223334Y-12084819D01*
X6604286Y-11084819D02*
X7270952Y-11084819D01*
X7270952Y-11084819D02*
X6842381Y-12084819D01*
X7842381Y-11084819D02*
X7937619Y-11084819D01*
X7937619Y-11084819D02*
X8032857Y-11132438D01*
X8032857Y-11132438D02*
X8080476Y-11180057D01*
X8080476Y-11180057D02*
X8128095Y-11275295D01*
X8128095Y-11275295D02*
X8175714Y-11465771D01*
X8175714Y-11465771D02*
X8175714Y-11703866D01*
X8175714Y-11703866D02*
X8128095Y-11894342D01*
X8128095Y-11894342D02*
X8080476Y-11989580D01*
X8080476Y-11989580D02*
X8032857Y-12037200D01*
X8032857Y-12037200D02*
X7937619Y-12084819D01*
X7937619Y-12084819D02*
X7842381Y-12084819D01*
X7842381Y-12084819D02*
X7747143Y-12037200D01*
X7747143Y-12037200D02*
X7699524Y-11989580D01*
X7699524Y-11989580D02*
X7651905Y-11894342D01*
X7651905Y-11894342D02*
X7604286Y-11703866D01*
X7604286Y-11703866D02*
X7604286Y-11465771D01*
X7604286Y-11465771D02*
X7651905Y-11275295D01*
X7651905Y-11275295D02*
X7699524Y-11180057D01*
X7699524Y-11180057D02*
X7747143Y-11132438D01*
X7747143Y-11132438D02*
X7842381Y-11084819D01*
X8794762Y-11084819D02*
X8890000Y-11084819D01*
X8890000Y-11084819D02*
X8985238Y-11132438D01*
X8985238Y-11132438D02*
X9032857Y-11180057D01*
X9032857Y-11180057D02*
X9080476Y-11275295D01*
X9080476Y-11275295D02*
X9128095Y-11465771D01*
X9128095Y-11465771D02*
X9128095Y-11703866D01*
X9128095Y-11703866D02*
X9080476Y-11894342D01*
X9080476Y-11894342D02*
X9032857Y-11989580D01*
X9032857Y-11989580D02*
X8985238Y-12037200D01*
X8985238Y-12037200D02*
X8890000Y-12084819D01*
X8890000Y-12084819D02*
X8794762Y-12084819D01*
X8794762Y-12084819D02*
X8699524Y-12037200D01*
X8699524Y-12037200D02*
X8651905Y-11989580D01*
X8651905Y-11989580D02*
X8604286Y-11894342D01*
X8604286Y-11894342D02*
X8556667Y-11703866D01*
X8556667Y-11703866D02*
X8556667Y-11465771D01*
X8556667Y-11465771D02*
X8604286Y-11275295D01*
X8604286Y-11275295D02*
X8651905Y-11180057D01*
X8651905Y-11180057D02*
X8699524Y-11132438D01*
X8699524Y-11132438D02*
X8794762Y-11084819D01*
X9747143Y-11084819D02*
X9842381Y-11084819D01*
X9842381Y-11084819D02*
X9937619Y-11132438D01*
X9937619Y-11132438D02*
X9985238Y-11180057D01*
X9985238Y-11180057D02*
X10032857Y-11275295D01*
X10032857Y-11275295D02*
X10080476Y-11465771D01*
X10080476Y-11465771D02*
X10080476Y-11703866D01*
X10080476Y-11703866D02*
X10032857Y-11894342D01*
X10032857Y-11894342D02*
X9985238Y-11989580D01*
X9985238Y-11989580D02*
X9937619Y-12037200D01*
X9937619Y-12037200D02*
X9842381Y-12084819D01*
X9842381Y-12084819D02*
X9747143Y-12084819D01*
X9747143Y-12084819D02*
X9651905Y-12037200D01*
X9651905Y-12037200D02*
X9604286Y-11989580D01*
X9604286Y-11989580D02*
X9556667Y-11894342D01*
X9556667Y-11894342D02*
X9509048Y-11703866D01*
X9509048Y-11703866D02*
X9509048Y-11465771D01*
X9509048Y-11465771D02*
X9556667Y-11275295D01*
X9556667Y-11275295D02*
X9604286Y-11180057D01*
X9604286Y-11180057D02*
X9651905Y-11132438D01*
X9651905Y-11132438D02*
X9747143Y-11084819D01*
X11270953Y-12084819D02*
X11270953Y-11418152D01*
X11270953Y-11513390D02*
X11318572Y-11465771D01*
X11318572Y-11465771D02*
X11413810Y-11418152D01*
X11413810Y-11418152D02*
X11556667Y-11418152D01*
X11556667Y-11418152D02*
X11651905Y-11465771D01*
X11651905Y-11465771D02*
X11699524Y-11561009D01*
X11699524Y-11561009D02*
X11699524Y-12084819D01*
X11699524Y-11561009D02*
X11747143Y-11465771D01*
X11747143Y-11465771D02*
X11842381Y-11418152D01*
X11842381Y-11418152D02*
X11985238Y-11418152D01*
X11985238Y-11418152D02*
X12080477Y-11465771D01*
X12080477Y-11465771D02*
X12128096Y-11561009D01*
X12128096Y-11561009D02*
X12128096Y-12084819D01*
X12604286Y-12084819D02*
X12604286Y-11418152D01*
X12604286Y-11513390D02*
X12651905Y-11465771D01*
X12651905Y-11465771D02*
X12747143Y-11418152D01*
X12747143Y-11418152D02*
X12890000Y-11418152D01*
X12890000Y-11418152D02*
X12985238Y-11465771D01*
X12985238Y-11465771D02*
X13032857Y-11561009D01*
X13032857Y-11561009D02*
X13032857Y-12084819D01*
X13032857Y-11561009D02*
X13080476Y-11465771D01*
X13080476Y-11465771D02*
X13175714Y-11418152D01*
X13175714Y-11418152D02*
X13318571Y-11418152D01*
X13318571Y-11418152D02*
X13413810Y-11465771D01*
X13413810Y-11465771D02*
X13461429Y-11561009D01*
X13461429Y-11561009D02*
X13461429Y-12084819D01*
X65473333Y-7354819D02*
X65140000Y-6878628D01*
X64901905Y-7354819D02*
X64901905Y-6354819D01*
X64901905Y-6354819D02*
X65282857Y-6354819D01*
X65282857Y-6354819D02*
X65378095Y-6402438D01*
X65378095Y-6402438D02*
X65425714Y-6450057D01*
X65425714Y-6450057D02*
X65473333Y-6545295D01*
X65473333Y-6545295D02*
X65473333Y-6688152D01*
X65473333Y-6688152D02*
X65425714Y-6783390D01*
X65425714Y-6783390D02*
X65378095Y-6831009D01*
X65378095Y-6831009D02*
X65282857Y-6878628D01*
X65282857Y-6878628D02*
X64901905Y-6878628D01*
X66854286Y-6354819D02*
X66949524Y-6354819D01*
X66949524Y-6354819D02*
X67044762Y-6402438D01*
X67044762Y-6402438D02*
X67092381Y-6450057D01*
X67092381Y-6450057D02*
X67140000Y-6545295D01*
X67140000Y-6545295D02*
X67187619Y-6735771D01*
X67187619Y-6735771D02*
X67187619Y-6973866D01*
X67187619Y-6973866D02*
X67140000Y-7164342D01*
X67140000Y-7164342D02*
X67092381Y-7259580D01*
X67092381Y-7259580D02*
X67044762Y-7307200D01*
X67044762Y-7307200D02*
X66949524Y-7354819D01*
X66949524Y-7354819D02*
X66854286Y-7354819D01*
X66854286Y-7354819D02*
X66759048Y-7307200D01*
X66759048Y-7307200D02*
X66711429Y-7259580D01*
X66711429Y-7259580D02*
X66663810Y-7164342D01*
X66663810Y-7164342D02*
X66616191Y-6973866D01*
X66616191Y-6973866D02*
X66616191Y-6735771D01*
X66616191Y-6735771D02*
X66663810Y-6545295D01*
X66663810Y-6545295D02*
X66711429Y-6450057D01*
X66711429Y-6450057D02*
X66759048Y-6402438D01*
X66759048Y-6402438D02*
X66854286Y-6354819D01*
X67616191Y-7259580D02*
X67663810Y-7307200D01*
X67663810Y-7307200D02*
X67616191Y-7354819D01*
X67616191Y-7354819D02*
X67568572Y-7307200D01*
X67568572Y-7307200D02*
X67616191Y-7259580D01*
X67616191Y-7259580D02*
X67616191Y-7354819D01*
X68568571Y-6354819D02*
X68092381Y-6354819D01*
X68092381Y-6354819D02*
X68044762Y-6831009D01*
X68044762Y-6831009D02*
X68092381Y-6783390D01*
X68092381Y-6783390D02*
X68187619Y-6735771D01*
X68187619Y-6735771D02*
X68425714Y-6735771D01*
X68425714Y-6735771D02*
X68520952Y-6783390D01*
X68520952Y-6783390D02*
X68568571Y-6831009D01*
X68568571Y-6831009D02*
X68616190Y-6926247D01*
X68616190Y-6926247D02*
X68616190Y-7164342D01*
X68616190Y-7164342D02*
X68568571Y-7259580D01*
X68568571Y-7259580D02*
X68520952Y-7307200D01*
X68520952Y-7307200D02*
X68425714Y-7354819D01*
X68425714Y-7354819D02*
X68187619Y-7354819D01*
X68187619Y-7354819D02*
X68092381Y-7307200D01*
X68092381Y-7307200D02*
X68044762Y-7259580D01*
X69235238Y-6354819D02*
X69330476Y-6354819D01*
X69330476Y-6354819D02*
X69425714Y-6402438D01*
X69425714Y-6402438D02*
X69473333Y-6450057D01*
X69473333Y-6450057D02*
X69520952Y-6545295D01*
X69520952Y-6545295D02*
X69568571Y-6735771D01*
X69568571Y-6735771D02*
X69568571Y-6973866D01*
X69568571Y-6973866D02*
X69520952Y-7164342D01*
X69520952Y-7164342D02*
X69473333Y-7259580D01*
X69473333Y-7259580D02*
X69425714Y-7307200D01*
X69425714Y-7307200D02*
X69330476Y-7354819D01*
X69330476Y-7354819D02*
X69235238Y-7354819D01*
X69235238Y-7354819D02*
X69140000Y-7307200D01*
X69140000Y-7307200D02*
X69092381Y-7259580D01*
X69092381Y-7259580D02*
X69044762Y-7164342D01*
X69044762Y-7164342D02*
X68997143Y-6973866D01*
X68997143Y-6973866D02*
X68997143Y-6735771D01*
X68997143Y-6735771D02*
X69044762Y-6545295D01*
X69044762Y-6545295D02*
X69092381Y-6450057D01*
X69092381Y-6450057D02*
X69140000Y-6402438D01*
X69140000Y-6402438D02*
X69235238Y-6354819D01*
X70187619Y-6354819D02*
X70282857Y-6354819D01*
X70282857Y-6354819D02*
X70378095Y-6402438D01*
X70378095Y-6402438D02*
X70425714Y-6450057D01*
X70425714Y-6450057D02*
X70473333Y-6545295D01*
X70473333Y-6545295D02*
X70520952Y-6735771D01*
X70520952Y-6735771D02*
X70520952Y-6973866D01*
X70520952Y-6973866D02*
X70473333Y-7164342D01*
X70473333Y-7164342D02*
X70425714Y-7259580D01*
X70425714Y-7259580D02*
X70378095Y-7307200D01*
X70378095Y-7307200D02*
X70282857Y-7354819D01*
X70282857Y-7354819D02*
X70187619Y-7354819D01*
X70187619Y-7354819D02*
X70092381Y-7307200D01*
X70092381Y-7307200D02*
X70044762Y-7259580D01*
X70044762Y-7259580D02*
X69997143Y-7164342D01*
X69997143Y-7164342D02*
X69949524Y-6973866D01*
X69949524Y-6973866D02*
X69949524Y-6735771D01*
X69949524Y-6735771D02*
X69997143Y-6545295D01*
X69997143Y-6545295D02*
X70044762Y-6450057D01*
X70044762Y-6450057D02*
X70092381Y-6402438D01*
X70092381Y-6402438D02*
X70187619Y-6354819D01*
X71140000Y-6354819D02*
X71235238Y-6354819D01*
X71235238Y-6354819D02*
X71330476Y-6402438D01*
X71330476Y-6402438D02*
X71378095Y-6450057D01*
X71378095Y-6450057D02*
X71425714Y-6545295D01*
X71425714Y-6545295D02*
X71473333Y-6735771D01*
X71473333Y-6735771D02*
X71473333Y-6973866D01*
X71473333Y-6973866D02*
X71425714Y-7164342D01*
X71425714Y-7164342D02*
X71378095Y-7259580D01*
X71378095Y-7259580D02*
X71330476Y-7307200D01*
X71330476Y-7307200D02*
X71235238Y-7354819D01*
X71235238Y-7354819D02*
X71140000Y-7354819D01*
X71140000Y-7354819D02*
X71044762Y-7307200D01*
X71044762Y-7307200D02*
X70997143Y-7259580D01*
X70997143Y-7259580D02*
X70949524Y-7164342D01*
X70949524Y-7164342D02*
X70901905Y-6973866D01*
X70901905Y-6973866D02*
X70901905Y-6735771D01*
X70901905Y-6735771D02*
X70949524Y-6545295D01*
X70949524Y-6545295D02*
X70997143Y-6450057D01*
X70997143Y-6450057D02*
X71044762Y-6402438D01*
X71044762Y-6402438D02*
X71140000Y-6354819D01*
X72663810Y-7354819D02*
X72663810Y-6688152D01*
X72663810Y-6783390D02*
X72711429Y-6735771D01*
X72711429Y-6735771D02*
X72806667Y-6688152D01*
X72806667Y-6688152D02*
X72949524Y-6688152D01*
X72949524Y-6688152D02*
X73044762Y-6735771D01*
X73044762Y-6735771D02*
X73092381Y-6831009D01*
X73092381Y-6831009D02*
X73092381Y-7354819D01*
X73092381Y-6831009D02*
X73140000Y-6735771D01*
X73140000Y-6735771D02*
X73235238Y-6688152D01*
X73235238Y-6688152D02*
X73378095Y-6688152D01*
X73378095Y-6688152D02*
X73473334Y-6735771D01*
X73473334Y-6735771D02*
X73520953Y-6831009D01*
X73520953Y-6831009D02*
X73520953Y-7354819D01*
X73997143Y-7354819D02*
X73997143Y-6688152D01*
X73997143Y-6783390D02*
X74044762Y-6735771D01*
X74044762Y-6735771D02*
X74140000Y-6688152D01*
X74140000Y-6688152D02*
X74282857Y-6688152D01*
X74282857Y-6688152D02*
X74378095Y-6735771D01*
X74378095Y-6735771D02*
X74425714Y-6831009D01*
X74425714Y-6831009D02*
X74425714Y-7354819D01*
X74425714Y-6831009D02*
X74473333Y-6735771D01*
X74473333Y-6735771D02*
X74568571Y-6688152D01*
X74568571Y-6688152D02*
X74711428Y-6688152D01*
X74711428Y-6688152D02*
X74806667Y-6735771D01*
X74806667Y-6735771D02*
X74854286Y-6831009D01*
X74854286Y-6831009D02*
X74854286Y-7354819D01*
X75997143Y-7354819D02*
X76520952Y-6688152D01*
X75997143Y-6688152D02*
X76520952Y-7354819D01*
X77044762Y-6783390D02*
X76949524Y-6735771D01*
X76949524Y-6735771D02*
X76901905Y-6688152D01*
X76901905Y-6688152D02*
X76854286Y-6592914D01*
X76854286Y-6592914D02*
X76854286Y-6545295D01*
X76854286Y-6545295D02*
X76901905Y-6450057D01*
X76901905Y-6450057D02*
X76949524Y-6402438D01*
X76949524Y-6402438D02*
X77044762Y-6354819D01*
X77044762Y-6354819D02*
X77235238Y-6354819D01*
X77235238Y-6354819D02*
X77330476Y-6402438D01*
X77330476Y-6402438D02*
X77378095Y-6450057D01*
X77378095Y-6450057D02*
X77425714Y-6545295D01*
X77425714Y-6545295D02*
X77425714Y-6592914D01*
X77425714Y-6592914D02*
X77378095Y-6688152D01*
X77378095Y-6688152D02*
X77330476Y-6735771D01*
X77330476Y-6735771D02*
X77235238Y-6783390D01*
X77235238Y-6783390D02*
X77044762Y-6783390D01*
X77044762Y-6783390D02*
X76949524Y-6831009D01*
X76949524Y-6831009D02*
X76901905Y-6878628D01*
X76901905Y-6878628D02*
X76854286Y-6973866D01*
X76854286Y-6973866D02*
X76854286Y-7164342D01*
X76854286Y-7164342D02*
X76901905Y-7259580D01*
X76901905Y-7259580D02*
X76949524Y-7307200D01*
X76949524Y-7307200D02*
X77044762Y-7354819D01*
X77044762Y-7354819D02*
X77235238Y-7354819D01*
X77235238Y-7354819D02*
X77330476Y-7307200D01*
X77330476Y-7307200D02*
X77378095Y-7259580D01*
X77378095Y-7259580D02*
X77425714Y-7164342D01*
X77425714Y-7164342D02*
X77425714Y-6973866D01*
X77425714Y-6973866D02*
X77378095Y-6878628D01*
X77378095Y-6878628D02*
X77330476Y-6831009D01*
X77330476Y-6831009D02*
X77235238Y-6783390D01*
X69514819Y1019524D02*
X69514819Y1638571D01*
X69514819Y1638571D02*
X69895771Y1305238D01*
X69895771Y1305238D02*
X69895771Y1448095D01*
X69895771Y1448095D02*
X69943390Y1543333D01*
X69943390Y1543333D02*
X69991009Y1590952D01*
X69991009Y1590952D02*
X70086247Y1638571D01*
X70086247Y1638571D02*
X70324342Y1638571D01*
X70324342Y1638571D02*
X70419580Y1590952D01*
X70419580Y1590952D02*
X70467200Y1543333D01*
X70467200Y1543333D02*
X70514819Y1448095D01*
X70514819Y1448095D02*
X70514819Y1162381D01*
X70514819Y1162381D02*
X70467200Y1067143D01*
X70467200Y1067143D02*
X70419580Y1019524D01*
X70419580Y2067143D02*
X70467200Y2114762D01*
X70467200Y2114762D02*
X70514819Y2067143D01*
X70514819Y2067143D02*
X70467200Y2019524D01*
X70467200Y2019524D02*
X70419580Y2067143D01*
X70419580Y2067143D02*
X70514819Y2067143D01*
X69943390Y2686190D02*
X69895771Y2590952D01*
X69895771Y2590952D02*
X69848152Y2543333D01*
X69848152Y2543333D02*
X69752914Y2495714D01*
X69752914Y2495714D02*
X69705295Y2495714D01*
X69705295Y2495714D02*
X69610057Y2543333D01*
X69610057Y2543333D02*
X69562438Y2590952D01*
X69562438Y2590952D02*
X69514819Y2686190D01*
X69514819Y2686190D02*
X69514819Y2876666D01*
X69514819Y2876666D02*
X69562438Y2971904D01*
X69562438Y2971904D02*
X69610057Y3019523D01*
X69610057Y3019523D02*
X69705295Y3067142D01*
X69705295Y3067142D02*
X69752914Y3067142D01*
X69752914Y3067142D02*
X69848152Y3019523D01*
X69848152Y3019523D02*
X69895771Y2971904D01*
X69895771Y2971904D02*
X69943390Y2876666D01*
X69943390Y2876666D02*
X69943390Y2686190D01*
X69943390Y2686190D02*
X69991009Y2590952D01*
X69991009Y2590952D02*
X70038628Y2543333D01*
X70038628Y2543333D02*
X70133866Y2495714D01*
X70133866Y2495714D02*
X70324342Y2495714D01*
X70324342Y2495714D02*
X70419580Y2543333D01*
X70419580Y2543333D02*
X70467200Y2590952D01*
X70467200Y2590952D02*
X70514819Y2686190D01*
X70514819Y2686190D02*
X70514819Y2876666D01*
X70514819Y2876666D02*
X70467200Y2971904D01*
X70467200Y2971904D02*
X70419580Y3019523D01*
X70419580Y3019523D02*
X70324342Y3067142D01*
X70324342Y3067142D02*
X70133866Y3067142D01*
X70133866Y3067142D02*
X70038628Y3019523D01*
X70038628Y3019523D02*
X69991009Y2971904D01*
X69991009Y2971904D02*
X69943390Y2876666D01*
X69848152Y3924285D02*
X70514819Y3924285D01*
X69467200Y3686190D02*
X70181485Y3448095D01*
X70181485Y3448095D02*
X70181485Y4067142D01*
X69514819Y4638571D02*
X69514819Y4733809D01*
X69514819Y4733809D02*
X69562438Y4829047D01*
X69562438Y4829047D02*
X69610057Y4876666D01*
X69610057Y4876666D02*
X69705295Y4924285D01*
X69705295Y4924285D02*
X69895771Y4971904D01*
X69895771Y4971904D02*
X70133866Y4971904D01*
X70133866Y4971904D02*
X70324342Y4924285D01*
X70324342Y4924285D02*
X70419580Y4876666D01*
X70419580Y4876666D02*
X70467200Y4829047D01*
X70467200Y4829047D02*
X70514819Y4733809D01*
X70514819Y4733809D02*
X70514819Y4638571D01*
X70514819Y4638571D02*
X70467200Y4543333D01*
X70467200Y4543333D02*
X70419580Y4495714D01*
X70419580Y4495714D02*
X70324342Y4448095D01*
X70324342Y4448095D02*
X70133866Y4400476D01*
X70133866Y4400476D02*
X69895771Y4400476D01*
X69895771Y4400476D02*
X69705295Y4448095D01*
X69705295Y4448095D02*
X69610057Y4495714D01*
X69610057Y4495714D02*
X69562438Y4543333D01*
X69562438Y4543333D02*
X69514819Y4638571D01*
X69514819Y5590952D02*
X69514819Y5686190D01*
X69514819Y5686190D02*
X69562438Y5781428D01*
X69562438Y5781428D02*
X69610057Y5829047D01*
X69610057Y5829047D02*
X69705295Y5876666D01*
X69705295Y5876666D02*
X69895771Y5924285D01*
X69895771Y5924285D02*
X70133866Y5924285D01*
X70133866Y5924285D02*
X70324342Y5876666D01*
X70324342Y5876666D02*
X70419580Y5829047D01*
X70419580Y5829047D02*
X70467200Y5781428D01*
X70467200Y5781428D02*
X70514819Y5686190D01*
X70514819Y5686190D02*
X70514819Y5590952D01*
X70514819Y5590952D02*
X70467200Y5495714D01*
X70467200Y5495714D02*
X70419580Y5448095D01*
X70419580Y5448095D02*
X70324342Y5400476D01*
X70324342Y5400476D02*
X70133866Y5352857D01*
X70133866Y5352857D02*
X69895771Y5352857D01*
X69895771Y5352857D02*
X69705295Y5400476D01*
X69705295Y5400476D02*
X69610057Y5448095D01*
X69610057Y5448095D02*
X69562438Y5495714D01*
X69562438Y5495714D02*
X69514819Y5590952D01*
X70514819Y7114762D02*
X69848152Y7114762D01*
X69943390Y7114762D02*
X69895771Y7162381D01*
X69895771Y7162381D02*
X69848152Y7257619D01*
X69848152Y7257619D02*
X69848152Y7400476D01*
X69848152Y7400476D02*
X69895771Y7495714D01*
X69895771Y7495714D02*
X69991009Y7543333D01*
X69991009Y7543333D02*
X70514819Y7543333D01*
X69991009Y7543333D02*
X69895771Y7590952D01*
X69895771Y7590952D02*
X69848152Y7686190D01*
X69848152Y7686190D02*
X69848152Y7829047D01*
X69848152Y7829047D02*
X69895771Y7924286D01*
X69895771Y7924286D02*
X69991009Y7971905D01*
X69991009Y7971905D02*
X70514819Y7971905D01*
X70514819Y8448095D02*
X69848152Y8448095D01*
X69943390Y8448095D02*
X69895771Y8495714D01*
X69895771Y8495714D02*
X69848152Y8590952D01*
X69848152Y8590952D02*
X69848152Y8733809D01*
X69848152Y8733809D02*
X69895771Y8829047D01*
X69895771Y8829047D02*
X69991009Y8876666D01*
X69991009Y8876666D02*
X70514819Y8876666D01*
X69991009Y8876666D02*
X69895771Y8924285D01*
X69895771Y8924285D02*
X69848152Y9019523D01*
X69848152Y9019523D02*
X69848152Y9162380D01*
X69848152Y9162380D02*
X69895771Y9257619D01*
X69895771Y9257619D02*
X69991009Y9305238D01*
X69991009Y9305238D02*
X70514819Y9305238D01*
X42370953Y-11170057D02*
X42418572Y-11122438D01*
X42418572Y-11122438D02*
X42513810Y-11074819D01*
X42513810Y-11074819D02*
X42751905Y-11074819D01*
X42751905Y-11074819D02*
X42847143Y-11122438D01*
X42847143Y-11122438D02*
X42894762Y-11170057D01*
X42894762Y-11170057D02*
X42942381Y-11265295D01*
X42942381Y-11265295D02*
X42942381Y-11360533D01*
X42942381Y-11360533D02*
X42894762Y-11503390D01*
X42894762Y-11503390D02*
X42323334Y-12074819D01*
X42323334Y-12074819D02*
X42942381Y-12074819D01*
X43847143Y-11074819D02*
X43370953Y-11074819D01*
X43370953Y-11074819D02*
X43323334Y-11551009D01*
X43323334Y-11551009D02*
X43370953Y-11503390D01*
X43370953Y-11503390D02*
X43466191Y-11455771D01*
X43466191Y-11455771D02*
X43704286Y-11455771D01*
X43704286Y-11455771D02*
X43799524Y-11503390D01*
X43799524Y-11503390D02*
X43847143Y-11551009D01*
X43847143Y-11551009D02*
X43894762Y-11646247D01*
X43894762Y-11646247D02*
X43894762Y-11884342D01*
X43894762Y-11884342D02*
X43847143Y-11979580D01*
X43847143Y-11979580D02*
X43799524Y-12027200D01*
X43799524Y-12027200D02*
X43704286Y-12074819D01*
X43704286Y-12074819D02*
X43466191Y-12074819D01*
X43466191Y-12074819D02*
X43370953Y-12027200D01*
X43370953Y-12027200D02*
X43323334Y-11979580D01*
X44323334Y-11979580D02*
X44370953Y-12027200D01*
X44370953Y-12027200D02*
X44323334Y-12074819D01*
X44323334Y-12074819D02*
X44275715Y-12027200D01*
X44275715Y-12027200D02*
X44323334Y-11979580D01*
X44323334Y-11979580D02*
X44323334Y-12074819D01*
X44704286Y-11074819D02*
X45370952Y-11074819D01*
X45370952Y-11074819D02*
X44942381Y-12074819D01*
X45894762Y-11503390D02*
X45799524Y-11455771D01*
X45799524Y-11455771D02*
X45751905Y-11408152D01*
X45751905Y-11408152D02*
X45704286Y-11312914D01*
X45704286Y-11312914D02*
X45704286Y-11265295D01*
X45704286Y-11265295D02*
X45751905Y-11170057D01*
X45751905Y-11170057D02*
X45799524Y-11122438D01*
X45799524Y-11122438D02*
X45894762Y-11074819D01*
X45894762Y-11074819D02*
X46085238Y-11074819D01*
X46085238Y-11074819D02*
X46180476Y-11122438D01*
X46180476Y-11122438D02*
X46228095Y-11170057D01*
X46228095Y-11170057D02*
X46275714Y-11265295D01*
X46275714Y-11265295D02*
X46275714Y-11312914D01*
X46275714Y-11312914D02*
X46228095Y-11408152D01*
X46228095Y-11408152D02*
X46180476Y-11455771D01*
X46180476Y-11455771D02*
X46085238Y-11503390D01*
X46085238Y-11503390D02*
X45894762Y-11503390D01*
X45894762Y-11503390D02*
X45799524Y-11551009D01*
X45799524Y-11551009D02*
X45751905Y-11598628D01*
X45751905Y-11598628D02*
X45704286Y-11693866D01*
X45704286Y-11693866D02*
X45704286Y-11884342D01*
X45704286Y-11884342D02*
X45751905Y-11979580D01*
X45751905Y-11979580D02*
X45799524Y-12027200D01*
X45799524Y-12027200D02*
X45894762Y-12074819D01*
X45894762Y-12074819D02*
X46085238Y-12074819D01*
X46085238Y-12074819D02*
X46180476Y-12027200D01*
X46180476Y-12027200D02*
X46228095Y-11979580D01*
X46228095Y-11979580D02*
X46275714Y-11884342D01*
X46275714Y-11884342D02*
X46275714Y-11693866D01*
X46275714Y-11693866D02*
X46228095Y-11598628D01*
X46228095Y-11598628D02*
X46180476Y-11551009D01*
X46180476Y-11551009D02*
X46085238Y-11503390D01*
X46894762Y-11074819D02*
X46990000Y-11074819D01*
X46990000Y-11074819D02*
X47085238Y-11122438D01*
X47085238Y-11122438D02*
X47132857Y-11170057D01*
X47132857Y-11170057D02*
X47180476Y-11265295D01*
X47180476Y-11265295D02*
X47228095Y-11455771D01*
X47228095Y-11455771D02*
X47228095Y-11693866D01*
X47228095Y-11693866D02*
X47180476Y-11884342D01*
X47180476Y-11884342D02*
X47132857Y-11979580D01*
X47132857Y-11979580D02*
X47085238Y-12027200D01*
X47085238Y-12027200D02*
X46990000Y-12074819D01*
X46990000Y-12074819D02*
X46894762Y-12074819D01*
X46894762Y-12074819D02*
X46799524Y-12027200D01*
X46799524Y-12027200D02*
X46751905Y-11979580D01*
X46751905Y-11979580D02*
X46704286Y-11884342D01*
X46704286Y-11884342D02*
X46656667Y-11693866D01*
X46656667Y-11693866D02*
X46656667Y-11455771D01*
X46656667Y-11455771D02*
X46704286Y-11265295D01*
X46704286Y-11265295D02*
X46751905Y-11170057D01*
X46751905Y-11170057D02*
X46799524Y-11122438D01*
X46799524Y-11122438D02*
X46894762Y-11074819D01*
X47847143Y-11074819D02*
X47942381Y-11074819D01*
X47942381Y-11074819D02*
X48037619Y-11122438D01*
X48037619Y-11122438D02*
X48085238Y-11170057D01*
X48085238Y-11170057D02*
X48132857Y-11265295D01*
X48132857Y-11265295D02*
X48180476Y-11455771D01*
X48180476Y-11455771D02*
X48180476Y-11693866D01*
X48180476Y-11693866D02*
X48132857Y-11884342D01*
X48132857Y-11884342D02*
X48085238Y-11979580D01*
X48085238Y-11979580D02*
X48037619Y-12027200D01*
X48037619Y-12027200D02*
X47942381Y-12074819D01*
X47942381Y-12074819D02*
X47847143Y-12074819D01*
X47847143Y-12074819D02*
X47751905Y-12027200D01*
X47751905Y-12027200D02*
X47704286Y-11979580D01*
X47704286Y-11979580D02*
X47656667Y-11884342D01*
X47656667Y-11884342D02*
X47609048Y-11693866D01*
X47609048Y-11693866D02*
X47609048Y-11455771D01*
X47609048Y-11455771D02*
X47656667Y-11265295D01*
X47656667Y-11265295D02*
X47704286Y-11170057D01*
X47704286Y-11170057D02*
X47751905Y-11122438D01*
X47751905Y-11122438D02*
X47847143Y-11074819D01*
X49370953Y-12074819D02*
X49370953Y-11408152D01*
X49370953Y-11503390D02*
X49418572Y-11455771D01*
X49418572Y-11455771D02*
X49513810Y-11408152D01*
X49513810Y-11408152D02*
X49656667Y-11408152D01*
X49656667Y-11408152D02*
X49751905Y-11455771D01*
X49751905Y-11455771D02*
X49799524Y-11551009D01*
X49799524Y-11551009D02*
X49799524Y-12074819D01*
X49799524Y-11551009D02*
X49847143Y-11455771D01*
X49847143Y-11455771D02*
X49942381Y-11408152D01*
X49942381Y-11408152D02*
X50085238Y-11408152D01*
X50085238Y-11408152D02*
X50180477Y-11455771D01*
X50180477Y-11455771D02*
X50228096Y-11551009D01*
X50228096Y-11551009D02*
X50228096Y-12074819D01*
X50704286Y-12074819D02*
X50704286Y-11408152D01*
X50704286Y-11503390D02*
X50751905Y-11455771D01*
X50751905Y-11455771D02*
X50847143Y-11408152D01*
X50847143Y-11408152D02*
X50990000Y-11408152D01*
X50990000Y-11408152D02*
X51085238Y-11455771D01*
X51085238Y-11455771D02*
X51132857Y-11551009D01*
X51132857Y-11551009D02*
X51132857Y-12074819D01*
X51132857Y-11551009D02*
X51180476Y-11455771D01*
X51180476Y-11455771D02*
X51275714Y-11408152D01*
X51275714Y-11408152D02*
X51418571Y-11408152D01*
X51418571Y-11408152D02*
X51513810Y-11455771D01*
X51513810Y-11455771D02*
X51561429Y-11551009D01*
X51561429Y-11551009D02*
X51561429Y-12074819D01*
X50779524Y7405180D02*
X51398571Y7405180D01*
X51398571Y7405180D02*
X51065238Y7024228D01*
X51065238Y7024228D02*
X51208095Y7024228D01*
X51208095Y7024228D02*
X51303333Y6976609D01*
X51303333Y6976609D02*
X51350952Y6928990D01*
X51350952Y6928990D02*
X51398571Y6833752D01*
X51398571Y6833752D02*
X51398571Y6595657D01*
X51398571Y6595657D02*
X51350952Y6500419D01*
X51350952Y6500419D02*
X51303333Y6452800D01*
X51303333Y6452800D02*
X51208095Y6405180D01*
X51208095Y6405180D02*
X50922381Y6405180D01*
X50922381Y6405180D02*
X50827143Y6452800D01*
X50827143Y6452800D02*
X50779524Y6500419D01*
X51827143Y6500419D02*
X51874762Y6452800D01*
X51874762Y6452800D02*
X51827143Y6405180D01*
X51827143Y6405180D02*
X51779524Y6452800D01*
X51779524Y6452800D02*
X51827143Y6500419D01*
X51827143Y6500419D02*
X51827143Y6405180D01*
X52493809Y7405180D02*
X52589047Y7405180D01*
X52589047Y7405180D02*
X52684285Y7357561D01*
X52684285Y7357561D02*
X52731904Y7309942D01*
X52731904Y7309942D02*
X52779523Y7214704D01*
X52779523Y7214704D02*
X52827142Y7024228D01*
X52827142Y7024228D02*
X52827142Y6786133D01*
X52827142Y6786133D02*
X52779523Y6595657D01*
X52779523Y6595657D02*
X52731904Y6500419D01*
X52731904Y6500419D02*
X52684285Y6452800D01*
X52684285Y6452800D02*
X52589047Y6405180D01*
X52589047Y6405180D02*
X52493809Y6405180D01*
X52493809Y6405180D02*
X52398571Y6452800D01*
X52398571Y6452800D02*
X52350952Y6500419D01*
X52350952Y6500419D02*
X52303333Y6595657D01*
X52303333Y6595657D02*
X52255714Y6786133D01*
X52255714Y6786133D02*
X52255714Y7024228D01*
X52255714Y7024228D02*
X52303333Y7214704D01*
X52303333Y7214704D02*
X52350952Y7309942D01*
X52350952Y7309942D02*
X52398571Y7357561D01*
X52398571Y7357561D02*
X52493809Y7405180D01*
X53446190Y7405180D02*
X53541428Y7405180D01*
X53541428Y7405180D02*
X53636666Y7357561D01*
X53636666Y7357561D02*
X53684285Y7309942D01*
X53684285Y7309942D02*
X53731904Y7214704D01*
X53731904Y7214704D02*
X53779523Y7024228D01*
X53779523Y7024228D02*
X53779523Y6786133D01*
X53779523Y6786133D02*
X53731904Y6595657D01*
X53731904Y6595657D02*
X53684285Y6500419D01*
X53684285Y6500419D02*
X53636666Y6452800D01*
X53636666Y6452800D02*
X53541428Y6405180D01*
X53541428Y6405180D02*
X53446190Y6405180D01*
X53446190Y6405180D02*
X53350952Y6452800D01*
X53350952Y6452800D02*
X53303333Y6500419D01*
X53303333Y6500419D02*
X53255714Y6595657D01*
X53255714Y6595657D02*
X53208095Y6786133D01*
X53208095Y6786133D02*
X53208095Y7024228D01*
X53208095Y7024228D02*
X53255714Y7214704D01*
X53255714Y7214704D02*
X53303333Y7309942D01*
X53303333Y7309942D02*
X53350952Y7357561D01*
X53350952Y7357561D02*
X53446190Y7405180D01*
X54398571Y7405180D02*
X54493809Y7405180D01*
X54493809Y7405180D02*
X54589047Y7357561D01*
X54589047Y7357561D02*
X54636666Y7309942D01*
X54636666Y7309942D02*
X54684285Y7214704D01*
X54684285Y7214704D02*
X54731904Y7024228D01*
X54731904Y7024228D02*
X54731904Y6786133D01*
X54731904Y6786133D02*
X54684285Y6595657D01*
X54684285Y6595657D02*
X54636666Y6500419D01*
X54636666Y6500419D02*
X54589047Y6452800D01*
X54589047Y6452800D02*
X54493809Y6405180D01*
X54493809Y6405180D02*
X54398571Y6405180D01*
X54398571Y6405180D02*
X54303333Y6452800D01*
X54303333Y6452800D02*
X54255714Y6500419D01*
X54255714Y6500419D02*
X54208095Y6595657D01*
X54208095Y6595657D02*
X54160476Y6786133D01*
X54160476Y6786133D02*
X54160476Y7024228D01*
X54160476Y7024228D02*
X54208095Y7214704D01*
X54208095Y7214704D02*
X54255714Y7309942D01*
X54255714Y7309942D02*
X54303333Y7357561D01*
X54303333Y7357561D02*
X54398571Y7405180D01*
X55350952Y7405180D02*
X55446190Y7405180D01*
X55446190Y7405180D02*
X55541428Y7357561D01*
X55541428Y7357561D02*
X55589047Y7309942D01*
X55589047Y7309942D02*
X55636666Y7214704D01*
X55636666Y7214704D02*
X55684285Y7024228D01*
X55684285Y7024228D02*
X55684285Y6786133D01*
X55684285Y6786133D02*
X55636666Y6595657D01*
X55636666Y6595657D02*
X55589047Y6500419D01*
X55589047Y6500419D02*
X55541428Y6452800D01*
X55541428Y6452800D02*
X55446190Y6405180D01*
X55446190Y6405180D02*
X55350952Y6405180D01*
X55350952Y6405180D02*
X55255714Y6452800D01*
X55255714Y6452800D02*
X55208095Y6500419D01*
X55208095Y6500419D02*
X55160476Y6595657D01*
X55160476Y6595657D02*
X55112857Y6786133D01*
X55112857Y6786133D02*
X55112857Y7024228D01*
X55112857Y7024228D02*
X55160476Y7214704D01*
X55160476Y7214704D02*
X55208095Y7309942D01*
X55208095Y7309942D02*
X55255714Y7357561D01*
X55255714Y7357561D02*
X55350952Y7405180D01*
X56874762Y6405180D02*
X56874762Y7071847D01*
X56874762Y6976609D02*
X56922381Y7024228D01*
X56922381Y7024228D02*
X57017619Y7071847D01*
X57017619Y7071847D02*
X57160476Y7071847D01*
X57160476Y7071847D02*
X57255714Y7024228D01*
X57255714Y7024228D02*
X57303333Y6928990D01*
X57303333Y6928990D02*
X57303333Y6405180D01*
X57303333Y6928990D02*
X57350952Y7024228D01*
X57350952Y7024228D02*
X57446190Y7071847D01*
X57446190Y7071847D02*
X57589047Y7071847D01*
X57589047Y7071847D02*
X57684286Y7024228D01*
X57684286Y7024228D02*
X57731905Y6928990D01*
X57731905Y6928990D02*
X57731905Y6405180D01*
X58208095Y6405180D02*
X58208095Y7071847D01*
X58208095Y6976609D02*
X58255714Y7024228D01*
X58255714Y7024228D02*
X58350952Y7071847D01*
X58350952Y7071847D02*
X58493809Y7071847D01*
X58493809Y7071847D02*
X58589047Y7024228D01*
X58589047Y7024228D02*
X58636666Y6928990D01*
X58636666Y6928990D02*
X58636666Y6405180D01*
X58636666Y6928990D02*
X58684285Y7024228D01*
X58684285Y7024228D02*
X58779523Y7071847D01*
X58779523Y7071847D02*
X58922380Y7071847D01*
X58922380Y7071847D02*
X59017619Y7024228D01*
X59017619Y7024228D02*
X59065238Y6928990D01*
X59065238Y6928990D02*
X59065238Y6405180D01*
X22622381Y-12084819D02*
X22050953Y-12084819D01*
X22336667Y-12084819D02*
X22336667Y-11084819D01*
X22336667Y-11084819D02*
X22241429Y-11227676D01*
X22241429Y-11227676D02*
X22146191Y-11322914D01*
X22146191Y-11322914D02*
X22050953Y-11370533D01*
X23479524Y-11418152D02*
X23479524Y-12084819D01*
X23241429Y-11037200D02*
X23003334Y-11751485D01*
X23003334Y-11751485D02*
X23622381Y-11751485D01*
X24003334Y-11989580D02*
X24050953Y-12037200D01*
X24050953Y-12037200D02*
X24003334Y-12084819D01*
X24003334Y-12084819D02*
X23955715Y-12037200D01*
X23955715Y-12037200D02*
X24003334Y-11989580D01*
X24003334Y-11989580D02*
X24003334Y-12084819D01*
X24622381Y-11513390D02*
X24527143Y-11465771D01*
X24527143Y-11465771D02*
X24479524Y-11418152D01*
X24479524Y-11418152D02*
X24431905Y-11322914D01*
X24431905Y-11322914D02*
X24431905Y-11275295D01*
X24431905Y-11275295D02*
X24479524Y-11180057D01*
X24479524Y-11180057D02*
X24527143Y-11132438D01*
X24527143Y-11132438D02*
X24622381Y-11084819D01*
X24622381Y-11084819D02*
X24812857Y-11084819D01*
X24812857Y-11084819D02*
X24908095Y-11132438D01*
X24908095Y-11132438D02*
X24955714Y-11180057D01*
X24955714Y-11180057D02*
X25003333Y-11275295D01*
X25003333Y-11275295D02*
X25003333Y-11322914D01*
X25003333Y-11322914D02*
X24955714Y-11418152D01*
X24955714Y-11418152D02*
X24908095Y-11465771D01*
X24908095Y-11465771D02*
X24812857Y-11513390D01*
X24812857Y-11513390D02*
X24622381Y-11513390D01*
X24622381Y-11513390D02*
X24527143Y-11561009D01*
X24527143Y-11561009D02*
X24479524Y-11608628D01*
X24479524Y-11608628D02*
X24431905Y-11703866D01*
X24431905Y-11703866D02*
X24431905Y-11894342D01*
X24431905Y-11894342D02*
X24479524Y-11989580D01*
X24479524Y-11989580D02*
X24527143Y-12037200D01*
X24527143Y-12037200D02*
X24622381Y-12084819D01*
X24622381Y-12084819D02*
X24812857Y-12084819D01*
X24812857Y-12084819D02*
X24908095Y-12037200D01*
X24908095Y-12037200D02*
X24955714Y-11989580D01*
X24955714Y-11989580D02*
X25003333Y-11894342D01*
X25003333Y-11894342D02*
X25003333Y-11703866D01*
X25003333Y-11703866D02*
X24955714Y-11608628D01*
X24955714Y-11608628D02*
X24908095Y-11561009D01*
X24908095Y-11561009D02*
X24812857Y-11513390D01*
X25860476Y-11084819D02*
X25670000Y-11084819D01*
X25670000Y-11084819D02*
X25574762Y-11132438D01*
X25574762Y-11132438D02*
X25527143Y-11180057D01*
X25527143Y-11180057D02*
X25431905Y-11322914D01*
X25431905Y-11322914D02*
X25384286Y-11513390D01*
X25384286Y-11513390D02*
X25384286Y-11894342D01*
X25384286Y-11894342D02*
X25431905Y-11989580D01*
X25431905Y-11989580D02*
X25479524Y-12037200D01*
X25479524Y-12037200D02*
X25574762Y-12084819D01*
X25574762Y-12084819D02*
X25765238Y-12084819D01*
X25765238Y-12084819D02*
X25860476Y-12037200D01*
X25860476Y-12037200D02*
X25908095Y-11989580D01*
X25908095Y-11989580D02*
X25955714Y-11894342D01*
X25955714Y-11894342D02*
X25955714Y-11656247D01*
X25955714Y-11656247D02*
X25908095Y-11561009D01*
X25908095Y-11561009D02*
X25860476Y-11513390D01*
X25860476Y-11513390D02*
X25765238Y-11465771D01*
X25765238Y-11465771D02*
X25574762Y-11465771D01*
X25574762Y-11465771D02*
X25479524Y-11513390D01*
X25479524Y-11513390D02*
X25431905Y-11561009D01*
X25431905Y-11561009D02*
X25384286Y-11656247D01*
X26574762Y-11084819D02*
X26670000Y-11084819D01*
X26670000Y-11084819D02*
X26765238Y-11132438D01*
X26765238Y-11132438D02*
X26812857Y-11180057D01*
X26812857Y-11180057D02*
X26860476Y-11275295D01*
X26860476Y-11275295D02*
X26908095Y-11465771D01*
X26908095Y-11465771D02*
X26908095Y-11703866D01*
X26908095Y-11703866D02*
X26860476Y-11894342D01*
X26860476Y-11894342D02*
X26812857Y-11989580D01*
X26812857Y-11989580D02*
X26765238Y-12037200D01*
X26765238Y-12037200D02*
X26670000Y-12084819D01*
X26670000Y-12084819D02*
X26574762Y-12084819D01*
X26574762Y-12084819D02*
X26479524Y-12037200D01*
X26479524Y-12037200D02*
X26431905Y-11989580D01*
X26431905Y-11989580D02*
X26384286Y-11894342D01*
X26384286Y-11894342D02*
X26336667Y-11703866D01*
X26336667Y-11703866D02*
X26336667Y-11465771D01*
X26336667Y-11465771D02*
X26384286Y-11275295D01*
X26384286Y-11275295D02*
X26431905Y-11180057D01*
X26431905Y-11180057D02*
X26479524Y-11132438D01*
X26479524Y-11132438D02*
X26574762Y-11084819D01*
X27527143Y-11084819D02*
X27622381Y-11084819D01*
X27622381Y-11084819D02*
X27717619Y-11132438D01*
X27717619Y-11132438D02*
X27765238Y-11180057D01*
X27765238Y-11180057D02*
X27812857Y-11275295D01*
X27812857Y-11275295D02*
X27860476Y-11465771D01*
X27860476Y-11465771D02*
X27860476Y-11703866D01*
X27860476Y-11703866D02*
X27812857Y-11894342D01*
X27812857Y-11894342D02*
X27765238Y-11989580D01*
X27765238Y-11989580D02*
X27717619Y-12037200D01*
X27717619Y-12037200D02*
X27622381Y-12084819D01*
X27622381Y-12084819D02*
X27527143Y-12084819D01*
X27527143Y-12084819D02*
X27431905Y-12037200D01*
X27431905Y-12037200D02*
X27384286Y-11989580D01*
X27384286Y-11989580D02*
X27336667Y-11894342D01*
X27336667Y-11894342D02*
X27289048Y-11703866D01*
X27289048Y-11703866D02*
X27289048Y-11465771D01*
X27289048Y-11465771D02*
X27336667Y-11275295D01*
X27336667Y-11275295D02*
X27384286Y-11180057D01*
X27384286Y-11180057D02*
X27431905Y-11132438D01*
X27431905Y-11132438D02*
X27527143Y-11084819D01*
X29050953Y-12084819D02*
X29050953Y-11418152D01*
X29050953Y-11513390D02*
X29098572Y-11465771D01*
X29098572Y-11465771D02*
X29193810Y-11418152D01*
X29193810Y-11418152D02*
X29336667Y-11418152D01*
X29336667Y-11418152D02*
X29431905Y-11465771D01*
X29431905Y-11465771D02*
X29479524Y-11561009D01*
X29479524Y-11561009D02*
X29479524Y-12084819D01*
X29479524Y-11561009D02*
X29527143Y-11465771D01*
X29527143Y-11465771D02*
X29622381Y-11418152D01*
X29622381Y-11418152D02*
X29765238Y-11418152D01*
X29765238Y-11418152D02*
X29860477Y-11465771D01*
X29860477Y-11465771D02*
X29908096Y-11561009D01*
X29908096Y-11561009D02*
X29908096Y-12084819D01*
X30384286Y-12084819D02*
X30384286Y-11418152D01*
X30384286Y-11513390D02*
X30431905Y-11465771D01*
X30431905Y-11465771D02*
X30527143Y-11418152D01*
X30527143Y-11418152D02*
X30670000Y-11418152D01*
X30670000Y-11418152D02*
X30765238Y-11465771D01*
X30765238Y-11465771D02*
X30812857Y-11561009D01*
X30812857Y-11561009D02*
X30812857Y-12084819D01*
X30812857Y-11561009D02*
X30860476Y-11465771D01*
X30860476Y-11465771D02*
X30955714Y-11418152D01*
X30955714Y-11418152D02*
X31098571Y-11418152D01*
X31098571Y-11418152D02*
X31193810Y-11465771D01*
X31193810Y-11465771D02*
X31241429Y-11561009D01*
X31241429Y-11561009D02*
X31241429Y-12084819D01*
X-9549942Y-372856D02*
X-9597561Y-325237D01*
X-9597561Y-325237D02*
X-9645180Y-229999D01*
X-9645180Y-229999D02*
X-9645180Y8095D01*
X-9645180Y8095D02*
X-9597561Y103333D01*
X-9597561Y103333D02*
X-9549942Y150952D01*
X-9549942Y150952D02*
X-9454704Y198571D01*
X-9454704Y198571D02*
X-9359466Y198571D01*
X-9359466Y198571D02*
X-9216609Y150952D01*
X-9216609Y150952D02*
X-8645180Y-420475D01*
X-8645180Y-420475D02*
X-8645180Y198571D01*
X-8740419Y627143D02*
X-8692800Y674762D01*
X-8692800Y674762D02*
X-8645180Y627143D01*
X-8645180Y627143D02*
X-8692800Y579524D01*
X-8692800Y579524D02*
X-8740419Y627143D01*
X-8740419Y627143D02*
X-8645180Y627143D01*
X-9645180Y1531904D02*
X-9645180Y1341428D01*
X-9645180Y1341428D02*
X-9597561Y1246190D01*
X-9597561Y1246190D02*
X-9549942Y1198571D01*
X-9549942Y1198571D02*
X-9407085Y1103333D01*
X-9407085Y1103333D02*
X-9216609Y1055714D01*
X-9216609Y1055714D02*
X-8835657Y1055714D01*
X-8835657Y1055714D02*
X-8740419Y1103333D01*
X-8740419Y1103333D02*
X-8692800Y1150952D01*
X-8692800Y1150952D02*
X-8645180Y1246190D01*
X-8645180Y1246190D02*
X-8645180Y1436666D01*
X-8645180Y1436666D02*
X-8692800Y1531904D01*
X-8692800Y1531904D02*
X-8740419Y1579523D01*
X-8740419Y1579523D02*
X-8835657Y1627142D01*
X-8835657Y1627142D02*
X-9073752Y1627142D01*
X-9073752Y1627142D02*
X-9168990Y1579523D01*
X-9168990Y1579523D02*
X-9216609Y1531904D01*
X-9216609Y1531904D02*
X-9264228Y1436666D01*
X-9264228Y1436666D02*
X-9264228Y1246190D01*
X-9264228Y1246190D02*
X-9216609Y1150952D01*
X-9216609Y1150952D02*
X-9168990Y1103333D01*
X-9168990Y1103333D02*
X-9073752Y1055714D01*
X-9645180Y2246190D02*
X-9645180Y2341428D01*
X-9645180Y2341428D02*
X-9597561Y2436666D01*
X-9597561Y2436666D02*
X-9549942Y2484285D01*
X-9549942Y2484285D02*
X-9454704Y2531904D01*
X-9454704Y2531904D02*
X-9264228Y2579523D01*
X-9264228Y2579523D02*
X-9026133Y2579523D01*
X-9026133Y2579523D02*
X-8835657Y2531904D01*
X-8835657Y2531904D02*
X-8740419Y2484285D01*
X-8740419Y2484285D02*
X-8692800Y2436666D01*
X-8692800Y2436666D02*
X-8645180Y2341428D01*
X-8645180Y2341428D02*
X-8645180Y2246190D01*
X-8645180Y2246190D02*
X-8692800Y2150952D01*
X-8692800Y2150952D02*
X-8740419Y2103333D01*
X-8740419Y2103333D02*
X-8835657Y2055714D01*
X-8835657Y2055714D02*
X-9026133Y2008095D01*
X-9026133Y2008095D02*
X-9264228Y2008095D01*
X-9264228Y2008095D02*
X-9454704Y2055714D01*
X-9454704Y2055714D02*
X-9549942Y2103333D01*
X-9549942Y2103333D02*
X-9597561Y2150952D01*
X-9597561Y2150952D02*
X-9645180Y2246190D01*
X-9645180Y3198571D02*
X-9645180Y3293809D01*
X-9645180Y3293809D02*
X-9597561Y3389047D01*
X-9597561Y3389047D02*
X-9549942Y3436666D01*
X-9549942Y3436666D02*
X-9454704Y3484285D01*
X-9454704Y3484285D02*
X-9264228Y3531904D01*
X-9264228Y3531904D02*
X-9026133Y3531904D01*
X-9026133Y3531904D02*
X-8835657Y3484285D01*
X-8835657Y3484285D02*
X-8740419Y3436666D01*
X-8740419Y3436666D02*
X-8692800Y3389047D01*
X-8692800Y3389047D02*
X-8645180Y3293809D01*
X-8645180Y3293809D02*
X-8645180Y3198571D01*
X-8645180Y3198571D02*
X-8692800Y3103333D01*
X-8692800Y3103333D02*
X-8740419Y3055714D01*
X-8740419Y3055714D02*
X-8835657Y3008095D01*
X-8835657Y3008095D02*
X-9026133Y2960476D01*
X-9026133Y2960476D02*
X-9264228Y2960476D01*
X-9264228Y2960476D02*
X-9454704Y3008095D01*
X-9454704Y3008095D02*
X-9549942Y3055714D01*
X-9549942Y3055714D02*
X-9597561Y3103333D01*
X-9597561Y3103333D02*
X-9645180Y3198571D01*
X-9645180Y4150952D02*
X-9645180Y4246190D01*
X-9645180Y4246190D02*
X-9597561Y4341428D01*
X-9597561Y4341428D02*
X-9549942Y4389047D01*
X-9549942Y4389047D02*
X-9454704Y4436666D01*
X-9454704Y4436666D02*
X-9264228Y4484285D01*
X-9264228Y4484285D02*
X-9026133Y4484285D01*
X-9026133Y4484285D02*
X-8835657Y4436666D01*
X-8835657Y4436666D02*
X-8740419Y4389047D01*
X-8740419Y4389047D02*
X-8692800Y4341428D01*
X-8692800Y4341428D02*
X-8645180Y4246190D01*
X-8645180Y4246190D02*
X-8645180Y4150952D01*
X-8645180Y4150952D02*
X-8692800Y4055714D01*
X-8692800Y4055714D02*
X-8740419Y4008095D01*
X-8740419Y4008095D02*
X-8835657Y3960476D01*
X-8835657Y3960476D02*
X-9026133Y3912857D01*
X-9026133Y3912857D02*
X-9264228Y3912857D01*
X-9264228Y3912857D02*
X-9454704Y3960476D01*
X-9454704Y3960476D02*
X-9549942Y4008095D01*
X-9549942Y4008095D02*
X-9597561Y4055714D01*
X-9597561Y4055714D02*
X-9645180Y4150952D01*
X-8645180Y5674762D02*
X-9311847Y5674762D01*
X-9216609Y5674762D02*
X-9264228Y5722381D01*
X-9264228Y5722381D02*
X-9311847Y5817619D01*
X-9311847Y5817619D02*
X-9311847Y5960476D01*
X-9311847Y5960476D02*
X-9264228Y6055714D01*
X-9264228Y6055714D02*
X-9168990Y6103333D01*
X-9168990Y6103333D02*
X-8645180Y6103333D01*
X-9168990Y6103333D02*
X-9264228Y6150952D01*
X-9264228Y6150952D02*
X-9311847Y6246190D01*
X-9311847Y6246190D02*
X-9311847Y6389047D01*
X-9311847Y6389047D02*
X-9264228Y6484286D01*
X-9264228Y6484286D02*
X-9168990Y6531905D01*
X-9168990Y6531905D02*
X-8645180Y6531905D01*
X-8645180Y7008095D02*
X-9311847Y7008095D01*
X-9216609Y7008095D02*
X-9264228Y7055714D01*
X-9264228Y7055714D02*
X-9311847Y7150952D01*
X-9311847Y7150952D02*
X-9311847Y7293809D01*
X-9311847Y7293809D02*
X-9264228Y7389047D01*
X-9264228Y7389047D02*
X-9168990Y7436666D01*
X-9168990Y7436666D02*
X-8645180Y7436666D01*
X-9168990Y7436666D02*
X-9264228Y7484285D01*
X-9264228Y7484285D02*
X-9311847Y7579523D01*
X-9311847Y7579523D02*
X-9311847Y7722380D01*
X-9311847Y7722380D02*
X-9264228Y7817619D01*
X-9264228Y7817619D02*
X-9168990Y7865238D01*
X-9168990Y7865238D02*
X-8645180Y7865238D01*
%TO.C,J1*%
D11*
X28040000Y-71240000D02*
X25540000Y-71240000D01*
X28540000Y-73340000D02*
X28540000Y-71740000D01*
X29040000Y-73840000D02*
X48740000Y-73840000D01*
X49240000Y-71240000D02*
X64100000Y-71240000D01*
X49240000Y-73340000D02*
X49240000Y-71240000D01*
X64100000Y-73340000D02*
X64100000Y-71240000D01*
X64600000Y-73840000D02*
X89380000Y-73840000D01*
X89880000Y-73340000D02*
X89880000Y-71740000D01*
X90380000Y-71240000D02*
X92880000Y-71240000D01*
X28040000Y-71240000D02*
G75*
G02*
X28540000Y-71740000I-1J-500001D01*
G01*
X29040000Y-73840000D02*
G75*
G02*
X28540000Y-73340000I1J500001D01*
G01*
X49240000Y-73340000D02*
G75*
G02*
X48740000Y-73840000I-500000J0D01*
G01*
X64600000Y-73840000D02*
G75*
G02*
X64100000Y-73340000I0J500000D01*
G01*
X89880000Y-71740000D02*
G75*
G02*
X90380000Y-71240000I500000J0D01*
G01*
X89880000Y-73340000D02*
G75*
G02*
X89380000Y-73840000I-500000J0D01*
G01*
D10*
X-10721428Y-9894819D02*
X-11292856Y-9894819D01*
X-11007142Y-9894819D02*
X-11007142Y-8894819D01*
X-11007142Y-8894819D02*
X-11102380Y-9037676D01*
X-11102380Y-9037676D02*
X-11197618Y-9132914D01*
X-11197618Y-9132914D02*
X-11292856Y-9180533D01*
X-10292856Y-9799580D02*
X-10245237Y-9847200D01*
X-10245237Y-9847200D02*
X-10292856Y-9894819D01*
X-10292856Y-9894819D02*
X-10340475Y-9847200D01*
X-10340475Y-9847200D02*
X-10292856Y-9799580D01*
X-10292856Y-9799580D02*
X-10292856Y-9894819D01*
X-9388095Y-9228152D02*
X-9388095Y-9894819D01*
X-9626190Y-8847200D02*
X-9864285Y-9561485D01*
X-9864285Y-9561485D02*
X-9245238Y-9561485D01*
X-8435714Y-8894819D02*
X-8626190Y-8894819D01*
X-8626190Y-8894819D02*
X-8721428Y-8942438D01*
X-8721428Y-8942438D02*
X-8769047Y-8990057D01*
X-8769047Y-8990057D02*
X-8864285Y-9132914D01*
X-8864285Y-9132914D02*
X-8911904Y-9323390D01*
X-8911904Y-9323390D02*
X-8911904Y-9704342D01*
X-8911904Y-9704342D02*
X-8864285Y-9799580D01*
X-8864285Y-9799580D02*
X-8816666Y-9847200D01*
X-8816666Y-9847200D02*
X-8721428Y-9894819D01*
X-8721428Y-9894819D02*
X-8530952Y-9894819D01*
X-8530952Y-9894819D02*
X-8435714Y-9847200D01*
X-8435714Y-9847200D02*
X-8388095Y-9799580D01*
X-8388095Y-9799580D02*
X-8340476Y-9704342D01*
X-8340476Y-9704342D02*
X-8340476Y-9466247D01*
X-8340476Y-9466247D02*
X-8388095Y-9371009D01*
X-8388095Y-9371009D02*
X-8435714Y-9323390D01*
X-8435714Y-9323390D02*
X-8530952Y-9275771D01*
X-8530952Y-9275771D02*
X-8721428Y-9275771D01*
X-8721428Y-9275771D02*
X-8816666Y-9323390D01*
X-8816666Y-9323390D02*
X-8864285Y-9371009D01*
X-8864285Y-9371009D02*
X-8911904Y-9466247D01*
X-7721428Y-8894819D02*
X-7626190Y-8894819D01*
X-7626190Y-8894819D02*
X-7530952Y-8942438D01*
X-7530952Y-8942438D02*
X-7483333Y-8990057D01*
X-7483333Y-8990057D02*
X-7435714Y-9085295D01*
X-7435714Y-9085295D02*
X-7388095Y-9275771D01*
X-7388095Y-9275771D02*
X-7388095Y-9513866D01*
X-7388095Y-9513866D02*
X-7435714Y-9704342D01*
X-7435714Y-9704342D02*
X-7483333Y-9799580D01*
X-7483333Y-9799580D02*
X-7530952Y-9847200D01*
X-7530952Y-9847200D02*
X-7626190Y-9894819D01*
X-7626190Y-9894819D02*
X-7721428Y-9894819D01*
X-7721428Y-9894819D02*
X-7816666Y-9847200D01*
X-7816666Y-9847200D02*
X-7864285Y-9799580D01*
X-7864285Y-9799580D02*
X-7911904Y-9704342D01*
X-7911904Y-9704342D02*
X-7959523Y-9513866D01*
X-7959523Y-9513866D02*
X-7959523Y-9275771D01*
X-7959523Y-9275771D02*
X-7911904Y-9085295D01*
X-7911904Y-9085295D02*
X-7864285Y-8990057D01*
X-7864285Y-8990057D02*
X-7816666Y-8942438D01*
X-7816666Y-8942438D02*
X-7721428Y-8894819D01*
X-6769047Y-8894819D02*
X-6673809Y-8894819D01*
X-6673809Y-8894819D02*
X-6578571Y-8942438D01*
X-6578571Y-8942438D02*
X-6530952Y-8990057D01*
X-6530952Y-8990057D02*
X-6483333Y-9085295D01*
X-6483333Y-9085295D02*
X-6435714Y-9275771D01*
X-6435714Y-9275771D02*
X-6435714Y-9513866D01*
X-6435714Y-9513866D02*
X-6483333Y-9704342D01*
X-6483333Y-9704342D02*
X-6530952Y-9799580D01*
X-6530952Y-9799580D02*
X-6578571Y-9847200D01*
X-6578571Y-9847200D02*
X-6673809Y-9894819D01*
X-6673809Y-9894819D02*
X-6769047Y-9894819D01*
X-6769047Y-9894819D02*
X-6864285Y-9847200D01*
X-6864285Y-9847200D02*
X-6911904Y-9799580D01*
X-6911904Y-9799580D02*
X-6959523Y-9704342D01*
X-6959523Y-9704342D02*
X-7007142Y-9513866D01*
X-7007142Y-9513866D02*
X-7007142Y-9275771D01*
X-7007142Y-9275771D02*
X-6959523Y-9085295D01*
X-6959523Y-9085295D02*
X-6911904Y-8990057D01*
X-6911904Y-8990057D02*
X-6864285Y-8942438D01*
X-6864285Y-8942438D02*
X-6769047Y-8894819D01*
X-5245237Y-9894819D02*
X-5245237Y-9228152D01*
X-5245237Y-9323390D02*
X-5197618Y-9275771D01*
X-5197618Y-9275771D02*
X-5102380Y-9228152D01*
X-5102380Y-9228152D02*
X-4959523Y-9228152D01*
X-4959523Y-9228152D02*
X-4864285Y-9275771D01*
X-4864285Y-9275771D02*
X-4816666Y-9371009D01*
X-4816666Y-9371009D02*
X-4816666Y-9894819D01*
X-4816666Y-9371009D02*
X-4769047Y-9275771D01*
X-4769047Y-9275771D02*
X-4673809Y-9228152D01*
X-4673809Y-9228152D02*
X-4530952Y-9228152D01*
X-4530952Y-9228152D02*
X-4435713Y-9275771D01*
X-4435713Y-9275771D02*
X-4388094Y-9371009D01*
X-4388094Y-9371009D02*
X-4388094Y-9894819D01*
X-3911904Y-9894819D02*
X-3911904Y-9228152D01*
X-3911904Y-9323390D02*
X-3864285Y-9275771D01*
X-3864285Y-9275771D02*
X-3769047Y-9228152D01*
X-3769047Y-9228152D02*
X-3626190Y-9228152D01*
X-3626190Y-9228152D02*
X-3530952Y-9275771D01*
X-3530952Y-9275771D02*
X-3483333Y-9371009D01*
X-3483333Y-9371009D02*
X-3483333Y-9894819D01*
X-3483333Y-9371009D02*
X-3435714Y-9275771D01*
X-3435714Y-9275771D02*
X-3340476Y-9228152D01*
X-3340476Y-9228152D02*
X-3197619Y-9228152D01*
X-3197619Y-9228152D02*
X-3102380Y-9275771D01*
X-3102380Y-9275771D02*
X-3054761Y-9371009D01*
X-3054761Y-9371009D02*
X-3054761Y-9894819D01*
D11*
X-1460000Y-4180000D02*
X-1460000Y-10026420D01*
X0Y-4180000D02*
X0Y-10026420D01*
X-1460000Y-9440000D02*
X0Y-9440000D01*
X-1460000Y-9440000D02*
X-333496Y-8853579D01*
X-1460000Y-9440000D02*
X-333496Y-10026421D01*
X0Y-9440000D02*
X-1126504Y-10026421D01*
X0Y-9440000D02*
X-1126504Y-8853579D01*
D10*
X4270953Y-11180057D02*
X4318572Y-11132438D01*
X4318572Y-11132438D02*
X4413810Y-11084819D01*
X4413810Y-11084819D02*
X4651905Y-11084819D01*
X4651905Y-11084819D02*
X4747143Y-11132438D01*
X4747143Y-11132438D02*
X4794762Y-11180057D01*
X4794762Y-11180057D02*
X4842381Y-11275295D01*
X4842381Y-11275295D02*
X4842381Y-11370533D01*
X4842381Y-11370533D02*
X4794762Y-11513390D01*
X4794762Y-11513390D02*
X4223334Y-12084819D01*
X4223334Y-12084819D02*
X4842381Y-12084819D01*
X5461429Y-11084819D02*
X5556667Y-11084819D01*
X5556667Y-11084819D02*
X5651905Y-11132438D01*
X5651905Y-11132438D02*
X5699524Y-11180057D01*
X5699524Y-11180057D02*
X5747143Y-11275295D01*
X5747143Y-11275295D02*
X5794762Y-11465771D01*
X5794762Y-11465771D02*
X5794762Y-11703866D01*
X5794762Y-11703866D02*
X5747143Y-11894342D01*
X5747143Y-11894342D02*
X5699524Y-11989580D01*
X5699524Y-11989580D02*
X5651905Y-12037200D01*
X5651905Y-12037200D02*
X5556667Y-12084819D01*
X5556667Y-12084819D02*
X5461429Y-12084819D01*
X5461429Y-12084819D02*
X5366191Y-12037200D01*
X5366191Y-12037200D02*
X5318572Y-11989580D01*
X5318572Y-11989580D02*
X5270953Y-11894342D01*
X5270953Y-11894342D02*
X5223334Y-11703866D01*
X5223334Y-11703866D02*
X5223334Y-11465771D01*
X5223334Y-11465771D02*
X5270953Y-11275295D01*
X5270953Y-11275295D02*
X5318572Y-11180057D01*
X5318572Y-11180057D02*
X5366191Y-11132438D01*
X5366191Y-11132438D02*
X5461429Y-11084819D01*
X6223334Y-11989580D02*
X6270953Y-12037200D01*
X6270953Y-12037200D02*
X6223334Y-12084819D01*
X6223334Y-12084819D02*
X6175715Y-12037200D01*
X6175715Y-12037200D02*
X6223334Y-11989580D01*
X6223334Y-11989580D02*
X6223334Y-12084819D01*
X6604286Y-11084819D02*
X7270952Y-11084819D01*
X7270952Y-11084819D02*
X6842381Y-12084819D01*
X7842381Y-11084819D02*
X7937619Y-11084819D01*
X7937619Y-11084819D02*
X8032857Y-11132438D01*
X8032857Y-11132438D02*
X8080476Y-11180057D01*
X8080476Y-11180057D02*
X8128095Y-11275295D01*
X8128095Y-11275295D02*
X8175714Y-11465771D01*
X8175714Y-11465771D02*
X8175714Y-11703866D01*
X8175714Y-11703866D02*
X8128095Y-11894342D01*
X8128095Y-11894342D02*
X8080476Y-11989580D01*
X8080476Y-11989580D02*
X8032857Y-12037200D01*
X8032857Y-12037200D02*
X7937619Y-12084819D01*
X7937619Y-12084819D02*
X7842381Y-12084819D01*
X7842381Y-12084819D02*
X7747143Y-12037200D01*
X7747143Y-12037200D02*
X7699524Y-11989580D01*
X7699524Y-11989580D02*
X7651905Y-11894342D01*
X7651905Y-11894342D02*
X7604286Y-11703866D01*
X7604286Y-11703866D02*
X7604286Y-11465771D01*
X7604286Y-11465771D02*
X7651905Y-11275295D01*
X7651905Y-11275295D02*
X7699524Y-11180057D01*
X7699524Y-11180057D02*
X7747143Y-11132438D01*
X7747143Y-11132438D02*
X7842381Y-11084819D01*
X8794762Y-11084819D02*
X8890000Y-11084819D01*
X8890000Y-11084819D02*
X8985238Y-11132438D01*
X8985238Y-11132438D02*
X9032857Y-11180057D01*
X9032857Y-11180057D02*
X9080476Y-11275295D01*
X9080476Y-11275295D02*
X9128095Y-11465771D01*
X9128095Y-11465771D02*
X9128095Y-11703866D01*
X9128095Y-11703866D02*
X9080476Y-11894342D01*
X9080476Y-11894342D02*
X9032857Y-11989580D01*
X9032857Y-11989580D02*
X8985238Y-12037200D01*
X8985238Y-12037200D02*
X8890000Y-12084819D01*
X8890000Y-12084819D02*
X8794762Y-12084819D01*
X8794762Y-12084819D02*
X8699524Y-12037200D01*
X8699524Y-12037200D02*
X8651905Y-11989580D01*
X8651905Y-11989580D02*
X8604286Y-11894342D01*
X8604286Y-11894342D02*
X8556667Y-11703866D01*
X8556667Y-11703866D02*
X8556667Y-11465771D01*
X8556667Y-11465771D02*
X8604286Y-11275295D01*
X8604286Y-11275295D02*
X8651905Y-11180057D01*
X8651905Y-11180057D02*
X8699524Y-11132438D01*
X8699524Y-11132438D02*
X8794762Y-11084819D01*
X9747143Y-11084819D02*
X9842381Y-11084819D01*
X9842381Y-11084819D02*
X9937619Y-11132438D01*
X9937619Y-11132438D02*
X9985238Y-11180057D01*
X9985238Y-11180057D02*
X10032857Y-11275295D01*
X10032857Y-11275295D02*
X10080476Y-11465771D01*
X10080476Y-11465771D02*
X10080476Y-11703866D01*
X10080476Y-11703866D02*
X10032857Y-11894342D01*
X10032857Y-11894342D02*
X9985238Y-11989580D01*
X9985238Y-11989580D02*
X9937619Y-12037200D01*
X9937619Y-12037200D02*
X9842381Y-12084819D01*
X9842381Y-12084819D02*
X9747143Y-12084819D01*
X9747143Y-12084819D02*
X9651905Y-12037200D01*
X9651905Y-12037200D02*
X9604286Y-11989580D01*
X9604286Y-11989580D02*
X9556667Y-11894342D01*
X9556667Y-11894342D02*
X9509048Y-11703866D01*
X9509048Y-11703866D02*
X9509048Y-11465771D01*
X9509048Y-11465771D02*
X9556667Y-11275295D01*
X9556667Y-11275295D02*
X9604286Y-11180057D01*
X9604286Y-11180057D02*
X9651905Y-11132438D01*
X9651905Y-11132438D02*
X9747143Y-11084819D01*
X11270953Y-12084819D02*
X11270953Y-11418152D01*
X11270953Y-11513390D02*
X11318572Y-11465771D01*
X11318572Y-11465771D02*
X11413810Y-11418152D01*
X11413810Y-11418152D02*
X11556667Y-11418152D01*
X11556667Y-11418152D02*
X11651905Y-11465771D01*
X11651905Y-11465771D02*
X11699524Y-11561009D01*
X11699524Y-11561009D02*
X11699524Y-12084819D01*
X11699524Y-11561009D02*
X11747143Y-11465771D01*
X11747143Y-11465771D02*
X11842381Y-11418152D01*
X11842381Y-11418152D02*
X11985238Y-11418152D01*
X11985238Y-11418152D02*
X12080477Y-11465771D01*
X12080477Y-11465771D02*
X12128096Y-11561009D01*
X12128096Y-11561009D02*
X12128096Y-12084819D01*
X12604286Y-12084819D02*
X12604286Y-11418152D01*
X12604286Y-11513390D02*
X12651905Y-11465771D01*
X12651905Y-11465771D02*
X12747143Y-11418152D01*
X12747143Y-11418152D02*
X12890000Y-11418152D01*
X12890000Y-11418152D02*
X12985238Y-11465771D01*
X12985238Y-11465771D02*
X13032857Y-11561009D01*
X13032857Y-11561009D02*
X13032857Y-12084819D01*
X13032857Y-11561009D02*
X13080476Y-11465771D01*
X13080476Y-11465771D02*
X13175714Y-11418152D01*
X13175714Y-11418152D02*
X13318571Y-11418152D01*
X13318571Y-11418152D02*
X13413810Y-11465771D01*
X13413810Y-11465771D02*
X13461429Y-11561009D01*
X13461429Y-11561009D02*
X13461429Y-12084819D01*
D11*
X-1460000Y-4120000D02*
X-1460000Y-13366420D01*
X19240000Y-4120000D02*
X19240000Y-13366420D01*
X-1460000Y-12780000D02*
X19240000Y-12780000D01*
X-1460000Y-12780000D02*
X-333496Y-12193579D01*
X-1460000Y-12780000D02*
X-333496Y-13366421D01*
X19240000Y-12780000D02*
X18113496Y-13366421D01*
X19240000Y-12780000D02*
X18113496Y-12193579D01*
D10*
X65473333Y-7354819D02*
X65140000Y-6878628D01*
X64901905Y-7354819D02*
X64901905Y-6354819D01*
X64901905Y-6354819D02*
X65282857Y-6354819D01*
X65282857Y-6354819D02*
X65378095Y-6402438D01*
X65378095Y-6402438D02*
X65425714Y-6450057D01*
X65425714Y-6450057D02*
X65473333Y-6545295D01*
X65473333Y-6545295D02*
X65473333Y-6688152D01*
X65473333Y-6688152D02*
X65425714Y-6783390D01*
X65425714Y-6783390D02*
X65378095Y-6831009D01*
X65378095Y-6831009D02*
X65282857Y-6878628D01*
X65282857Y-6878628D02*
X64901905Y-6878628D01*
X66854286Y-6354819D02*
X66949524Y-6354819D01*
X66949524Y-6354819D02*
X67044762Y-6402438D01*
X67044762Y-6402438D02*
X67092381Y-6450057D01*
X67092381Y-6450057D02*
X67140000Y-6545295D01*
X67140000Y-6545295D02*
X67187619Y-6735771D01*
X67187619Y-6735771D02*
X67187619Y-6973866D01*
X67187619Y-6973866D02*
X67140000Y-7164342D01*
X67140000Y-7164342D02*
X67092381Y-7259580D01*
X67092381Y-7259580D02*
X67044762Y-7307200D01*
X67044762Y-7307200D02*
X66949524Y-7354819D01*
X66949524Y-7354819D02*
X66854286Y-7354819D01*
X66854286Y-7354819D02*
X66759048Y-7307200D01*
X66759048Y-7307200D02*
X66711429Y-7259580D01*
X66711429Y-7259580D02*
X66663810Y-7164342D01*
X66663810Y-7164342D02*
X66616191Y-6973866D01*
X66616191Y-6973866D02*
X66616191Y-6735771D01*
X66616191Y-6735771D02*
X66663810Y-6545295D01*
X66663810Y-6545295D02*
X66711429Y-6450057D01*
X66711429Y-6450057D02*
X66759048Y-6402438D01*
X66759048Y-6402438D02*
X66854286Y-6354819D01*
X67616191Y-7259580D02*
X67663810Y-7307200D01*
X67663810Y-7307200D02*
X67616191Y-7354819D01*
X67616191Y-7354819D02*
X67568572Y-7307200D01*
X67568572Y-7307200D02*
X67616191Y-7259580D01*
X67616191Y-7259580D02*
X67616191Y-7354819D01*
X68568571Y-6354819D02*
X68092381Y-6354819D01*
X68092381Y-6354819D02*
X68044762Y-6831009D01*
X68044762Y-6831009D02*
X68092381Y-6783390D01*
X68092381Y-6783390D02*
X68187619Y-6735771D01*
X68187619Y-6735771D02*
X68425714Y-6735771D01*
X68425714Y-6735771D02*
X68520952Y-6783390D01*
X68520952Y-6783390D02*
X68568571Y-6831009D01*
X68568571Y-6831009D02*
X68616190Y-6926247D01*
X68616190Y-6926247D02*
X68616190Y-7164342D01*
X68616190Y-7164342D02*
X68568571Y-7259580D01*
X68568571Y-7259580D02*
X68520952Y-7307200D01*
X68520952Y-7307200D02*
X68425714Y-7354819D01*
X68425714Y-7354819D02*
X68187619Y-7354819D01*
X68187619Y-7354819D02*
X68092381Y-7307200D01*
X68092381Y-7307200D02*
X68044762Y-7259580D01*
X69235238Y-6354819D02*
X69330476Y-6354819D01*
X69330476Y-6354819D02*
X69425714Y-6402438D01*
X69425714Y-6402438D02*
X69473333Y-6450057D01*
X69473333Y-6450057D02*
X69520952Y-6545295D01*
X69520952Y-6545295D02*
X69568571Y-6735771D01*
X69568571Y-6735771D02*
X69568571Y-6973866D01*
X69568571Y-6973866D02*
X69520952Y-7164342D01*
X69520952Y-7164342D02*
X69473333Y-7259580D01*
X69473333Y-7259580D02*
X69425714Y-7307200D01*
X69425714Y-7307200D02*
X69330476Y-7354819D01*
X69330476Y-7354819D02*
X69235238Y-7354819D01*
X69235238Y-7354819D02*
X69140000Y-7307200D01*
X69140000Y-7307200D02*
X69092381Y-7259580D01*
X69092381Y-7259580D02*
X69044762Y-7164342D01*
X69044762Y-7164342D02*
X68997143Y-6973866D01*
X68997143Y-6973866D02*
X68997143Y-6735771D01*
X68997143Y-6735771D02*
X69044762Y-6545295D01*
X69044762Y-6545295D02*
X69092381Y-6450057D01*
X69092381Y-6450057D02*
X69140000Y-6402438D01*
X69140000Y-6402438D02*
X69235238Y-6354819D01*
X70187619Y-6354819D02*
X70282857Y-6354819D01*
X70282857Y-6354819D02*
X70378095Y-6402438D01*
X70378095Y-6402438D02*
X70425714Y-6450057D01*
X70425714Y-6450057D02*
X70473333Y-6545295D01*
X70473333Y-6545295D02*
X70520952Y-6735771D01*
X70520952Y-6735771D02*
X70520952Y-6973866D01*
X70520952Y-6973866D02*
X70473333Y-7164342D01*
X70473333Y-7164342D02*
X70425714Y-7259580D01*
X70425714Y-7259580D02*
X70378095Y-7307200D01*
X70378095Y-7307200D02*
X70282857Y-7354819D01*
X70282857Y-7354819D02*
X70187619Y-7354819D01*
X70187619Y-7354819D02*
X70092381Y-7307200D01*
X70092381Y-7307200D02*
X70044762Y-7259580D01*
X70044762Y-7259580D02*
X69997143Y-7164342D01*
X69997143Y-7164342D02*
X69949524Y-6973866D01*
X69949524Y-6973866D02*
X69949524Y-6735771D01*
X69949524Y-6735771D02*
X69997143Y-6545295D01*
X69997143Y-6545295D02*
X70044762Y-6450057D01*
X70044762Y-6450057D02*
X70092381Y-6402438D01*
X70092381Y-6402438D02*
X70187619Y-6354819D01*
X71140000Y-6354819D02*
X71235238Y-6354819D01*
X71235238Y-6354819D02*
X71330476Y-6402438D01*
X71330476Y-6402438D02*
X71378095Y-6450057D01*
X71378095Y-6450057D02*
X71425714Y-6545295D01*
X71425714Y-6545295D02*
X71473333Y-6735771D01*
X71473333Y-6735771D02*
X71473333Y-6973866D01*
X71473333Y-6973866D02*
X71425714Y-7164342D01*
X71425714Y-7164342D02*
X71378095Y-7259580D01*
X71378095Y-7259580D02*
X71330476Y-7307200D01*
X71330476Y-7307200D02*
X71235238Y-7354819D01*
X71235238Y-7354819D02*
X71140000Y-7354819D01*
X71140000Y-7354819D02*
X71044762Y-7307200D01*
X71044762Y-7307200D02*
X70997143Y-7259580D01*
X70997143Y-7259580D02*
X70949524Y-7164342D01*
X70949524Y-7164342D02*
X70901905Y-6973866D01*
X70901905Y-6973866D02*
X70901905Y-6735771D01*
X70901905Y-6735771D02*
X70949524Y-6545295D01*
X70949524Y-6545295D02*
X70997143Y-6450057D01*
X70997143Y-6450057D02*
X71044762Y-6402438D01*
X71044762Y-6402438D02*
X71140000Y-6354819D01*
X72663810Y-7354819D02*
X72663810Y-6688152D01*
X72663810Y-6783390D02*
X72711429Y-6735771D01*
X72711429Y-6735771D02*
X72806667Y-6688152D01*
X72806667Y-6688152D02*
X72949524Y-6688152D01*
X72949524Y-6688152D02*
X73044762Y-6735771D01*
X73044762Y-6735771D02*
X73092381Y-6831009D01*
X73092381Y-6831009D02*
X73092381Y-7354819D01*
X73092381Y-6831009D02*
X73140000Y-6735771D01*
X73140000Y-6735771D02*
X73235238Y-6688152D01*
X73235238Y-6688152D02*
X73378095Y-6688152D01*
X73378095Y-6688152D02*
X73473334Y-6735771D01*
X73473334Y-6735771D02*
X73520953Y-6831009D01*
X73520953Y-6831009D02*
X73520953Y-7354819D01*
X73997143Y-7354819D02*
X73997143Y-6688152D01*
X73997143Y-6783390D02*
X74044762Y-6735771D01*
X74044762Y-6735771D02*
X74140000Y-6688152D01*
X74140000Y-6688152D02*
X74282857Y-6688152D01*
X74282857Y-6688152D02*
X74378095Y-6735771D01*
X74378095Y-6735771D02*
X74425714Y-6831009D01*
X74425714Y-6831009D02*
X74425714Y-7354819D01*
X74425714Y-6831009D02*
X74473333Y-6735771D01*
X74473333Y-6735771D02*
X74568571Y-6688152D01*
X74568571Y-6688152D02*
X74711428Y-6688152D01*
X74711428Y-6688152D02*
X74806667Y-6735771D01*
X74806667Y-6735771D02*
X74854286Y-6831009D01*
X74854286Y-6831009D02*
X74854286Y-7354819D01*
X75997143Y-7354819D02*
X76520952Y-6688152D01*
X75997143Y-6688152D02*
X76520952Y-7354819D01*
X77044762Y-6783390D02*
X76949524Y-6735771D01*
X76949524Y-6735771D02*
X76901905Y-6688152D01*
X76901905Y-6688152D02*
X76854286Y-6592914D01*
X76854286Y-6592914D02*
X76854286Y-6545295D01*
X76854286Y-6545295D02*
X76901905Y-6450057D01*
X76901905Y-6450057D02*
X76949524Y-6402438D01*
X76949524Y-6402438D02*
X77044762Y-6354819D01*
X77044762Y-6354819D02*
X77235238Y-6354819D01*
X77235238Y-6354819D02*
X77330476Y-6402438D01*
X77330476Y-6402438D02*
X77378095Y-6450057D01*
X77378095Y-6450057D02*
X77425714Y-6545295D01*
X77425714Y-6545295D02*
X77425714Y-6592914D01*
X77425714Y-6592914D02*
X77378095Y-6688152D01*
X77378095Y-6688152D02*
X77330476Y-6735771D01*
X77330476Y-6735771D02*
X77235238Y-6783390D01*
X77235238Y-6783390D02*
X77044762Y-6783390D01*
X77044762Y-6783390D02*
X76949524Y-6831009D01*
X76949524Y-6831009D02*
X76901905Y-6878628D01*
X76901905Y-6878628D02*
X76854286Y-6973866D01*
X76854286Y-6973866D02*
X76854286Y-7164342D01*
X76854286Y-7164342D02*
X76901905Y-7259580D01*
X76901905Y-7259580D02*
X76949524Y-7307200D01*
X76949524Y-7307200D02*
X77044762Y-7354819D01*
X77044762Y-7354819D02*
X77235238Y-7354819D01*
X77235238Y-7354819D02*
X77330476Y-7307200D01*
X77330476Y-7307200D02*
X77378095Y-7259580D01*
X77378095Y-7259580D02*
X77425714Y-7164342D01*
X77425714Y-7164342D02*
X77425714Y-6973866D01*
X77425714Y-6973866D02*
X77378095Y-6878628D01*
X77378095Y-6878628D02*
X77330476Y-6831009D01*
X77330476Y-6831009D02*
X77235238Y-6783390D01*
D11*
X60087106Y-4047106D02*
X62940000Y-6900000D01*
X60087106Y-4047106D02*
X61298327Y-4429002D01*
X60087106Y-4047106D02*
X60469002Y-5258327D01*
X62940000Y-6900000D02*
X64038810Y-6900000D01*
D10*
X69514819Y1019524D02*
X69514819Y1638571D01*
X69514819Y1638571D02*
X69895771Y1305238D01*
X69895771Y1305238D02*
X69895771Y1448095D01*
X69895771Y1448095D02*
X69943390Y1543333D01*
X69943390Y1543333D02*
X69991009Y1590952D01*
X69991009Y1590952D02*
X70086247Y1638571D01*
X70086247Y1638571D02*
X70324342Y1638571D01*
X70324342Y1638571D02*
X70419580Y1590952D01*
X70419580Y1590952D02*
X70467200Y1543333D01*
X70467200Y1543333D02*
X70514819Y1448095D01*
X70514819Y1448095D02*
X70514819Y1162381D01*
X70514819Y1162381D02*
X70467200Y1067143D01*
X70467200Y1067143D02*
X70419580Y1019524D01*
X70419580Y2067143D02*
X70467200Y2114762D01*
X70467200Y2114762D02*
X70514819Y2067143D01*
X70514819Y2067143D02*
X70467200Y2019524D01*
X70467200Y2019524D02*
X70419580Y2067143D01*
X70419580Y2067143D02*
X70514819Y2067143D01*
X69943390Y2686190D02*
X69895771Y2590952D01*
X69895771Y2590952D02*
X69848152Y2543333D01*
X69848152Y2543333D02*
X69752914Y2495714D01*
X69752914Y2495714D02*
X69705295Y2495714D01*
X69705295Y2495714D02*
X69610057Y2543333D01*
X69610057Y2543333D02*
X69562438Y2590952D01*
X69562438Y2590952D02*
X69514819Y2686190D01*
X69514819Y2686190D02*
X69514819Y2876666D01*
X69514819Y2876666D02*
X69562438Y2971904D01*
X69562438Y2971904D02*
X69610057Y3019523D01*
X69610057Y3019523D02*
X69705295Y3067142D01*
X69705295Y3067142D02*
X69752914Y3067142D01*
X69752914Y3067142D02*
X69848152Y3019523D01*
X69848152Y3019523D02*
X69895771Y2971904D01*
X69895771Y2971904D02*
X69943390Y2876666D01*
X69943390Y2876666D02*
X69943390Y2686190D01*
X69943390Y2686190D02*
X69991009Y2590952D01*
X69991009Y2590952D02*
X70038628Y2543333D01*
X70038628Y2543333D02*
X70133866Y2495714D01*
X70133866Y2495714D02*
X70324342Y2495714D01*
X70324342Y2495714D02*
X70419580Y2543333D01*
X70419580Y2543333D02*
X70467200Y2590952D01*
X70467200Y2590952D02*
X70514819Y2686190D01*
X70514819Y2686190D02*
X70514819Y2876666D01*
X70514819Y2876666D02*
X70467200Y2971904D01*
X70467200Y2971904D02*
X70419580Y3019523D01*
X70419580Y3019523D02*
X70324342Y3067142D01*
X70324342Y3067142D02*
X70133866Y3067142D01*
X70133866Y3067142D02*
X70038628Y3019523D01*
X70038628Y3019523D02*
X69991009Y2971904D01*
X69991009Y2971904D02*
X69943390Y2876666D01*
X69848152Y3924285D02*
X70514819Y3924285D01*
X69467200Y3686190D02*
X70181485Y3448095D01*
X70181485Y3448095D02*
X70181485Y4067142D01*
X69514819Y4638571D02*
X69514819Y4733809D01*
X69514819Y4733809D02*
X69562438Y4829047D01*
X69562438Y4829047D02*
X69610057Y4876666D01*
X69610057Y4876666D02*
X69705295Y4924285D01*
X69705295Y4924285D02*
X69895771Y4971904D01*
X69895771Y4971904D02*
X70133866Y4971904D01*
X70133866Y4971904D02*
X70324342Y4924285D01*
X70324342Y4924285D02*
X70419580Y4876666D01*
X70419580Y4876666D02*
X70467200Y4829047D01*
X70467200Y4829047D02*
X70514819Y4733809D01*
X70514819Y4733809D02*
X70514819Y4638571D01*
X70514819Y4638571D02*
X70467200Y4543333D01*
X70467200Y4543333D02*
X70419580Y4495714D01*
X70419580Y4495714D02*
X70324342Y4448095D01*
X70324342Y4448095D02*
X70133866Y4400476D01*
X70133866Y4400476D02*
X69895771Y4400476D01*
X69895771Y4400476D02*
X69705295Y4448095D01*
X69705295Y4448095D02*
X69610057Y4495714D01*
X69610057Y4495714D02*
X69562438Y4543333D01*
X69562438Y4543333D02*
X69514819Y4638571D01*
X69514819Y5590952D02*
X69514819Y5686190D01*
X69514819Y5686190D02*
X69562438Y5781428D01*
X69562438Y5781428D02*
X69610057Y5829047D01*
X69610057Y5829047D02*
X69705295Y5876666D01*
X69705295Y5876666D02*
X69895771Y5924285D01*
X69895771Y5924285D02*
X70133866Y5924285D01*
X70133866Y5924285D02*
X70324342Y5876666D01*
X70324342Y5876666D02*
X70419580Y5829047D01*
X70419580Y5829047D02*
X70467200Y5781428D01*
X70467200Y5781428D02*
X70514819Y5686190D01*
X70514819Y5686190D02*
X70514819Y5590952D01*
X70514819Y5590952D02*
X70467200Y5495714D01*
X70467200Y5495714D02*
X70419580Y5448095D01*
X70419580Y5448095D02*
X70324342Y5400476D01*
X70324342Y5400476D02*
X70133866Y5352857D01*
X70133866Y5352857D02*
X69895771Y5352857D01*
X69895771Y5352857D02*
X69705295Y5400476D01*
X69705295Y5400476D02*
X69610057Y5448095D01*
X69610057Y5448095D02*
X69562438Y5495714D01*
X69562438Y5495714D02*
X69514819Y5590952D01*
X70514819Y7114762D02*
X69848152Y7114762D01*
X69943390Y7114762D02*
X69895771Y7162381D01*
X69895771Y7162381D02*
X69848152Y7257619D01*
X69848152Y7257619D02*
X69848152Y7400476D01*
X69848152Y7400476D02*
X69895771Y7495714D01*
X69895771Y7495714D02*
X69991009Y7543333D01*
X69991009Y7543333D02*
X70514819Y7543333D01*
X69991009Y7543333D02*
X69895771Y7590952D01*
X69895771Y7590952D02*
X69848152Y7686190D01*
X69848152Y7686190D02*
X69848152Y7829047D01*
X69848152Y7829047D02*
X69895771Y7924286D01*
X69895771Y7924286D02*
X69991009Y7971905D01*
X69991009Y7971905D02*
X70514819Y7971905D01*
X70514819Y8448095D02*
X69848152Y8448095D01*
X69943390Y8448095D02*
X69895771Y8495714D01*
X69895771Y8495714D02*
X69848152Y8590952D01*
X69848152Y8590952D02*
X69848152Y8733809D01*
X69848152Y8733809D02*
X69895771Y8829047D01*
X69895771Y8829047D02*
X69991009Y8876666D01*
X69991009Y8876666D02*
X70514819Y8876666D01*
X69991009Y8876666D02*
X69895771Y8924285D01*
X69895771Y8924285D02*
X69848152Y9019523D01*
X69848152Y9019523D02*
X69848152Y9162380D01*
X69848152Y9162380D02*
X69895771Y9257619D01*
X69895771Y9257619D02*
X69991009Y9305238D01*
X69991009Y9305238D02*
X70514819Y9305238D01*
D11*
X60900000Y0D02*
X70626420Y0D01*
X70626420Y-3840000D02*
X60900000Y-3840000D01*
X70040000Y0D02*
X70040000Y-3840000D01*
X70040000Y0D02*
X70626421Y-1126504D01*
X70040000Y0D02*
X69453579Y-1126504D01*
X70040000Y-3840000D02*
X69453579Y-2713496D01*
X70040000Y-3840000D02*
X70626421Y-2713496D01*
D10*
X42370953Y-11170057D02*
X42418572Y-11122438D01*
X42418572Y-11122438D02*
X42513810Y-11074819D01*
X42513810Y-11074819D02*
X42751905Y-11074819D01*
X42751905Y-11074819D02*
X42847143Y-11122438D01*
X42847143Y-11122438D02*
X42894762Y-11170057D01*
X42894762Y-11170057D02*
X42942381Y-11265295D01*
X42942381Y-11265295D02*
X42942381Y-11360533D01*
X42942381Y-11360533D02*
X42894762Y-11503390D01*
X42894762Y-11503390D02*
X42323334Y-12074819D01*
X42323334Y-12074819D02*
X42942381Y-12074819D01*
X43847143Y-11074819D02*
X43370953Y-11074819D01*
X43370953Y-11074819D02*
X43323334Y-11551009D01*
X43323334Y-11551009D02*
X43370953Y-11503390D01*
X43370953Y-11503390D02*
X43466191Y-11455771D01*
X43466191Y-11455771D02*
X43704286Y-11455771D01*
X43704286Y-11455771D02*
X43799524Y-11503390D01*
X43799524Y-11503390D02*
X43847143Y-11551009D01*
X43847143Y-11551009D02*
X43894762Y-11646247D01*
X43894762Y-11646247D02*
X43894762Y-11884342D01*
X43894762Y-11884342D02*
X43847143Y-11979580D01*
X43847143Y-11979580D02*
X43799524Y-12027200D01*
X43799524Y-12027200D02*
X43704286Y-12074819D01*
X43704286Y-12074819D02*
X43466191Y-12074819D01*
X43466191Y-12074819D02*
X43370953Y-12027200D01*
X43370953Y-12027200D02*
X43323334Y-11979580D01*
X44323334Y-11979580D02*
X44370953Y-12027200D01*
X44370953Y-12027200D02*
X44323334Y-12074819D01*
X44323334Y-12074819D02*
X44275715Y-12027200D01*
X44275715Y-12027200D02*
X44323334Y-11979580D01*
X44323334Y-11979580D02*
X44323334Y-12074819D01*
X44704286Y-11074819D02*
X45370952Y-11074819D01*
X45370952Y-11074819D02*
X44942381Y-12074819D01*
X45894762Y-11503390D02*
X45799524Y-11455771D01*
X45799524Y-11455771D02*
X45751905Y-11408152D01*
X45751905Y-11408152D02*
X45704286Y-11312914D01*
X45704286Y-11312914D02*
X45704286Y-11265295D01*
X45704286Y-11265295D02*
X45751905Y-11170057D01*
X45751905Y-11170057D02*
X45799524Y-11122438D01*
X45799524Y-11122438D02*
X45894762Y-11074819D01*
X45894762Y-11074819D02*
X46085238Y-11074819D01*
X46085238Y-11074819D02*
X46180476Y-11122438D01*
X46180476Y-11122438D02*
X46228095Y-11170057D01*
X46228095Y-11170057D02*
X46275714Y-11265295D01*
X46275714Y-11265295D02*
X46275714Y-11312914D01*
X46275714Y-11312914D02*
X46228095Y-11408152D01*
X46228095Y-11408152D02*
X46180476Y-11455771D01*
X46180476Y-11455771D02*
X46085238Y-11503390D01*
X46085238Y-11503390D02*
X45894762Y-11503390D01*
X45894762Y-11503390D02*
X45799524Y-11551009D01*
X45799524Y-11551009D02*
X45751905Y-11598628D01*
X45751905Y-11598628D02*
X45704286Y-11693866D01*
X45704286Y-11693866D02*
X45704286Y-11884342D01*
X45704286Y-11884342D02*
X45751905Y-11979580D01*
X45751905Y-11979580D02*
X45799524Y-12027200D01*
X45799524Y-12027200D02*
X45894762Y-12074819D01*
X45894762Y-12074819D02*
X46085238Y-12074819D01*
X46085238Y-12074819D02*
X46180476Y-12027200D01*
X46180476Y-12027200D02*
X46228095Y-11979580D01*
X46228095Y-11979580D02*
X46275714Y-11884342D01*
X46275714Y-11884342D02*
X46275714Y-11693866D01*
X46275714Y-11693866D02*
X46228095Y-11598628D01*
X46228095Y-11598628D02*
X46180476Y-11551009D01*
X46180476Y-11551009D02*
X46085238Y-11503390D01*
X46894762Y-11074819D02*
X46990000Y-11074819D01*
X46990000Y-11074819D02*
X47085238Y-11122438D01*
X47085238Y-11122438D02*
X47132857Y-11170057D01*
X47132857Y-11170057D02*
X47180476Y-11265295D01*
X47180476Y-11265295D02*
X47228095Y-11455771D01*
X47228095Y-11455771D02*
X47228095Y-11693866D01*
X47228095Y-11693866D02*
X47180476Y-11884342D01*
X47180476Y-11884342D02*
X47132857Y-11979580D01*
X47132857Y-11979580D02*
X47085238Y-12027200D01*
X47085238Y-12027200D02*
X46990000Y-12074819D01*
X46990000Y-12074819D02*
X46894762Y-12074819D01*
X46894762Y-12074819D02*
X46799524Y-12027200D01*
X46799524Y-12027200D02*
X46751905Y-11979580D01*
X46751905Y-11979580D02*
X46704286Y-11884342D01*
X46704286Y-11884342D02*
X46656667Y-11693866D01*
X46656667Y-11693866D02*
X46656667Y-11455771D01*
X46656667Y-11455771D02*
X46704286Y-11265295D01*
X46704286Y-11265295D02*
X46751905Y-11170057D01*
X46751905Y-11170057D02*
X46799524Y-11122438D01*
X46799524Y-11122438D02*
X46894762Y-11074819D01*
X47847143Y-11074819D02*
X47942381Y-11074819D01*
X47942381Y-11074819D02*
X48037619Y-11122438D01*
X48037619Y-11122438D02*
X48085238Y-11170057D01*
X48085238Y-11170057D02*
X48132857Y-11265295D01*
X48132857Y-11265295D02*
X48180476Y-11455771D01*
X48180476Y-11455771D02*
X48180476Y-11693866D01*
X48180476Y-11693866D02*
X48132857Y-11884342D01*
X48132857Y-11884342D02*
X48085238Y-11979580D01*
X48085238Y-11979580D02*
X48037619Y-12027200D01*
X48037619Y-12027200D02*
X47942381Y-12074819D01*
X47942381Y-12074819D02*
X47847143Y-12074819D01*
X47847143Y-12074819D02*
X47751905Y-12027200D01*
X47751905Y-12027200D02*
X47704286Y-11979580D01*
X47704286Y-11979580D02*
X47656667Y-11884342D01*
X47656667Y-11884342D02*
X47609048Y-11693866D01*
X47609048Y-11693866D02*
X47609048Y-11455771D01*
X47609048Y-11455771D02*
X47656667Y-11265295D01*
X47656667Y-11265295D02*
X47704286Y-11170057D01*
X47704286Y-11170057D02*
X47751905Y-11122438D01*
X47751905Y-11122438D02*
X47847143Y-11074819D01*
X49370953Y-12074819D02*
X49370953Y-11408152D01*
X49370953Y-11503390D02*
X49418572Y-11455771D01*
X49418572Y-11455771D02*
X49513810Y-11408152D01*
X49513810Y-11408152D02*
X49656667Y-11408152D01*
X49656667Y-11408152D02*
X49751905Y-11455771D01*
X49751905Y-11455771D02*
X49799524Y-11551009D01*
X49799524Y-11551009D02*
X49799524Y-12074819D01*
X49799524Y-11551009D02*
X49847143Y-11455771D01*
X49847143Y-11455771D02*
X49942381Y-11408152D01*
X49942381Y-11408152D02*
X50085238Y-11408152D01*
X50085238Y-11408152D02*
X50180477Y-11455771D01*
X50180477Y-11455771D02*
X50228096Y-11551009D01*
X50228096Y-11551009D02*
X50228096Y-12074819D01*
X50704286Y-12074819D02*
X50704286Y-11408152D01*
X50704286Y-11503390D02*
X50751905Y-11455771D01*
X50751905Y-11455771D02*
X50847143Y-11408152D01*
X50847143Y-11408152D02*
X50990000Y-11408152D01*
X50990000Y-11408152D02*
X51085238Y-11455771D01*
X51085238Y-11455771D02*
X51132857Y-11551009D01*
X51132857Y-11551009D02*
X51132857Y-12074819D01*
X51132857Y-11551009D02*
X51180476Y-11455771D01*
X51180476Y-11455771D02*
X51275714Y-11408152D01*
X51275714Y-11408152D02*
X51418571Y-11408152D01*
X51418571Y-11408152D02*
X51513810Y-11455771D01*
X51513810Y-11455771D02*
X51561429Y-11551009D01*
X51561429Y-11551009D02*
X51561429Y-12074819D01*
D11*
X34100000Y-4220000D02*
X34100000Y-13356420D01*
X59880000Y-13356420D02*
X59880000Y-4390000D01*
X34100000Y-12770000D02*
X59880000Y-12770000D01*
X34100000Y-12770000D02*
X35226504Y-12183579D01*
X34100000Y-12770000D02*
X35226504Y-13356421D01*
X59880000Y-12770000D02*
X58753496Y-13356421D01*
X59880000Y-12770000D02*
X58753496Y-12183579D01*
D10*
X50779524Y7405180D02*
X51398571Y7405180D01*
X51398571Y7405180D02*
X51065238Y7024228D01*
X51065238Y7024228D02*
X51208095Y7024228D01*
X51208095Y7024228D02*
X51303333Y6976609D01*
X51303333Y6976609D02*
X51350952Y6928990D01*
X51350952Y6928990D02*
X51398571Y6833752D01*
X51398571Y6833752D02*
X51398571Y6595657D01*
X51398571Y6595657D02*
X51350952Y6500419D01*
X51350952Y6500419D02*
X51303333Y6452800D01*
X51303333Y6452800D02*
X51208095Y6405180D01*
X51208095Y6405180D02*
X50922381Y6405180D01*
X50922381Y6405180D02*
X50827143Y6452800D01*
X50827143Y6452800D02*
X50779524Y6500419D01*
X51827143Y6500419D02*
X51874762Y6452800D01*
X51874762Y6452800D02*
X51827143Y6405180D01*
X51827143Y6405180D02*
X51779524Y6452800D01*
X51779524Y6452800D02*
X51827143Y6500419D01*
X51827143Y6500419D02*
X51827143Y6405180D01*
X52493809Y7405180D02*
X52589047Y7405180D01*
X52589047Y7405180D02*
X52684285Y7357561D01*
X52684285Y7357561D02*
X52731904Y7309942D01*
X52731904Y7309942D02*
X52779523Y7214704D01*
X52779523Y7214704D02*
X52827142Y7024228D01*
X52827142Y7024228D02*
X52827142Y6786133D01*
X52827142Y6786133D02*
X52779523Y6595657D01*
X52779523Y6595657D02*
X52731904Y6500419D01*
X52731904Y6500419D02*
X52684285Y6452800D01*
X52684285Y6452800D02*
X52589047Y6405180D01*
X52589047Y6405180D02*
X52493809Y6405180D01*
X52493809Y6405180D02*
X52398571Y6452800D01*
X52398571Y6452800D02*
X52350952Y6500419D01*
X52350952Y6500419D02*
X52303333Y6595657D01*
X52303333Y6595657D02*
X52255714Y6786133D01*
X52255714Y6786133D02*
X52255714Y7024228D01*
X52255714Y7024228D02*
X52303333Y7214704D01*
X52303333Y7214704D02*
X52350952Y7309942D01*
X52350952Y7309942D02*
X52398571Y7357561D01*
X52398571Y7357561D02*
X52493809Y7405180D01*
X53446190Y7405180D02*
X53541428Y7405180D01*
X53541428Y7405180D02*
X53636666Y7357561D01*
X53636666Y7357561D02*
X53684285Y7309942D01*
X53684285Y7309942D02*
X53731904Y7214704D01*
X53731904Y7214704D02*
X53779523Y7024228D01*
X53779523Y7024228D02*
X53779523Y6786133D01*
X53779523Y6786133D02*
X53731904Y6595657D01*
X53731904Y6595657D02*
X53684285Y6500419D01*
X53684285Y6500419D02*
X53636666Y6452800D01*
X53636666Y6452800D02*
X53541428Y6405180D01*
X53541428Y6405180D02*
X53446190Y6405180D01*
X53446190Y6405180D02*
X53350952Y6452800D01*
X53350952Y6452800D02*
X53303333Y6500419D01*
X53303333Y6500419D02*
X53255714Y6595657D01*
X53255714Y6595657D02*
X53208095Y6786133D01*
X53208095Y6786133D02*
X53208095Y7024228D01*
X53208095Y7024228D02*
X53255714Y7214704D01*
X53255714Y7214704D02*
X53303333Y7309942D01*
X53303333Y7309942D02*
X53350952Y7357561D01*
X53350952Y7357561D02*
X53446190Y7405180D01*
X54398571Y7405180D02*
X54493809Y7405180D01*
X54493809Y7405180D02*
X54589047Y7357561D01*
X54589047Y7357561D02*
X54636666Y7309942D01*
X54636666Y7309942D02*
X54684285Y7214704D01*
X54684285Y7214704D02*
X54731904Y7024228D01*
X54731904Y7024228D02*
X54731904Y6786133D01*
X54731904Y6786133D02*
X54684285Y6595657D01*
X54684285Y6595657D02*
X54636666Y6500419D01*
X54636666Y6500419D02*
X54589047Y6452800D01*
X54589047Y6452800D02*
X54493809Y6405180D01*
X54493809Y6405180D02*
X54398571Y6405180D01*
X54398571Y6405180D02*
X54303333Y6452800D01*
X54303333Y6452800D02*
X54255714Y6500419D01*
X54255714Y6500419D02*
X54208095Y6595657D01*
X54208095Y6595657D02*
X54160476Y6786133D01*
X54160476Y6786133D02*
X54160476Y7024228D01*
X54160476Y7024228D02*
X54208095Y7214704D01*
X54208095Y7214704D02*
X54255714Y7309942D01*
X54255714Y7309942D02*
X54303333Y7357561D01*
X54303333Y7357561D02*
X54398571Y7405180D01*
X55350952Y7405180D02*
X55446190Y7405180D01*
X55446190Y7405180D02*
X55541428Y7357561D01*
X55541428Y7357561D02*
X55589047Y7309942D01*
X55589047Y7309942D02*
X55636666Y7214704D01*
X55636666Y7214704D02*
X55684285Y7024228D01*
X55684285Y7024228D02*
X55684285Y6786133D01*
X55684285Y6786133D02*
X55636666Y6595657D01*
X55636666Y6595657D02*
X55589047Y6500419D01*
X55589047Y6500419D02*
X55541428Y6452800D01*
X55541428Y6452800D02*
X55446190Y6405180D01*
X55446190Y6405180D02*
X55350952Y6405180D01*
X55350952Y6405180D02*
X55255714Y6452800D01*
X55255714Y6452800D02*
X55208095Y6500419D01*
X55208095Y6500419D02*
X55160476Y6595657D01*
X55160476Y6595657D02*
X55112857Y6786133D01*
X55112857Y6786133D02*
X55112857Y7024228D01*
X55112857Y7024228D02*
X55160476Y7214704D01*
X55160476Y7214704D02*
X55208095Y7309942D01*
X55208095Y7309942D02*
X55255714Y7357561D01*
X55255714Y7357561D02*
X55350952Y7405180D01*
X56874762Y6405180D02*
X56874762Y7071847D01*
X56874762Y6976609D02*
X56922381Y7024228D01*
X56922381Y7024228D02*
X57017619Y7071847D01*
X57017619Y7071847D02*
X57160476Y7071847D01*
X57160476Y7071847D02*
X57255714Y7024228D01*
X57255714Y7024228D02*
X57303333Y6928990D01*
X57303333Y6928990D02*
X57303333Y6405180D01*
X57303333Y6928990D02*
X57350952Y7024228D01*
X57350952Y7024228D02*
X57446190Y7071847D01*
X57446190Y7071847D02*
X57589047Y7071847D01*
X57589047Y7071847D02*
X57684286Y7024228D01*
X57684286Y7024228D02*
X57731905Y6928990D01*
X57731905Y6928990D02*
X57731905Y6405180D01*
X58208095Y6405180D02*
X58208095Y7071847D01*
X58208095Y6976609D02*
X58255714Y7024228D01*
X58255714Y7024228D02*
X58350952Y7071847D01*
X58350952Y7071847D02*
X58493809Y7071847D01*
X58493809Y7071847D02*
X58589047Y7024228D01*
X58589047Y7024228D02*
X58636666Y6928990D01*
X58636666Y6928990D02*
X58636666Y6405180D01*
X58636666Y6928990D02*
X58684285Y7024228D01*
X58684285Y7024228D02*
X58779523Y7071847D01*
X58779523Y7071847D02*
X58922380Y7071847D01*
X58922380Y7071847D02*
X59017619Y7024228D01*
X59017619Y7024228D02*
X59065238Y6928990D01*
X59065238Y6928990D02*
X59065238Y6405180D01*
D11*
X62880000Y-740000D02*
X62880000Y7386420D01*
X59880000Y7386420D02*
X59880000Y-810000D01*
X62880000Y6800000D02*
X59928333Y6800000D01*
X62880000Y6800000D02*
X61753496Y6213579D01*
X62880000Y6800000D02*
X61753496Y7386421D01*
X59880000Y6800000D02*
X61006504Y7386421D01*
X59880000Y6800000D02*
X61006504Y6213579D01*
D10*
X22622381Y-12084819D02*
X22050953Y-12084819D01*
X22336667Y-12084819D02*
X22336667Y-11084819D01*
X22336667Y-11084819D02*
X22241429Y-11227676D01*
X22241429Y-11227676D02*
X22146191Y-11322914D01*
X22146191Y-11322914D02*
X22050953Y-11370533D01*
X23479524Y-11418152D02*
X23479524Y-12084819D01*
X23241429Y-11037200D02*
X23003334Y-11751485D01*
X23003334Y-11751485D02*
X23622381Y-11751485D01*
X24003334Y-11989580D02*
X24050953Y-12037200D01*
X24050953Y-12037200D02*
X24003334Y-12084819D01*
X24003334Y-12084819D02*
X23955715Y-12037200D01*
X23955715Y-12037200D02*
X24003334Y-11989580D01*
X24003334Y-11989580D02*
X24003334Y-12084819D01*
X24622381Y-11513390D02*
X24527143Y-11465771D01*
X24527143Y-11465771D02*
X24479524Y-11418152D01*
X24479524Y-11418152D02*
X24431905Y-11322914D01*
X24431905Y-11322914D02*
X24431905Y-11275295D01*
X24431905Y-11275295D02*
X24479524Y-11180057D01*
X24479524Y-11180057D02*
X24527143Y-11132438D01*
X24527143Y-11132438D02*
X24622381Y-11084819D01*
X24622381Y-11084819D02*
X24812857Y-11084819D01*
X24812857Y-11084819D02*
X24908095Y-11132438D01*
X24908095Y-11132438D02*
X24955714Y-11180057D01*
X24955714Y-11180057D02*
X25003333Y-11275295D01*
X25003333Y-11275295D02*
X25003333Y-11322914D01*
X25003333Y-11322914D02*
X24955714Y-11418152D01*
X24955714Y-11418152D02*
X24908095Y-11465771D01*
X24908095Y-11465771D02*
X24812857Y-11513390D01*
X24812857Y-11513390D02*
X24622381Y-11513390D01*
X24622381Y-11513390D02*
X24527143Y-11561009D01*
X24527143Y-11561009D02*
X24479524Y-11608628D01*
X24479524Y-11608628D02*
X24431905Y-11703866D01*
X24431905Y-11703866D02*
X24431905Y-11894342D01*
X24431905Y-11894342D02*
X24479524Y-11989580D01*
X24479524Y-11989580D02*
X24527143Y-12037200D01*
X24527143Y-12037200D02*
X24622381Y-12084819D01*
X24622381Y-12084819D02*
X24812857Y-12084819D01*
X24812857Y-12084819D02*
X24908095Y-12037200D01*
X24908095Y-12037200D02*
X24955714Y-11989580D01*
X24955714Y-11989580D02*
X25003333Y-11894342D01*
X25003333Y-11894342D02*
X25003333Y-11703866D01*
X25003333Y-11703866D02*
X24955714Y-11608628D01*
X24955714Y-11608628D02*
X24908095Y-11561009D01*
X24908095Y-11561009D02*
X24812857Y-11513390D01*
X25860476Y-11084819D02*
X25670000Y-11084819D01*
X25670000Y-11084819D02*
X25574762Y-11132438D01*
X25574762Y-11132438D02*
X25527143Y-11180057D01*
X25527143Y-11180057D02*
X25431905Y-11322914D01*
X25431905Y-11322914D02*
X25384286Y-11513390D01*
X25384286Y-11513390D02*
X25384286Y-11894342D01*
X25384286Y-11894342D02*
X25431905Y-11989580D01*
X25431905Y-11989580D02*
X25479524Y-12037200D01*
X25479524Y-12037200D02*
X25574762Y-12084819D01*
X25574762Y-12084819D02*
X25765238Y-12084819D01*
X25765238Y-12084819D02*
X25860476Y-12037200D01*
X25860476Y-12037200D02*
X25908095Y-11989580D01*
X25908095Y-11989580D02*
X25955714Y-11894342D01*
X25955714Y-11894342D02*
X25955714Y-11656247D01*
X25955714Y-11656247D02*
X25908095Y-11561009D01*
X25908095Y-11561009D02*
X25860476Y-11513390D01*
X25860476Y-11513390D02*
X25765238Y-11465771D01*
X25765238Y-11465771D02*
X25574762Y-11465771D01*
X25574762Y-11465771D02*
X25479524Y-11513390D01*
X25479524Y-11513390D02*
X25431905Y-11561009D01*
X25431905Y-11561009D02*
X25384286Y-11656247D01*
X26574762Y-11084819D02*
X26670000Y-11084819D01*
X26670000Y-11084819D02*
X26765238Y-11132438D01*
X26765238Y-11132438D02*
X26812857Y-11180057D01*
X26812857Y-11180057D02*
X26860476Y-11275295D01*
X26860476Y-11275295D02*
X26908095Y-11465771D01*
X26908095Y-11465771D02*
X26908095Y-11703866D01*
X26908095Y-11703866D02*
X26860476Y-11894342D01*
X26860476Y-11894342D02*
X26812857Y-11989580D01*
X26812857Y-11989580D02*
X26765238Y-12037200D01*
X26765238Y-12037200D02*
X26670000Y-12084819D01*
X26670000Y-12084819D02*
X26574762Y-12084819D01*
X26574762Y-12084819D02*
X26479524Y-12037200D01*
X26479524Y-12037200D02*
X26431905Y-11989580D01*
X26431905Y-11989580D02*
X26384286Y-11894342D01*
X26384286Y-11894342D02*
X26336667Y-11703866D01*
X26336667Y-11703866D02*
X26336667Y-11465771D01*
X26336667Y-11465771D02*
X26384286Y-11275295D01*
X26384286Y-11275295D02*
X26431905Y-11180057D01*
X26431905Y-11180057D02*
X26479524Y-11132438D01*
X26479524Y-11132438D02*
X26574762Y-11084819D01*
X27527143Y-11084819D02*
X27622381Y-11084819D01*
X27622381Y-11084819D02*
X27717619Y-11132438D01*
X27717619Y-11132438D02*
X27765238Y-11180057D01*
X27765238Y-11180057D02*
X27812857Y-11275295D01*
X27812857Y-11275295D02*
X27860476Y-11465771D01*
X27860476Y-11465771D02*
X27860476Y-11703866D01*
X27860476Y-11703866D02*
X27812857Y-11894342D01*
X27812857Y-11894342D02*
X27765238Y-11989580D01*
X27765238Y-11989580D02*
X27717619Y-12037200D01*
X27717619Y-12037200D02*
X27622381Y-12084819D01*
X27622381Y-12084819D02*
X27527143Y-12084819D01*
X27527143Y-12084819D02*
X27431905Y-12037200D01*
X27431905Y-12037200D02*
X27384286Y-11989580D01*
X27384286Y-11989580D02*
X27336667Y-11894342D01*
X27336667Y-11894342D02*
X27289048Y-11703866D01*
X27289048Y-11703866D02*
X27289048Y-11465771D01*
X27289048Y-11465771D02*
X27336667Y-11275295D01*
X27336667Y-11275295D02*
X27384286Y-11180057D01*
X27384286Y-11180057D02*
X27431905Y-11132438D01*
X27431905Y-11132438D02*
X27527143Y-11084819D01*
X29050953Y-12084819D02*
X29050953Y-11418152D01*
X29050953Y-11513390D02*
X29098572Y-11465771D01*
X29098572Y-11465771D02*
X29193810Y-11418152D01*
X29193810Y-11418152D02*
X29336667Y-11418152D01*
X29336667Y-11418152D02*
X29431905Y-11465771D01*
X29431905Y-11465771D02*
X29479524Y-11561009D01*
X29479524Y-11561009D02*
X29479524Y-12084819D01*
X29479524Y-11561009D02*
X29527143Y-11465771D01*
X29527143Y-11465771D02*
X29622381Y-11418152D01*
X29622381Y-11418152D02*
X29765238Y-11418152D01*
X29765238Y-11418152D02*
X29860477Y-11465771D01*
X29860477Y-11465771D02*
X29908096Y-11561009D01*
X29908096Y-11561009D02*
X29908096Y-12084819D01*
X30384286Y-12084819D02*
X30384286Y-11418152D01*
X30384286Y-11513390D02*
X30431905Y-11465771D01*
X30431905Y-11465771D02*
X30527143Y-11418152D01*
X30527143Y-11418152D02*
X30670000Y-11418152D01*
X30670000Y-11418152D02*
X30765238Y-11465771D01*
X30765238Y-11465771D02*
X30812857Y-11561009D01*
X30812857Y-11561009D02*
X30812857Y-12084819D01*
X30812857Y-11561009D02*
X30860476Y-11465771D01*
X30860476Y-11465771D02*
X30955714Y-11418152D01*
X30955714Y-11418152D02*
X31098571Y-11418152D01*
X31098571Y-11418152D02*
X31193810Y-11465771D01*
X31193810Y-11465771D02*
X31241429Y-11561009D01*
X31241429Y-11561009D02*
X31241429Y-12084819D01*
D11*
X19240000Y-4560000D02*
X19240000Y-13366420D01*
X34100000Y-13366420D02*
X34100000Y-5510000D01*
X19240000Y-12780000D02*
X34100000Y-12780000D01*
X19240000Y-12780000D02*
X20366504Y-12193579D01*
X19240000Y-12780000D02*
X20366504Y-13366421D01*
X34100000Y-12780000D02*
X32973496Y-13366421D01*
X34100000Y-12780000D02*
X32973496Y-12193579D01*
D10*
X-9549942Y-372856D02*
X-9597561Y-325237D01*
X-9597561Y-325237D02*
X-9645180Y-229999D01*
X-9645180Y-229999D02*
X-9645180Y8095D01*
X-9645180Y8095D02*
X-9597561Y103333D01*
X-9597561Y103333D02*
X-9549942Y150952D01*
X-9549942Y150952D02*
X-9454704Y198571D01*
X-9454704Y198571D02*
X-9359466Y198571D01*
X-9359466Y198571D02*
X-9216609Y150952D01*
X-9216609Y150952D02*
X-8645180Y-420475D01*
X-8645180Y-420475D02*
X-8645180Y198571D01*
X-8740419Y627143D02*
X-8692800Y674762D01*
X-8692800Y674762D02*
X-8645180Y627143D01*
X-8645180Y627143D02*
X-8692800Y579524D01*
X-8692800Y579524D02*
X-8740419Y627143D01*
X-8740419Y627143D02*
X-8645180Y627143D01*
X-9645180Y1531904D02*
X-9645180Y1341428D01*
X-9645180Y1341428D02*
X-9597561Y1246190D01*
X-9597561Y1246190D02*
X-9549942Y1198571D01*
X-9549942Y1198571D02*
X-9407085Y1103333D01*
X-9407085Y1103333D02*
X-9216609Y1055714D01*
X-9216609Y1055714D02*
X-8835657Y1055714D01*
X-8835657Y1055714D02*
X-8740419Y1103333D01*
X-8740419Y1103333D02*
X-8692800Y1150952D01*
X-8692800Y1150952D02*
X-8645180Y1246190D01*
X-8645180Y1246190D02*
X-8645180Y1436666D01*
X-8645180Y1436666D02*
X-8692800Y1531904D01*
X-8692800Y1531904D02*
X-8740419Y1579523D01*
X-8740419Y1579523D02*
X-8835657Y1627142D01*
X-8835657Y1627142D02*
X-9073752Y1627142D01*
X-9073752Y1627142D02*
X-9168990Y1579523D01*
X-9168990Y1579523D02*
X-9216609Y1531904D01*
X-9216609Y1531904D02*
X-9264228Y1436666D01*
X-9264228Y1436666D02*
X-9264228Y1246190D01*
X-9264228Y1246190D02*
X-9216609Y1150952D01*
X-9216609Y1150952D02*
X-9168990Y1103333D01*
X-9168990Y1103333D02*
X-9073752Y1055714D01*
X-9645180Y2246190D02*
X-9645180Y2341428D01*
X-9645180Y2341428D02*
X-9597561Y2436666D01*
X-9597561Y2436666D02*
X-9549942Y2484285D01*
X-9549942Y2484285D02*
X-9454704Y2531904D01*
X-9454704Y2531904D02*
X-9264228Y2579523D01*
X-9264228Y2579523D02*
X-9026133Y2579523D01*
X-9026133Y2579523D02*
X-8835657Y2531904D01*
X-8835657Y2531904D02*
X-8740419Y2484285D01*
X-8740419Y2484285D02*
X-8692800Y2436666D01*
X-8692800Y2436666D02*
X-8645180Y2341428D01*
X-8645180Y2341428D02*
X-8645180Y2246190D01*
X-8645180Y2246190D02*
X-8692800Y2150952D01*
X-8692800Y2150952D02*
X-8740419Y2103333D01*
X-8740419Y2103333D02*
X-8835657Y2055714D01*
X-8835657Y2055714D02*
X-9026133Y2008095D01*
X-9026133Y2008095D02*
X-9264228Y2008095D01*
X-9264228Y2008095D02*
X-9454704Y2055714D01*
X-9454704Y2055714D02*
X-9549942Y2103333D01*
X-9549942Y2103333D02*
X-9597561Y2150952D01*
X-9597561Y2150952D02*
X-9645180Y2246190D01*
X-9645180Y3198571D02*
X-9645180Y3293809D01*
X-9645180Y3293809D02*
X-9597561Y3389047D01*
X-9597561Y3389047D02*
X-9549942Y3436666D01*
X-9549942Y3436666D02*
X-9454704Y3484285D01*
X-9454704Y3484285D02*
X-9264228Y3531904D01*
X-9264228Y3531904D02*
X-9026133Y3531904D01*
X-9026133Y3531904D02*
X-8835657Y3484285D01*
X-8835657Y3484285D02*
X-8740419Y3436666D01*
X-8740419Y3436666D02*
X-8692800Y3389047D01*
X-8692800Y3389047D02*
X-8645180Y3293809D01*
X-8645180Y3293809D02*
X-8645180Y3198571D01*
X-8645180Y3198571D02*
X-8692800Y3103333D01*
X-8692800Y3103333D02*
X-8740419Y3055714D01*
X-8740419Y3055714D02*
X-8835657Y3008095D01*
X-8835657Y3008095D02*
X-9026133Y2960476D01*
X-9026133Y2960476D02*
X-9264228Y2960476D01*
X-9264228Y2960476D02*
X-9454704Y3008095D01*
X-9454704Y3008095D02*
X-9549942Y3055714D01*
X-9549942Y3055714D02*
X-9597561Y3103333D01*
X-9597561Y3103333D02*
X-9645180Y3198571D01*
X-9645180Y4150952D02*
X-9645180Y4246190D01*
X-9645180Y4246190D02*
X-9597561Y4341428D01*
X-9597561Y4341428D02*
X-9549942Y4389047D01*
X-9549942Y4389047D02*
X-9454704Y4436666D01*
X-9454704Y4436666D02*
X-9264228Y4484285D01*
X-9264228Y4484285D02*
X-9026133Y4484285D01*
X-9026133Y4484285D02*
X-8835657Y4436666D01*
X-8835657Y4436666D02*
X-8740419Y4389047D01*
X-8740419Y4389047D02*
X-8692800Y4341428D01*
X-8692800Y4341428D02*
X-8645180Y4246190D01*
X-8645180Y4246190D02*
X-8645180Y4150952D01*
X-8645180Y4150952D02*
X-8692800Y4055714D01*
X-8692800Y4055714D02*
X-8740419Y4008095D01*
X-8740419Y4008095D02*
X-8835657Y3960476D01*
X-8835657Y3960476D02*
X-9026133Y3912857D01*
X-9026133Y3912857D02*
X-9264228Y3912857D01*
X-9264228Y3912857D02*
X-9454704Y3960476D01*
X-9454704Y3960476D02*
X-9549942Y4008095D01*
X-9549942Y4008095D02*
X-9597561Y4055714D01*
X-9597561Y4055714D02*
X-9645180Y4150952D01*
X-8645180Y5674762D02*
X-9311847Y5674762D01*
X-9216609Y5674762D02*
X-9264228Y5722381D01*
X-9264228Y5722381D02*
X-9311847Y5817619D01*
X-9311847Y5817619D02*
X-9311847Y5960476D01*
X-9311847Y5960476D02*
X-9264228Y6055714D01*
X-9264228Y6055714D02*
X-9168990Y6103333D01*
X-9168990Y6103333D02*
X-8645180Y6103333D01*
X-9168990Y6103333D02*
X-9264228Y6150952D01*
X-9264228Y6150952D02*
X-9311847Y6246190D01*
X-9311847Y6246190D02*
X-9311847Y6389047D01*
X-9311847Y6389047D02*
X-9264228Y6484286D01*
X-9264228Y6484286D02*
X-9168990Y6531905D01*
X-9168990Y6531905D02*
X-8645180Y6531905D01*
X-8645180Y7008095D02*
X-9311847Y7008095D01*
X-9216609Y7008095D02*
X-9264228Y7055714D01*
X-9264228Y7055714D02*
X-9311847Y7150952D01*
X-9311847Y7150952D02*
X-9311847Y7293809D01*
X-9311847Y7293809D02*
X-9264228Y7389047D01*
X-9264228Y7389047D02*
X-9168990Y7436666D01*
X-9168990Y7436666D02*
X-8645180Y7436666D01*
X-9168990Y7436666D02*
X-9264228Y7484285D01*
X-9264228Y7484285D02*
X-9311847Y7579523D01*
X-9311847Y7579523D02*
X-9311847Y7722380D01*
X-9311847Y7722380D02*
X-9264228Y7817619D01*
X-9264228Y7817619D02*
X-9168990Y7865238D01*
X-9168990Y7865238D02*
X-8645180Y7865238D01*
D11*
X-5410000Y-1240000D02*
X-9686420Y-1240000D01*
X-9686420Y-3840000D02*
X-2570000Y-3840000D01*
X-9100000Y-1240000D02*
X-9100000Y-3840000D01*
X-9100000Y-1240000D02*
X-8513579Y-2366504D01*
X-9100000Y-1240000D02*
X-9686421Y-2366504D01*
X-9100000Y-3840000D02*
X-9686421Y-2713496D01*
X-9100000Y-3840000D02*
X-8513579Y-2713496D01*
%TD*%
M02*
