%TF.GenerationSoftware,KiCad,Pcbnew,10.0.6*%
%TF.CreationDate,2026-09-05T21:59:18+01:00*%
%TF.ProjectId,CC1101ExtBoardV2,43433131-3031-4457-9874-426f61726456,rev?*%
%TF.SameCoordinates,Original*%
%TF.FileFunction,Drillmap*%
%TF.FilePolarity,Positive*%
%FSLAX45Y45*%
G04 Gerber Fmt 4.5, Leading zero omitted, Abs format (unit mm)*
G04 Created by KiCad (PCBNEW 10.0.6) date 2026-09-05 21:59:18*
%MOMM*%
%LPD*%
G01*
G04 APERTURE LIST*
%ADD10C,0.100000*%
%ADD11C,0.200000*%
G04 APERTURE END LIST*
D10*
X2854000Y-4200000D02*
X2854000Y-7334000D01*
X2854000Y-4200000D02*
G75*
G02*
X2954000Y-4100000I128060J-28060D01*
G01*
X2904000Y-7384000D02*
G75*
G02*
X2854000Y-7334000I14030J64030D01*
G01*
X2904000Y-7384000D02*
X4874000Y-7384000D01*
X4924000Y-7174000D02*
G75*
G02*
X4974000Y-7124000I64030J-14030D01*
G01*
X4924000Y-7334000D02*
G75*
G02*
X4874000Y-7384000I-64030J14030D01*
G01*
X4924000Y-7334000D02*
X4924000Y-7174000D01*
X4974000Y-7124000D02*
X6360000Y-7124000D01*
X6360000Y-7124000D02*
G75*
G02*
X6410000Y-7174000I-14030J-64030D01*
G01*
X6410000Y-7174000D02*
X6410000Y-7334000D01*
X6460000Y-7384000D02*
G75*
G02*
X6410000Y-7334000I14030J64030D01*
G01*
X6460000Y-7384000D02*
X8938000Y-7384000D01*
X8888000Y-4100000D02*
X2954000Y-4100000D01*
X8888000Y-4100000D02*
G75*
G02*
X8988000Y-4200000I-28060J-128060D01*
G01*
X8988000Y-7334000D02*
G75*
G02*
X8938000Y-7384000I-64030J14030D01*
G01*
X8988000Y-7334000D02*
X8988000Y-4200000D01*
D11*
D10*
X3361000Y-6130000D02*
X3401000Y-6170000D01*
X3401000Y-6130000D02*
X3361000Y-6170000D01*
X3670000Y-5780000D02*
X3710000Y-5820000D01*
X3710000Y-5780000D02*
X3670000Y-5820000D01*
X3869000Y-6130000D02*
X3909000Y-6170000D01*
X3909000Y-6130000D02*
X3869000Y-6170000D01*
X4280000Y-5700000D02*
X4320000Y-5740000D01*
X4320000Y-5700000D02*
X4280000Y-5740000D01*
X4377000Y-6130000D02*
X4417000Y-6170000D01*
X4417000Y-6130000D02*
X4377000Y-6170000D01*
X4380000Y-5030000D02*
X4420000Y-5070000D01*
X4420000Y-5030000D02*
X4380000Y-5070000D01*
X4610000Y-5880000D02*
X4650000Y-5920000D01*
X4650000Y-5880000D02*
X4610000Y-5920000D01*
X4740000Y-6430000D02*
X4780000Y-6470000D01*
X4780000Y-6430000D02*
X4740000Y-6470000D01*
X5180000Y-5770000D02*
X5220000Y-5810000D01*
X5220000Y-5770000D02*
X5180000Y-5810000D01*
X5280000Y-6930000D02*
X5320000Y-6970000D01*
X5320000Y-6930000D02*
X5280000Y-6970000D01*
X5630000Y-5980000D02*
X5670000Y-6020000D01*
X5670000Y-5980000D02*
X5630000Y-6020000D01*
X5930000Y-4530000D02*
X5970000Y-4570000D01*
X5970000Y-4530000D02*
X5930000Y-4570000D01*
X5980000Y-6580000D02*
X6020000Y-6620000D01*
X6020000Y-6580000D02*
X5980000Y-6620000D01*
X8680000Y-6830000D02*
X8720000Y-6870000D01*
X8720000Y-6830000D02*
X8680000Y-6870000D01*
X8780000Y-4980000D02*
X8820000Y-5020000D01*
X8820000Y-4980000D02*
X8780000Y-5020000D01*
X8780000Y-6230000D02*
X8820000Y-6270000D01*
X8820000Y-6230000D02*
X8780000Y-6270000D01*
X3050000Y-7000000D02*
G75*
G02*
X2950000Y-7000000I-50000J0D01*
G01*
X2950000Y-7000000D02*
G75*
G02*
X3050000Y-7000000I50000J0D01*
G01*
X3304000Y-7000000D02*
G75*
G02*
X3204000Y-7000000I-50000J0D01*
G01*
X3204000Y-7000000D02*
G75*
G02*
X3304000Y-7000000I50000J0D01*
G01*
X3352000Y-4572000D02*
G75*
G02*
X3252000Y-4572000I-50000J0D01*
G01*
X3252000Y-4572000D02*
G75*
G02*
X3352000Y-4572000I50000J0D01*
G01*
X3352000Y-4826000D02*
G75*
G02*
X3252000Y-4826000I-50000J0D01*
G01*
X3252000Y-4826000D02*
G75*
G02*
X3352000Y-4826000I50000J0D01*
G01*
X3558000Y-7000000D02*
G75*
G02*
X3458000Y-7000000I-50000J0D01*
G01*
X3458000Y-7000000D02*
G75*
G02*
X3558000Y-7000000I50000J0D01*
G01*
X3606000Y-4572000D02*
G75*
G02*
X3506000Y-4572000I-50000J0D01*
G01*
X3506000Y-4572000D02*
G75*
G02*
X3606000Y-4572000I50000J0D01*
G01*
X3606000Y-4826000D02*
G75*
G02*
X3506000Y-4826000I-50000J0D01*
G01*
X3506000Y-4826000D02*
G75*
G02*
X3606000Y-4826000I50000J0D01*
G01*
X3812000Y-7000000D02*
G75*
G02*
X3712000Y-7000000I-50000J0D01*
G01*
X3712000Y-7000000D02*
G75*
G02*
X3812000Y-7000000I50000J0D01*
G01*
X3860000Y-4572000D02*
G75*
G02*
X3760000Y-4572000I-50000J0D01*
G01*
X3760000Y-4572000D02*
G75*
G02*
X3860000Y-4572000I50000J0D01*
G01*
X3860000Y-4826000D02*
G75*
G02*
X3760000Y-4826000I-50000J0D01*
G01*
X3760000Y-4826000D02*
G75*
G02*
X3860000Y-4826000I50000J0D01*
G01*
X4066000Y-7000000D02*
G75*
G02*
X3966000Y-7000000I-50000J0D01*
G01*
X3966000Y-7000000D02*
G75*
G02*
X4066000Y-7000000I50000J0D01*
G01*
X4114000Y-4572000D02*
G75*
G02*
X4014000Y-4572000I-50000J0D01*
G01*
X4014000Y-4572000D02*
G75*
G02*
X4114000Y-4572000I50000J0D01*
G01*
X4114000Y-4826000D02*
G75*
G02*
X4014000Y-4826000I-50000J0D01*
G01*
X4014000Y-4826000D02*
G75*
G02*
X4114000Y-4826000I50000J0D01*
G01*
X4320000Y-7000000D02*
G75*
G02*
X4220000Y-7000000I-50000J0D01*
G01*
X4220000Y-7000000D02*
G75*
G02*
X4320000Y-7000000I50000J0D01*
G01*
X4574000Y-7000000D02*
G75*
G02*
X4474000Y-7000000I-50000J0D01*
G01*
X4474000Y-7000000D02*
G75*
G02*
X4574000Y-7000000I50000J0D01*
G01*
X4828000Y-7000000D02*
G75*
G02*
X4728000Y-7000000I-50000J0D01*
G01*
X4728000Y-7000000D02*
G75*
G02*
X4828000Y-7000000I50000J0D01*
G01*
X6352000Y-4460000D02*
G75*
G02*
X6252000Y-4460000I-50000J0D01*
G01*
X6252000Y-4460000D02*
G75*
G02*
X6352000Y-4460000I50000J0D01*
G01*
X6352000Y-4714000D02*
G75*
G02*
X6252000Y-4714000I-50000J0D01*
G01*
X6252000Y-4714000D02*
G75*
G02*
X6352000Y-4714000I50000J0D01*
G01*
X6352000Y-4968000D02*
G75*
G02*
X6252000Y-4968000I-50000J0D01*
G01*
X6252000Y-4968000D02*
G75*
G02*
X6352000Y-4968000I50000J0D01*
G01*
X6352000Y-5222000D02*
G75*
G02*
X6252000Y-5222000I-50000J0D01*
G01*
X6252000Y-5222000D02*
G75*
G02*
X6352000Y-5222000I50000J0D01*
G01*
X6352000Y-5476000D02*
G75*
G02*
X6252000Y-5476000I-50000J0D01*
G01*
X6252000Y-5476000D02*
G75*
G02*
X6352000Y-5476000I50000J0D01*
G01*
X6352000Y-5730000D02*
G75*
G02*
X6252000Y-5730000I-50000J0D01*
G01*
X6252000Y-5730000D02*
G75*
G02*
X6352000Y-5730000I50000J0D01*
G01*
X6352000Y-5984000D02*
G75*
G02*
X6252000Y-5984000I-50000J0D01*
G01*
X6252000Y-5984000D02*
G75*
G02*
X6352000Y-5984000I50000J0D01*
G01*
X6606000Y-4460000D02*
G75*
G02*
X6506000Y-4460000I-50000J0D01*
G01*
X6506000Y-4460000D02*
G75*
G02*
X6606000Y-4460000I50000J0D01*
G01*
X6606000Y-4714000D02*
G75*
G02*
X6506000Y-4714000I-50000J0D01*
G01*
X6506000Y-4714000D02*
G75*
G02*
X6606000Y-4714000I50000J0D01*
G01*
X6606000Y-4968000D02*
G75*
G02*
X6506000Y-4968000I-50000J0D01*
G01*
X6506000Y-4968000D02*
G75*
G02*
X6606000Y-4968000I50000J0D01*
G01*
X6606000Y-5222000D02*
G75*
G02*
X6506000Y-5222000I-50000J0D01*
G01*
X6506000Y-5222000D02*
G75*
G02*
X6606000Y-5222000I50000J0D01*
G01*
X6606000Y-5476000D02*
G75*
G02*
X6506000Y-5476000I-50000J0D01*
G01*
X6506000Y-5476000D02*
G75*
G02*
X6606000Y-5476000I50000J0D01*
G01*
X6606000Y-5730000D02*
G75*
G02*
X6506000Y-5730000I-50000J0D01*
G01*
X6506000Y-5730000D02*
G75*
G02*
X6606000Y-5730000I50000J0D01*
G01*
X6606000Y-5984000D02*
G75*
G02*
X6506000Y-5984000I-50000J0D01*
G01*
X6506000Y-5984000D02*
G75*
G02*
X6606000Y-5984000I50000J0D01*
G01*
X6606000Y-7000000D02*
G75*
G02*
X6506000Y-7000000I-50000J0D01*
G01*
X6506000Y-7000000D02*
G75*
G02*
X6606000Y-7000000I50000J0D01*
G01*
X6750000Y-6492000D02*
G75*
G02*
X6650000Y-6492000I-50000J0D01*
G01*
X6650000Y-6492000D02*
G75*
G02*
X6750000Y-6492000I50000J0D01*
G01*
X6860000Y-4460000D02*
G75*
G02*
X6760000Y-4460000I-50000J0D01*
G01*
X6760000Y-4460000D02*
G75*
G02*
X6860000Y-4460000I50000J0D01*
G01*
X6860000Y-4714000D02*
G75*
G02*
X6760000Y-4714000I-50000J0D01*
G01*
X6760000Y-4714000D02*
G75*
G02*
X6860000Y-4714000I50000J0D01*
G01*
X6860000Y-4968000D02*
G75*
G02*
X6760000Y-4968000I-50000J0D01*
G01*
X6760000Y-4968000D02*
G75*
G02*
X6860000Y-4968000I50000J0D01*
G01*
X6860000Y-5222000D02*
G75*
G02*
X6760000Y-5222000I-50000J0D01*
G01*
X6760000Y-5222000D02*
G75*
G02*
X6860000Y-5222000I50000J0D01*
G01*
X6860000Y-5476000D02*
G75*
G02*
X6760000Y-5476000I-50000J0D01*
G01*
X6760000Y-5476000D02*
G75*
G02*
X6860000Y-5476000I50000J0D01*
G01*
X6860000Y-5730000D02*
G75*
G02*
X6760000Y-5730000I-50000J0D01*
G01*
X6760000Y-5730000D02*
G75*
G02*
X6860000Y-5730000I50000J0D01*
G01*
X6860000Y-5984000D02*
G75*
G02*
X6760000Y-5984000I-50000J0D01*
G01*
X6760000Y-5984000D02*
G75*
G02*
X6860000Y-5984000I50000J0D01*
G01*
X6860000Y-7000000D02*
G75*
G02*
X6760000Y-7000000I-50000J0D01*
G01*
X6760000Y-7000000D02*
G75*
G02*
X6860000Y-7000000I50000J0D01*
G01*
X7004000Y-6492000D02*
G75*
G02*
X6904000Y-6492000I-50000J0D01*
G01*
X6904000Y-6492000D02*
G75*
G02*
X7004000Y-6492000I50000J0D01*
G01*
X7114000Y-4460000D02*
G75*
G02*
X7014000Y-4460000I-50000J0D01*
G01*
X7014000Y-4460000D02*
G75*
G02*
X7114000Y-4460000I50000J0D01*
G01*
X7114000Y-4714000D02*
G75*
G02*
X7014000Y-4714000I-50000J0D01*
G01*
X7014000Y-4714000D02*
G75*
G02*
X7114000Y-4714000I50000J0D01*
G01*
X7114000Y-4968000D02*
G75*
G02*
X7014000Y-4968000I-50000J0D01*
G01*
X7014000Y-4968000D02*
G75*
G02*
X7114000Y-4968000I50000J0D01*
G01*
X7114000Y-5222000D02*
G75*
G02*
X7014000Y-5222000I-50000J0D01*
G01*
X7014000Y-5222000D02*
G75*
G02*
X7114000Y-5222000I50000J0D01*
G01*
X7114000Y-5476000D02*
G75*
G02*
X7014000Y-5476000I-50000J0D01*
G01*
X7014000Y-5476000D02*
G75*
G02*
X7114000Y-5476000I50000J0D01*
G01*
X7114000Y-5730000D02*
G75*
G02*
X7014000Y-5730000I-50000J0D01*
G01*
X7014000Y-5730000D02*
G75*
G02*
X7114000Y-5730000I50000J0D01*
G01*
X7114000Y-5984000D02*
G75*
G02*
X7014000Y-5984000I-50000J0D01*
G01*
X7014000Y-5984000D02*
G75*
G02*
X7114000Y-5984000I50000J0D01*
G01*
X7114000Y-7000000D02*
G75*
G02*
X7014000Y-7000000I-50000J0D01*
G01*
X7014000Y-7000000D02*
G75*
G02*
X7114000Y-7000000I50000J0D01*
G01*
X7258000Y-6492000D02*
G75*
G02*
X7158000Y-6492000I-50000J0D01*
G01*
X7158000Y-6492000D02*
G75*
G02*
X7258000Y-6492000I50000J0D01*
G01*
X7368000Y-4460000D02*
G75*
G02*
X7268000Y-4460000I-50000J0D01*
G01*
X7268000Y-4460000D02*
G75*
G02*
X7368000Y-4460000I50000J0D01*
G01*
X7368000Y-4714000D02*
G75*
G02*
X7268000Y-4714000I-50000J0D01*
G01*
X7268000Y-4714000D02*
G75*
G02*
X7368000Y-4714000I50000J0D01*
G01*
X7368000Y-4968000D02*
G75*
G02*
X7268000Y-4968000I-50000J0D01*
G01*
X7268000Y-4968000D02*
G75*
G02*
X7368000Y-4968000I50000J0D01*
G01*
X7368000Y-5222000D02*
G75*
G02*
X7268000Y-5222000I-50000J0D01*
G01*
X7268000Y-5222000D02*
G75*
G02*
X7368000Y-5222000I50000J0D01*
G01*
X7368000Y-5476000D02*
G75*
G02*
X7268000Y-5476000I-50000J0D01*
G01*
X7268000Y-5476000D02*
G75*
G02*
X7368000Y-5476000I50000J0D01*
G01*
X7368000Y-5730000D02*
G75*
G02*
X7268000Y-5730000I-50000J0D01*
G01*
X7268000Y-5730000D02*
G75*
G02*
X7368000Y-5730000I50000J0D01*
G01*
X7368000Y-5984000D02*
G75*
G02*
X7268000Y-5984000I-50000J0D01*
G01*
X7268000Y-5984000D02*
G75*
G02*
X7368000Y-5984000I50000J0D01*
G01*
X7368000Y-7000000D02*
G75*
G02*
X7268000Y-7000000I-50000J0D01*
G01*
X7268000Y-7000000D02*
G75*
G02*
X7368000Y-7000000I50000J0D01*
G01*
X7512000Y-6492000D02*
G75*
G02*
X7412000Y-6492000I-50000J0D01*
G01*
X7412000Y-6492000D02*
G75*
G02*
X7512000Y-6492000I50000J0D01*
G01*
X7622000Y-4460000D02*
G75*
G02*
X7522000Y-4460000I-50000J0D01*
G01*
X7522000Y-4460000D02*
G75*
G02*
X7622000Y-4460000I50000J0D01*
G01*
X7622000Y-4714000D02*
G75*
G02*
X7522000Y-4714000I-50000J0D01*
G01*
X7522000Y-4714000D02*
G75*
G02*
X7622000Y-4714000I50000J0D01*
G01*
X7622000Y-4968000D02*
G75*
G02*
X7522000Y-4968000I-50000J0D01*
G01*
X7522000Y-4968000D02*
G75*
G02*
X7622000Y-4968000I50000J0D01*
G01*
X7622000Y-5222000D02*
G75*
G02*
X7522000Y-5222000I-50000J0D01*
G01*
X7522000Y-5222000D02*
G75*
G02*
X7622000Y-5222000I50000J0D01*
G01*
X7622000Y-5476000D02*
G75*
G02*
X7522000Y-5476000I-50000J0D01*
G01*
X7522000Y-5476000D02*
G75*
G02*
X7622000Y-5476000I50000J0D01*
G01*
X7622000Y-5730000D02*
G75*
G02*
X7522000Y-5730000I-50000J0D01*
G01*
X7522000Y-5730000D02*
G75*
G02*
X7622000Y-5730000I50000J0D01*
G01*
X7622000Y-5984000D02*
G75*
G02*
X7522000Y-5984000I-50000J0D01*
G01*
X7522000Y-5984000D02*
G75*
G02*
X7622000Y-5984000I50000J0D01*
G01*
X7622000Y-7000000D02*
G75*
G02*
X7522000Y-7000000I-50000J0D01*
G01*
X7522000Y-7000000D02*
G75*
G02*
X7622000Y-7000000I50000J0D01*
G01*
X7766000Y-6492000D02*
G75*
G02*
X7666000Y-6492000I-50000J0D01*
G01*
X7666000Y-6492000D02*
G75*
G02*
X7766000Y-6492000I50000J0D01*
G01*
X7876000Y-4460000D02*
G75*
G02*
X7776000Y-4460000I-50000J0D01*
G01*
X7776000Y-4460000D02*
G75*
G02*
X7876000Y-4460000I50000J0D01*
G01*
X7876000Y-4714000D02*
G75*
G02*
X7776000Y-4714000I-50000J0D01*
G01*
X7776000Y-4714000D02*
G75*
G02*
X7876000Y-4714000I50000J0D01*
G01*
X7876000Y-4968000D02*
G75*
G02*
X7776000Y-4968000I-50000J0D01*
G01*
X7776000Y-4968000D02*
G75*
G02*
X7876000Y-4968000I50000J0D01*
G01*
X7876000Y-5222000D02*
G75*
G02*
X7776000Y-5222000I-50000J0D01*
G01*
X7776000Y-5222000D02*
G75*
G02*
X7876000Y-5222000I50000J0D01*
G01*
X7876000Y-5476000D02*
G75*
G02*
X7776000Y-5476000I-50000J0D01*
G01*
X7776000Y-5476000D02*
G75*
G02*
X7876000Y-5476000I50000J0D01*
G01*
X7876000Y-5730000D02*
G75*
G02*
X7776000Y-5730000I-50000J0D01*
G01*
X7776000Y-5730000D02*
G75*
G02*
X7876000Y-5730000I50000J0D01*
G01*
X7876000Y-5984000D02*
G75*
G02*
X7776000Y-5984000I-50000J0D01*
G01*
X7776000Y-5984000D02*
G75*
G02*
X7876000Y-5984000I50000J0D01*
G01*
X7876000Y-7000000D02*
G75*
G02*
X7776000Y-7000000I-50000J0D01*
G01*
X7776000Y-7000000D02*
G75*
G02*
X7876000Y-7000000I50000J0D01*
G01*
X8020000Y-6492000D02*
G75*
G02*
X7920000Y-6492000I-50000J0D01*
G01*
X7920000Y-6492000D02*
G75*
G02*
X8020000Y-6492000I50000J0D01*
G01*
X8130000Y-4460000D02*
G75*
G02*
X8030000Y-4460000I-50000J0D01*
G01*
X8030000Y-4460000D02*
G75*
G02*
X8130000Y-4460000I50000J0D01*
G01*
X8130000Y-4714000D02*
G75*
G02*
X8030000Y-4714000I-50000J0D01*
G01*
X8030000Y-4714000D02*
G75*
G02*
X8130000Y-4714000I50000J0D01*
G01*
X8130000Y-4968000D02*
G75*
G02*
X8030000Y-4968000I-50000J0D01*
G01*
X8030000Y-4968000D02*
G75*
G02*
X8130000Y-4968000I50000J0D01*
G01*
X8130000Y-5222000D02*
G75*
G02*
X8030000Y-5222000I-50000J0D01*
G01*
X8030000Y-5222000D02*
G75*
G02*
X8130000Y-5222000I50000J0D01*
G01*
X8130000Y-5476000D02*
G75*
G02*
X8030000Y-5476000I-50000J0D01*
G01*
X8030000Y-5476000D02*
G75*
G02*
X8130000Y-5476000I50000J0D01*
G01*
X8130000Y-5730000D02*
G75*
G02*
X8030000Y-5730000I-50000J0D01*
G01*
X8030000Y-5730000D02*
G75*
G02*
X8130000Y-5730000I50000J0D01*
G01*
X8130000Y-5984000D02*
G75*
G02*
X8030000Y-5984000I-50000J0D01*
G01*
X8030000Y-5984000D02*
G75*
G02*
X8130000Y-5984000I50000J0D01*
G01*
X8130000Y-7000000D02*
G75*
G02*
X8030000Y-7000000I-50000J0D01*
G01*
X8030000Y-7000000D02*
G75*
G02*
X8130000Y-7000000I50000J0D01*
G01*
X8274000Y-6492000D02*
G75*
G02*
X8174000Y-6492000I-50000J0D01*
G01*
X8174000Y-6492000D02*
G75*
G02*
X8274000Y-6492000I50000J0D01*
G01*
X8384000Y-4460000D02*
G75*
G02*
X8284000Y-4460000I-50000J0D01*
G01*
X8284000Y-4460000D02*
G75*
G02*
X8384000Y-4460000I50000J0D01*
G01*
X8384000Y-4714000D02*
G75*
G02*
X8284000Y-4714000I-50000J0D01*
G01*
X8284000Y-4714000D02*
G75*
G02*
X8384000Y-4714000I50000J0D01*
G01*
X8384000Y-4968000D02*
G75*
G02*
X8284000Y-4968000I-50000J0D01*
G01*
X8284000Y-4968000D02*
G75*
G02*
X8384000Y-4968000I50000J0D01*
G01*
X8384000Y-5222000D02*
G75*
G02*
X8284000Y-5222000I-50000J0D01*
G01*
X8284000Y-5222000D02*
G75*
G02*
X8384000Y-5222000I50000J0D01*
G01*
X8384000Y-5476000D02*
G75*
G02*
X8284000Y-5476000I-50000J0D01*
G01*
X8284000Y-5476000D02*
G75*
G02*
X8384000Y-5476000I50000J0D01*
G01*
X8384000Y-5730000D02*
G75*
G02*
X8284000Y-5730000I-50000J0D01*
G01*
X8284000Y-5730000D02*
G75*
G02*
X8384000Y-5730000I50000J0D01*
G01*
X8384000Y-5984000D02*
G75*
G02*
X8284000Y-5984000I-50000J0D01*
G01*
X8284000Y-5984000D02*
G75*
G02*
X8384000Y-5984000I50000J0D01*
G01*
X8384000Y-7000000D02*
G75*
G02*
X8284000Y-7000000I-50000J0D01*
G01*
X8284000Y-7000000D02*
G75*
G02*
X8384000Y-7000000I50000J0D01*
G01*
X8528000Y-6492000D02*
G75*
G02*
X8428000Y-6492000I-50000J0D01*
G01*
X8428000Y-6492000D02*
G75*
G02*
X8528000Y-6492000I50000J0D01*
G01*
X8638000Y-4460000D02*
G75*
G02*
X8538000Y-4460000I-50000J0D01*
G01*
X8538000Y-4460000D02*
G75*
G02*
X8638000Y-4460000I50000J0D01*
G01*
X8638000Y-4714000D02*
G75*
G02*
X8538000Y-4714000I-50000J0D01*
G01*
X8538000Y-4714000D02*
G75*
G02*
X8638000Y-4714000I50000J0D01*
G01*
X8638000Y-4968000D02*
G75*
G02*
X8538000Y-4968000I-50000J0D01*
G01*
X8538000Y-4968000D02*
G75*
G02*
X8638000Y-4968000I50000J0D01*
G01*
X8638000Y-5222000D02*
G75*
G02*
X8538000Y-5222000I-50000J0D01*
G01*
X8538000Y-5222000D02*
G75*
G02*
X8638000Y-5222000I50000J0D01*
G01*
X8638000Y-5476000D02*
G75*
G02*
X8538000Y-5476000I-50000J0D01*
G01*
X8538000Y-5476000D02*
G75*
G02*
X8638000Y-5476000I50000J0D01*
G01*
X8638000Y-5730000D02*
G75*
G02*
X8538000Y-5730000I-50000J0D01*
G01*
X8538000Y-5730000D02*
G75*
G02*
X8638000Y-5730000I50000J0D01*
G01*
X8638000Y-5984000D02*
G75*
G02*
X8538000Y-5984000I-50000J0D01*
G01*
X8538000Y-5984000D02*
G75*
G02*
X8638000Y-5984000I50000J0D01*
G01*
X8638000Y-7000000D02*
G75*
G02*
X8538000Y-7000000I-50000J0D01*
G01*
X8538000Y-7000000D02*
G75*
G02*
X8638000Y-7000000I50000J0D01*
G01*
X8782000Y-6492000D02*
G75*
G02*
X8682000Y-6492000I-50000J0D01*
G01*
X8682000Y-6492000D02*
G75*
G02*
X8782000Y-6492000I50000J0D01*
G01*
X8892000Y-7000000D02*
G75*
G02*
X8792000Y-7000000I-50000J0D01*
G01*
X8792000Y-7000000D02*
G75*
G02*
X8892000Y-7000000I50000J0D01*
G01*
D11*
X3109777Y-7700484D02*
X3109777Y-7500484D01*
X3109777Y-7500484D02*
X3157396Y-7500484D01*
X3157396Y-7500484D02*
X3185967Y-7510008D01*
X3185967Y-7510008D02*
X3205015Y-7529055D01*
X3205015Y-7529055D02*
X3214539Y-7548103D01*
X3214539Y-7548103D02*
X3224062Y-7586198D01*
X3224062Y-7586198D02*
X3224062Y-7614769D01*
X3224062Y-7614769D02*
X3214539Y-7652865D01*
X3214539Y-7652865D02*
X3205015Y-7671912D01*
X3205015Y-7671912D02*
X3185967Y-7690960D01*
X3185967Y-7690960D02*
X3157396Y-7700484D01*
X3157396Y-7700484D02*
X3109777Y-7700484D01*
X3309777Y-7700484D02*
X3309777Y-7567150D01*
X3309777Y-7605246D02*
X3319301Y-7586198D01*
X3319301Y-7586198D02*
X3328824Y-7576674D01*
X3328824Y-7576674D02*
X3347872Y-7567150D01*
X3347872Y-7567150D02*
X3366920Y-7567150D01*
X3433586Y-7700484D02*
X3433586Y-7567150D01*
X3433586Y-7500484D02*
X3424062Y-7510008D01*
X3424062Y-7510008D02*
X3433586Y-7519531D01*
X3433586Y-7519531D02*
X3443110Y-7510008D01*
X3443110Y-7510008D02*
X3433586Y-7500484D01*
X3433586Y-7500484D02*
X3433586Y-7519531D01*
X3557396Y-7700484D02*
X3538348Y-7690960D01*
X3538348Y-7690960D02*
X3528824Y-7671912D01*
X3528824Y-7671912D02*
X3528824Y-7500484D01*
X3662158Y-7700484D02*
X3643110Y-7690960D01*
X3643110Y-7690960D02*
X3633586Y-7671912D01*
X3633586Y-7671912D02*
X3633586Y-7500484D01*
X3890729Y-7700484D02*
X3890729Y-7500484D01*
X3890729Y-7500484D02*
X3957396Y-7643341D01*
X3957396Y-7643341D02*
X4024062Y-7500484D01*
X4024062Y-7500484D02*
X4024062Y-7700484D01*
X4205015Y-7700484D02*
X4205015Y-7595722D01*
X4205015Y-7595722D02*
X4195491Y-7576674D01*
X4195491Y-7576674D02*
X4176443Y-7567150D01*
X4176443Y-7567150D02*
X4138348Y-7567150D01*
X4138348Y-7567150D02*
X4119301Y-7576674D01*
X4205015Y-7690960D02*
X4185967Y-7700484D01*
X4185967Y-7700484D02*
X4138348Y-7700484D01*
X4138348Y-7700484D02*
X4119301Y-7690960D01*
X4119301Y-7690960D02*
X4109777Y-7671912D01*
X4109777Y-7671912D02*
X4109777Y-7652865D01*
X4109777Y-7652865D02*
X4119301Y-7633817D01*
X4119301Y-7633817D02*
X4138348Y-7624293D01*
X4138348Y-7624293D02*
X4185967Y-7624293D01*
X4185967Y-7624293D02*
X4205015Y-7614769D01*
X4300253Y-7567150D02*
X4300253Y-7767150D01*
X4300253Y-7576674D02*
X4319301Y-7567150D01*
X4319301Y-7567150D02*
X4357396Y-7567150D01*
X4357396Y-7567150D02*
X4376444Y-7576674D01*
X4376444Y-7576674D02*
X4385967Y-7586198D01*
X4385967Y-7586198D02*
X4395491Y-7605246D01*
X4395491Y-7605246D02*
X4395491Y-7662388D01*
X4395491Y-7662388D02*
X4385967Y-7681436D01*
X4385967Y-7681436D02*
X4376444Y-7690960D01*
X4376444Y-7690960D02*
X4357396Y-7700484D01*
X4357396Y-7700484D02*
X4319301Y-7700484D01*
X4319301Y-7700484D02*
X4300253Y-7690960D01*
X4481205Y-7681436D02*
X4490729Y-7690960D01*
X4490729Y-7690960D02*
X4481205Y-7700484D01*
X4481205Y-7700484D02*
X4471682Y-7690960D01*
X4471682Y-7690960D02*
X4481205Y-7681436D01*
X4481205Y-7681436D02*
X4481205Y-7700484D01*
X4481205Y-7576674D02*
X4490729Y-7586198D01*
X4490729Y-7586198D02*
X4481205Y-7595722D01*
X4481205Y-7595722D02*
X4471682Y-7586198D01*
X4471682Y-7586198D02*
X4481205Y-7576674D01*
X4481205Y-7576674D02*
X4481205Y-7595722D01*
D10*
X2809000Y-8009000D02*
X2849000Y-8049000D01*
X2849000Y-8009000D02*
X2809000Y-8049000D01*
D11*
X3147872Y-7920484D02*
X3166920Y-7920484D01*
X3166920Y-7920484D02*
X3185967Y-7930008D01*
X3185967Y-7930008D02*
X3195491Y-7939531D01*
X3195491Y-7939531D02*
X3205015Y-7958579D01*
X3205015Y-7958579D02*
X3214539Y-7996674D01*
X3214539Y-7996674D02*
X3214539Y-8044293D01*
X3214539Y-8044293D02*
X3205015Y-8082388D01*
X3205015Y-8082388D02*
X3195491Y-8101436D01*
X3195491Y-8101436D02*
X3185967Y-8110960D01*
X3185967Y-8110960D02*
X3166920Y-8120484D01*
X3166920Y-8120484D02*
X3147872Y-8120484D01*
X3147872Y-8120484D02*
X3128824Y-8110960D01*
X3128824Y-8110960D02*
X3119301Y-8101436D01*
X3119301Y-8101436D02*
X3109777Y-8082388D01*
X3109777Y-8082388D02*
X3100253Y-8044293D01*
X3100253Y-8044293D02*
X3100253Y-7996674D01*
X3100253Y-7996674D02*
X3109777Y-7958579D01*
X3109777Y-7958579D02*
X3119301Y-7939531D01*
X3119301Y-7939531D02*
X3128824Y-7930008D01*
X3128824Y-7930008D02*
X3147872Y-7920484D01*
X3300253Y-8101436D02*
X3309777Y-8110960D01*
X3309777Y-8110960D02*
X3300253Y-8120484D01*
X3300253Y-8120484D02*
X3290729Y-8110960D01*
X3290729Y-8110960D02*
X3300253Y-8101436D01*
X3300253Y-8101436D02*
X3300253Y-8120484D01*
X3481205Y-7987150D02*
X3481205Y-8120484D01*
X3433586Y-7910960D02*
X3385967Y-8053817D01*
X3385967Y-8053817D02*
X3509777Y-8053817D01*
X3624062Y-7920484D02*
X3643110Y-7920484D01*
X3643110Y-7920484D02*
X3662158Y-7930008D01*
X3662158Y-7930008D02*
X3671682Y-7939531D01*
X3671682Y-7939531D02*
X3681205Y-7958579D01*
X3681205Y-7958579D02*
X3690729Y-7996674D01*
X3690729Y-7996674D02*
X3690729Y-8044293D01*
X3690729Y-8044293D02*
X3681205Y-8082388D01*
X3681205Y-8082388D02*
X3671682Y-8101436D01*
X3671682Y-8101436D02*
X3662158Y-8110960D01*
X3662158Y-8110960D02*
X3643110Y-8120484D01*
X3643110Y-8120484D02*
X3624062Y-8120484D01*
X3624062Y-8120484D02*
X3605015Y-8110960D01*
X3605015Y-8110960D02*
X3595491Y-8101436D01*
X3595491Y-8101436D02*
X3585967Y-8082388D01*
X3585967Y-8082388D02*
X3576443Y-8044293D01*
X3576443Y-8044293D02*
X3576443Y-7996674D01*
X3576443Y-7996674D02*
X3585967Y-7958579D01*
X3585967Y-7958579D02*
X3595491Y-7939531D01*
X3595491Y-7939531D02*
X3605015Y-7930008D01*
X3605015Y-7930008D02*
X3624062Y-7920484D01*
X3814539Y-7920484D02*
X3833586Y-7920484D01*
X3833586Y-7920484D02*
X3852634Y-7930008D01*
X3852634Y-7930008D02*
X3862158Y-7939531D01*
X3862158Y-7939531D02*
X3871682Y-7958579D01*
X3871682Y-7958579D02*
X3881205Y-7996674D01*
X3881205Y-7996674D02*
X3881205Y-8044293D01*
X3881205Y-8044293D02*
X3871682Y-8082388D01*
X3871682Y-8082388D02*
X3862158Y-8101436D01*
X3862158Y-8101436D02*
X3852634Y-8110960D01*
X3852634Y-8110960D02*
X3833586Y-8120484D01*
X3833586Y-8120484D02*
X3814539Y-8120484D01*
X3814539Y-8120484D02*
X3795491Y-8110960D01*
X3795491Y-8110960D02*
X3785967Y-8101436D01*
X3785967Y-8101436D02*
X3776443Y-8082388D01*
X3776443Y-8082388D02*
X3766920Y-8044293D01*
X3766920Y-8044293D02*
X3766920Y-7996674D01*
X3766920Y-7996674D02*
X3776443Y-7958579D01*
X3776443Y-7958579D02*
X3785967Y-7939531D01*
X3785967Y-7939531D02*
X3795491Y-7930008D01*
X3795491Y-7930008D02*
X3814539Y-7920484D01*
X3966920Y-8120484D02*
X3966920Y-7987150D01*
X3966920Y-8006198D02*
X3976443Y-7996674D01*
X3976443Y-7996674D02*
X3995491Y-7987150D01*
X3995491Y-7987150D02*
X4024063Y-7987150D01*
X4024063Y-7987150D02*
X4043110Y-7996674D01*
X4043110Y-7996674D02*
X4052634Y-8015722D01*
X4052634Y-8015722D02*
X4052634Y-8120484D01*
X4052634Y-8015722D02*
X4062158Y-7996674D01*
X4062158Y-7996674D02*
X4081205Y-7987150D01*
X4081205Y-7987150D02*
X4109777Y-7987150D01*
X4109777Y-7987150D02*
X4128824Y-7996674D01*
X4128824Y-7996674D02*
X4138348Y-8015722D01*
X4138348Y-8015722D02*
X4138348Y-8120484D01*
X4233586Y-8120484D02*
X4233586Y-7987150D01*
X4233586Y-8006198D02*
X4243110Y-7996674D01*
X4243110Y-7996674D02*
X4262158Y-7987150D01*
X4262158Y-7987150D02*
X4290729Y-7987150D01*
X4290729Y-7987150D02*
X4309777Y-7996674D01*
X4309777Y-7996674D02*
X4319301Y-8015722D01*
X4319301Y-8015722D02*
X4319301Y-8120484D01*
X4319301Y-8015722D02*
X4328825Y-7996674D01*
X4328825Y-7996674D02*
X4347872Y-7987150D01*
X4347872Y-7987150D02*
X4376444Y-7987150D01*
X4376444Y-7987150D02*
X4395491Y-7996674D01*
X4395491Y-7996674D02*
X4405015Y-8015722D01*
X4405015Y-8015722D02*
X4405015Y-8120484D01*
X4795491Y-7910960D02*
X4624063Y-8168103D01*
X5052634Y-7920484D02*
X5071682Y-7920484D01*
X5071682Y-7920484D02*
X5090729Y-7930008D01*
X5090729Y-7930008D02*
X5100253Y-7939531D01*
X5100253Y-7939531D02*
X5109777Y-7958579D01*
X5109777Y-7958579D02*
X5119301Y-7996674D01*
X5119301Y-7996674D02*
X5119301Y-8044293D01*
X5119301Y-8044293D02*
X5109777Y-8082388D01*
X5109777Y-8082388D02*
X5100253Y-8101436D01*
X5100253Y-8101436D02*
X5090729Y-8110960D01*
X5090729Y-8110960D02*
X5071682Y-8120484D01*
X5071682Y-8120484D02*
X5052634Y-8120484D01*
X5052634Y-8120484D02*
X5033587Y-8110960D01*
X5033587Y-8110960D02*
X5024063Y-8101436D01*
X5024063Y-8101436D02*
X5014539Y-8082388D01*
X5014539Y-8082388D02*
X5005015Y-8044293D01*
X5005015Y-8044293D02*
X5005015Y-7996674D01*
X5005015Y-7996674D02*
X5014539Y-7958579D01*
X5014539Y-7958579D02*
X5024063Y-7939531D01*
X5024063Y-7939531D02*
X5033587Y-7930008D01*
X5033587Y-7930008D02*
X5052634Y-7920484D01*
X5205015Y-8101436D02*
X5214539Y-8110960D01*
X5214539Y-8110960D02*
X5205015Y-8120484D01*
X5205015Y-8120484D02*
X5195491Y-8110960D01*
X5195491Y-8110960D02*
X5205015Y-8101436D01*
X5205015Y-8101436D02*
X5205015Y-8120484D01*
X5338348Y-7920484D02*
X5357396Y-7920484D01*
X5357396Y-7920484D02*
X5376444Y-7930008D01*
X5376444Y-7930008D02*
X5385968Y-7939531D01*
X5385968Y-7939531D02*
X5395491Y-7958579D01*
X5395491Y-7958579D02*
X5405015Y-7996674D01*
X5405015Y-7996674D02*
X5405015Y-8044293D01*
X5405015Y-8044293D02*
X5395491Y-8082388D01*
X5395491Y-8082388D02*
X5385968Y-8101436D01*
X5385968Y-8101436D02*
X5376444Y-8110960D01*
X5376444Y-8110960D02*
X5357396Y-8120484D01*
X5357396Y-8120484D02*
X5338348Y-8120484D01*
X5338348Y-8120484D02*
X5319301Y-8110960D01*
X5319301Y-8110960D02*
X5309777Y-8101436D01*
X5309777Y-8101436D02*
X5300253Y-8082388D01*
X5300253Y-8082388D02*
X5290729Y-8044293D01*
X5290729Y-8044293D02*
X5290729Y-7996674D01*
X5290729Y-7996674D02*
X5300253Y-7958579D01*
X5300253Y-7958579D02*
X5309777Y-7939531D01*
X5309777Y-7939531D02*
X5319301Y-7930008D01*
X5319301Y-7930008D02*
X5338348Y-7920484D01*
X5595491Y-8120484D02*
X5481206Y-8120484D01*
X5538348Y-8120484D02*
X5538348Y-7920484D01*
X5538348Y-7920484D02*
X5519301Y-7949055D01*
X5519301Y-7949055D02*
X5500253Y-7968103D01*
X5500253Y-7968103D02*
X5481206Y-7977627D01*
X5776444Y-7920484D02*
X5681206Y-7920484D01*
X5681206Y-7920484D02*
X5671682Y-8015722D01*
X5671682Y-8015722D02*
X5681206Y-8006198D01*
X5681206Y-8006198D02*
X5700253Y-7996674D01*
X5700253Y-7996674D02*
X5747872Y-7996674D01*
X5747872Y-7996674D02*
X5766920Y-8006198D01*
X5766920Y-8006198D02*
X5776444Y-8015722D01*
X5776444Y-8015722D02*
X5785967Y-8034769D01*
X5785967Y-8034769D02*
X5785967Y-8082388D01*
X5785967Y-8082388D02*
X5776444Y-8101436D01*
X5776444Y-8101436D02*
X5766920Y-8110960D01*
X5766920Y-8110960D02*
X5747872Y-8120484D01*
X5747872Y-8120484D02*
X5700253Y-8120484D01*
X5700253Y-8120484D02*
X5681206Y-8110960D01*
X5681206Y-8110960D02*
X5671682Y-8101436D01*
X5852634Y-7920484D02*
X5985967Y-7920484D01*
X5985967Y-7920484D02*
X5900253Y-8120484D01*
X6052634Y-7920484D02*
X6052634Y-7958579D01*
X6128825Y-7920484D02*
X6128825Y-7958579D01*
X6424063Y-8196674D02*
X6414539Y-8187150D01*
X6414539Y-8187150D02*
X6395491Y-8158579D01*
X6395491Y-8158579D02*
X6385968Y-8139531D01*
X6385968Y-8139531D02*
X6376444Y-8110960D01*
X6376444Y-8110960D02*
X6366920Y-8063341D01*
X6366920Y-8063341D02*
X6366920Y-8025246D01*
X6366920Y-8025246D02*
X6376444Y-7977627D01*
X6376444Y-7977627D02*
X6385968Y-7949055D01*
X6385968Y-7949055D02*
X6395491Y-7930008D01*
X6395491Y-7930008D02*
X6414539Y-7901436D01*
X6414539Y-7901436D02*
X6424063Y-7891912D01*
X6605015Y-8120484D02*
X6490729Y-8120484D01*
X6547872Y-8120484D02*
X6547872Y-7920484D01*
X6547872Y-7920484D02*
X6528825Y-7949055D01*
X6528825Y-7949055D02*
X6509777Y-7968103D01*
X6509777Y-7968103D02*
X6490729Y-7977627D01*
X6776444Y-7920484D02*
X6738348Y-7920484D01*
X6738348Y-7920484D02*
X6719301Y-7930008D01*
X6719301Y-7930008D02*
X6709777Y-7939531D01*
X6709777Y-7939531D02*
X6690729Y-7968103D01*
X6690729Y-7968103D02*
X6681206Y-8006198D01*
X6681206Y-8006198D02*
X6681206Y-8082388D01*
X6681206Y-8082388D02*
X6690729Y-8101436D01*
X6690729Y-8101436D02*
X6700253Y-8110960D01*
X6700253Y-8110960D02*
X6719301Y-8120484D01*
X6719301Y-8120484D02*
X6757396Y-8120484D01*
X6757396Y-8120484D02*
X6776444Y-8110960D01*
X6776444Y-8110960D02*
X6785968Y-8101436D01*
X6785968Y-8101436D02*
X6795491Y-8082388D01*
X6795491Y-8082388D02*
X6795491Y-8034769D01*
X6795491Y-8034769D02*
X6785968Y-8015722D01*
X6785968Y-8015722D02*
X6776444Y-8006198D01*
X6776444Y-8006198D02*
X6757396Y-7996674D01*
X6757396Y-7996674D02*
X6719301Y-7996674D01*
X6719301Y-7996674D02*
X6700253Y-8006198D01*
X6700253Y-8006198D02*
X6690729Y-8015722D01*
X6690729Y-8015722D02*
X6681206Y-8034769D01*
X7033587Y-8120484D02*
X7033587Y-7920484D01*
X7119301Y-8120484D02*
X7119301Y-8015722D01*
X7119301Y-8015722D02*
X7109777Y-7996674D01*
X7109777Y-7996674D02*
X7090730Y-7987150D01*
X7090730Y-7987150D02*
X7062158Y-7987150D01*
X7062158Y-7987150D02*
X7043110Y-7996674D01*
X7043110Y-7996674D02*
X7033587Y-8006198D01*
X7243110Y-8120484D02*
X7224063Y-8110960D01*
X7224063Y-8110960D02*
X7214539Y-8101436D01*
X7214539Y-8101436D02*
X7205015Y-8082388D01*
X7205015Y-8082388D02*
X7205015Y-8025246D01*
X7205015Y-8025246D02*
X7214539Y-8006198D01*
X7214539Y-8006198D02*
X7224063Y-7996674D01*
X7224063Y-7996674D02*
X7243110Y-7987150D01*
X7243110Y-7987150D02*
X7271682Y-7987150D01*
X7271682Y-7987150D02*
X7290730Y-7996674D01*
X7290730Y-7996674D02*
X7300253Y-8006198D01*
X7300253Y-8006198D02*
X7309777Y-8025246D01*
X7309777Y-8025246D02*
X7309777Y-8082388D01*
X7309777Y-8082388D02*
X7300253Y-8101436D01*
X7300253Y-8101436D02*
X7290730Y-8110960D01*
X7290730Y-8110960D02*
X7271682Y-8120484D01*
X7271682Y-8120484D02*
X7243110Y-8120484D01*
X7424063Y-8120484D02*
X7405015Y-8110960D01*
X7405015Y-8110960D02*
X7395491Y-8091912D01*
X7395491Y-8091912D02*
X7395491Y-7920484D01*
X7576444Y-8110960D02*
X7557396Y-8120484D01*
X7557396Y-8120484D02*
X7519301Y-8120484D01*
X7519301Y-8120484D02*
X7500253Y-8110960D01*
X7500253Y-8110960D02*
X7490730Y-8091912D01*
X7490730Y-8091912D02*
X7490730Y-8015722D01*
X7490730Y-8015722D02*
X7500253Y-7996674D01*
X7500253Y-7996674D02*
X7519301Y-7987150D01*
X7519301Y-7987150D02*
X7557396Y-7987150D01*
X7557396Y-7987150D02*
X7576444Y-7996674D01*
X7576444Y-7996674D02*
X7585968Y-8015722D01*
X7585968Y-8015722D02*
X7585968Y-8034769D01*
X7585968Y-8034769D02*
X7490730Y-8053817D01*
X7662158Y-8110960D02*
X7681206Y-8120484D01*
X7681206Y-8120484D02*
X7719301Y-8120484D01*
X7719301Y-8120484D02*
X7738349Y-8110960D01*
X7738349Y-8110960D02*
X7747872Y-8091912D01*
X7747872Y-8091912D02*
X7747872Y-8082388D01*
X7747872Y-8082388D02*
X7738349Y-8063341D01*
X7738349Y-8063341D02*
X7719301Y-8053817D01*
X7719301Y-8053817D02*
X7690730Y-8053817D01*
X7690730Y-8053817D02*
X7671682Y-8044293D01*
X7671682Y-8044293D02*
X7662158Y-8025246D01*
X7662158Y-8025246D02*
X7662158Y-8015722D01*
X7662158Y-8015722D02*
X7671682Y-7996674D01*
X7671682Y-7996674D02*
X7690730Y-7987150D01*
X7690730Y-7987150D02*
X7719301Y-7987150D01*
X7719301Y-7987150D02*
X7738349Y-7996674D01*
X7814539Y-8196674D02*
X7824063Y-8187150D01*
X7824063Y-8187150D02*
X7843111Y-8158579D01*
X7843111Y-8158579D02*
X7852634Y-8139531D01*
X7852634Y-8139531D02*
X7862158Y-8110960D01*
X7862158Y-8110960D02*
X7871682Y-8063341D01*
X7871682Y-8063341D02*
X7871682Y-8025246D01*
X7871682Y-8025246D02*
X7862158Y-7977627D01*
X7862158Y-7977627D02*
X7852634Y-7949055D01*
X7852634Y-7949055D02*
X7843111Y-7930008D01*
X7843111Y-7930008D02*
X7824063Y-7901436D01*
X7824063Y-7901436D02*
X7814539Y-7891912D01*
D10*
X2849000Y-8293000D02*
G75*
G02*
X2749000Y-8293000I-50000J0D01*
G01*
X2749000Y-8293000D02*
G75*
G02*
X2849000Y-8293000I50000J0D01*
G01*
D11*
X3214539Y-8384484D02*
X3100253Y-8384484D01*
X3157396Y-8384484D02*
X3157396Y-8184484D01*
X3157396Y-8184484D02*
X3138348Y-8213055D01*
X3138348Y-8213055D02*
X3119301Y-8232103D01*
X3119301Y-8232103D02*
X3100253Y-8241627D01*
X3300253Y-8365436D02*
X3309777Y-8374960D01*
X3309777Y-8374960D02*
X3300253Y-8384484D01*
X3300253Y-8384484D02*
X3290729Y-8374960D01*
X3290729Y-8374960D02*
X3300253Y-8365436D01*
X3300253Y-8365436D02*
X3300253Y-8384484D01*
X3433586Y-8184484D02*
X3452634Y-8184484D01*
X3452634Y-8184484D02*
X3471682Y-8194008D01*
X3471682Y-8194008D02*
X3481205Y-8203531D01*
X3481205Y-8203531D02*
X3490729Y-8222579D01*
X3490729Y-8222579D02*
X3500253Y-8260674D01*
X3500253Y-8260674D02*
X3500253Y-8308293D01*
X3500253Y-8308293D02*
X3490729Y-8346388D01*
X3490729Y-8346388D02*
X3481205Y-8365436D01*
X3481205Y-8365436D02*
X3471682Y-8374960D01*
X3471682Y-8374960D02*
X3452634Y-8384484D01*
X3452634Y-8384484D02*
X3433586Y-8384484D01*
X3433586Y-8384484D02*
X3414539Y-8374960D01*
X3414539Y-8374960D02*
X3405015Y-8365436D01*
X3405015Y-8365436D02*
X3395491Y-8346388D01*
X3395491Y-8346388D02*
X3385967Y-8308293D01*
X3385967Y-8308293D02*
X3385967Y-8260674D01*
X3385967Y-8260674D02*
X3395491Y-8222579D01*
X3395491Y-8222579D02*
X3405015Y-8203531D01*
X3405015Y-8203531D02*
X3414539Y-8194008D01*
X3414539Y-8194008D02*
X3433586Y-8184484D01*
X3624062Y-8184484D02*
X3643110Y-8184484D01*
X3643110Y-8184484D02*
X3662158Y-8194008D01*
X3662158Y-8194008D02*
X3671682Y-8203531D01*
X3671682Y-8203531D02*
X3681205Y-8222579D01*
X3681205Y-8222579D02*
X3690729Y-8260674D01*
X3690729Y-8260674D02*
X3690729Y-8308293D01*
X3690729Y-8308293D02*
X3681205Y-8346388D01*
X3681205Y-8346388D02*
X3671682Y-8365436D01*
X3671682Y-8365436D02*
X3662158Y-8374960D01*
X3662158Y-8374960D02*
X3643110Y-8384484D01*
X3643110Y-8384484D02*
X3624062Y-8384484D01*
X3624062Y-8384484D02*
X3605015Y-8374960D01*
X3605015Y-8374960D02*
X3595491Y-8365436D01*
X3595491Y-8365436D02*
X3585967Y-8346388D01*
X3585967Y-8346388D02*
X3576443Y-8308293D01*
X3576443Y-8308293D02*
X3576443Y-8260674D01*
X3576443Y-8260674D02*
X3585967Y-8222579D01*
X3585967Y-8222579D02*
X3595491Y-8203531D01*
X3595491Y-8203531D02*
X3605015Y-8194008D01*
X3605015Y-8194008D02*
X3624062Y-8184484D01*
X3814539Y-8184484D02*
X3833586Y-8184484D01*
X3833586Y-8184484D02*
X3852634Y-8194008D01*
X3852634Y-8194008D02*
X3862158Y-8203531D01*
X3862158Y-8203531D02*
X3871682Y-8222579D01*
X3871682Y-8222579D02*
X3881205Y-8260674D01*
X3881205Y-8260674D02*
X3881205Y-8308293D01*
X3881205Y-8308293D02*
X3871682Y-8346388D01*
X3871682Y-8346388D02*
X3862158Y-8365436D01*
X3862158Y-8365436D02*
X3852634Y-8374960D01*
X3852634Y-8374960D02*
X3833586Y-8384484D01*
X3833586Y-8384484D02*
X3814539Y-8384484D01*
X3814539Y-8384484D02*
X3795491Y-8374960D01*
X3795491Y-8374960D02*
X3785967Y-8365436D01*
X3785967Y-8365436D02*
X3776443Y-8346388D01*
X3776443Y-8346388D02*
X3766920Y-8308293D01*
X3766920Y-8308293D02*
X3766920Y-8260674D01*
X3766920Y-8260674D02*
X3776443Y-8222579D01*
X3776443Y-8222579D02*
X3785967Y-8203531D01*
X3785967Y-8203531D02*
X3795491Y-8194008D01*
X3795491Y-8194008D02*
X3814539Y-8184484D01*
X3966920Y-8384484D02*
X3966920Y-8251150D01*
X3966920Y-8270198D02*
X3976443Y-8260674D01*
X3976443Y-8260674D02*
X3995491Y-8251150D01*
X3995491Y-8251150D02*
X4024063Y-8251150D01*
X4024063Y-8251150D02*
X4043110Y-8260674D01*
X4043110Y-8260674D02*
X4052634Y-8279722D01*
X4052634Y-8279722D02*
X4052634Y-8384484D01*
X4052634Y-8279722D02*
X4062158Y-8260674D01*
X4062158Y-8260674D02*
X4081205Y-8251150D01*
X4081205Y-8251150D02*
X4109777Y-8251150D01*
X4109777Y-8251150D02*
X4128824Y-8260674D01*
X4128824Y-8260674D02*
X4138348Y-8279722D01*
X4138348Y-8279722D02*
X4138348Y-8384484D01*
X4233586Y-8384484D02*
X4233586Y-8251150D01*
X4233586Y-8270198D02*
X4243110Y-8260674D01*
X4243110Y-8260674D02*
X4262158Y-8251150D01*
X4262158Y-8251150D02*
X4290729Y-8251150D01*
X4290729Y-8251150D02*
X4309777Y-8260674D01*
X4309777Y-8260674D02*
X4319301Y-8279722D01*
X4319301Y-8279722D02*
X4319301Y-8384484D01*
X4319301Y-8279722D02*
X4328825Y-8260674D01*
X4328825Y-8260674D02*
X4347872Y-8251150D01*
X4347872Y-8251150D02*
X4376444Y-8251150D01*
X4376444Y-8251150D02*
X4395491Y-8260674D01*
X4395491Y-8260674D02*
X4405015Y-8279722D01*
X4405015Y-8279722D02*
X4405015Y-8384484D01*
X4795491Y-8174960D02*
X4624063Y-8432103D01*
X5052634Y-8184484D02*
X5071682Y-8184484D01*
X5071682Y-8184484D02*
X5090729Y-8194008D01*
X5090729Y-8194008D02*
X5100253Y-8203531D01*
X5100253Y-8203531D02*
X5109777Y-8222579D01*
X5109777Y-8222579D02*
X5119301Y-8260674D01*
X5119301Y-8260674D02*
X5119301Y-8308293D01*
X5119301Y-8308293D02*
X5109777Y-8346388D01*
X5109777Y-8346388D02*
X5100253Y-8365436D01*
X5100253Y-8365436D02*
X5090729Y-8374960D01*
X5090729Y-8374960D02*
X5071682Y-8384484D01*
X5071682Y-8384484D02*
X5052634Y-8384484D01*
X5052634Y-8384484D02*
X5033587Y-8374960D01*
X5033587Y-8374960D02*
X5024063Y-8365436D01*
X5024063Y-8365436D02*
X5014539Y-8346388D01*
X5014539Y-8346388D02*
X5005015Y-8308293D01*
X5005015Y-8308293D02*
X5005015Y-8260674D01*
X5005015Y-8260674D02*
X5014539Y-8222579D01*
X5014539Y-8222579D02*
X5024063Y-8203531D01*
X5024063Y-8203531D02*
X5033587Y-8194008D01*
X5033587Y-8194008D02*
X5052634Y-8184484D01*
X5205015Y-8365436D02*
X5214539Y-8374960D01*
X5214539Y-8374960D02*
X5205015Y-8384484D01*
X5205015Y-8384484D02*
X5195491Y-8374960D01*
X5195491Y-8374960D02*
X5205015Y-8365436D01*
X5205015Y-8365436D02*
X5205015Y-8384484D01*
X5338348Y-8184484D02*
X5357396Y-8184484D01*
X5357396Y-8184484D02*
X5376444Y-8194008D01*
X5376444Y-8194008D02*
X5385968Y-8203531D01*
X5385968Y-8203531D02*
X5395491Y-8222579D01*
X5395491Y-8222579D02*
X5405015Y-8260674D01*
X5405015Y-8260674D02*
X5405015Y-8308293D01*
X5405015Y-8308293D02*
X5395491Y-8346388D01*
X5395491Y-8346388D02*
X5385968Y-8365436D01*
X5385968Y-8365436D02*
X5376444Y-8374960D01*
X5376444Y-8374960D02*
X5357396Y-8384484D01*
X5357396Y-8384484D02*
X5338348Y-8384484D01*
X5338348Y-8384484D02*
X5319301Y-8374960D01*
X5319301Y-8374960D02*
X5309777Y-8365436D01*
X5309777Y-8365436D02*
X5300253Y-8346388D01*
X5300253Y-8346388D02*
X5290729Y-8308293D01*
X5290729Y-8308293D02*
X5290729Y-8260674D01*
X5290729Y-8260674D02*
X5300253Y-8222579D01*
X5300253Y-8222579D02*
X5309777Y-8203531D01*
X5309777Y-8203531D02*
X5319301Y-8194008D01*
X5319301Y-8194008D02*
X5338348Y-8184484D01*
X5471682Y-8184484D02*
X5595491Y-8184484D01*
X5595491Y-8184484D02*
X5528825Y-8260674D01*
X5528825Y-8260674D02*
X5557396Y-8260674D01*
X5557396Y-8260674D02*
X5576444Y-8270198D01*
X5576444Y-8270198D02*
X5585968Y-8279722D01*
X5585968Y-8279722D02*
X5595491Y-8298769D01*
X5595491Y-8298769D02*
X5595491Y-8346388D01*
X5595491Y-8346388D02*
X5585968Y-8365436D01*
X5585968Y-8365436D02*
X5576444Y-8374960D01*
X5576444Y-8374960D02*
X5557396Y-8384484D01*
X5557396Y-8384484D02*
X5500253Y-8384484D01*
X5500253Y-8384484D02*
X5481206Y-8374960D01*
X5481206Y-8374960D02*
X5471682Y-8365436D01*
X5690729Y-8384484D02*
X5728825Y-8384484D01*
X5728825Y-8384484D02*
X5747872Y-8374960D01*
X5747872Y-8374960D02*
X5757396Y-8365436D01*
X5757396Y-8365436D02*
X5776444Y-8336865D01*
X5776444Y-8336865D02*
X5785967Y-8298769D01*
X5785967Y-8298769D02*
X5785967Y-8222579D01*
X5785967Y-8222579D02*
X5776444Y-8203531D01*
X5776444Y-8203531D02*
X5766920Y-8194008D01*
X5766920Y-8194008D02*
X5747872Y-8184484D01*
X5747872Y-8184484D02*
X5709777Y-8184484D01*
X5709777Y-8184484D02*
X5690729Y-8194008D01*
X5690729Y-8194008D02*
X5681206Y-8203531D01*
X5681206Y-8203531D02*
X5671682Y-8222579D01*
X5671682Y-8222579D02*
X5671682Y-8270198D01*
X5671682Y-8270198D02*
X5681206Y-8289246D01*
X5681206Y-8289246D02*
X5690729Y-8298769D01*
X5690729Y-8298769D02*
X5709777Y-8308293D01*
X5709777Y-8308293D02*
X5747872Y-8308293D01*
X5747872Y-8308293D02*
X5766920Y-8298769D01*
X5766920Y-8298769D02*
X5776444Y-8289246D01*
X5776444Y-8289246D02*
X5785967Y-8270198D01*
X5957396Y-8251150D02*
X5957396Y-8384484D01*
X5909777Y-8174960D02*
X5862158Y-8317817D01*
X5862158Y-8317817D02*
X5985967Y-8317817D01*
X6052634Y-8184484D02*
X6052634Y-8222579D01*
X6128825Y-8184484D02*
X6128825Y-8222579D01*
X6424063Y-8460674D02*
X6414539Y-8451150D01*
X6414539Y-8451150D02*
X6395491Y-8422579D01*
X6395491Y-8422579D02*
X6385968Y-8403531D01*
X6385968Y-8403531D02*
X6376444Y-8374960D01*
X6376444Y-8374960D02*
X6366920Y-8327341D01*
X6366920Y-8327341D02*
X6366920Y-8289246D01*
X6366920Y-8289246D02*
X6376444Y-8241627D01*
X6376444Y-8241627D02*
X6385968Y-8213055D01*
X6385968Y-8213055D02*
X6395491Y-8194008D01*
X6395491Y-8194008D02*
X6414539Y-8165436D01*
X6414539Y-8165436D02*
X6424063Y-8155912D01*
X6605015Y-8384484D02*
X6490729Y-8384484D01*
X6547872Y-8384484D02*
X6547872Y-8184484D01*
X6547872Y-8184484D02*
X6528825Y-8213055D01*
X6528825Y-8213055D02*
X6509777Y-8232103D01*
X6509777Y-8232103D02*
X6490729Y-8241627D01*
X6728825Y-8184484D02*
X6747872Y-8184484D01*
X6747872Y-8184484D02*
X6766920Y-8194008D01*
X6766920Y-8194008D02*
X6776444Y-8203531D01*
X6776444Y-8203531D02*
X6785968Y-8222579D01*
X6785968Y-8222579D02*
X6795491Y-8260674D01*
X6795491Y-8260674D02*
X6795491Y-8308293D01*
X6795491Y-8308293D02*
X6785968Y-8346388D01*
X6785968Y-8346388D02*
X6776444Y-8365436D01*
X6776444Y-8365436D02*
X6766920Y-8374960D01*
X6766920Y-8374960D02*
X6747872Y-8384484D01*
X6747872Y-8384484D02*
X6728825Y-8384484D01*
X6728825Y-8384484D02*
X6709777Y-8374960D01*
X6709777Y-8374960D02*
X6700253Y-8365436D01*
X6700253Y-8365436D02*
X6690729Y-8346388D01*
X6690729Y-8346388D02*
X6681206Y-8308293D01*
X6681206Y-8308293D02*
X6681206Y-8260674D01*
X6681206Y-8260674D02*
X6690729Y-8222579D01*
X6690729Y-8222579D02*
X6700253Y-8203531D01*
X6700253Y-8203531D02*
X6709777Y-8194008D01*
X6709777Y-8194008D02*
X6728825Y-8184484D01*
X6976444Y-8184484D02*
X6881206Y-8184484D01*
X6881206Y-8184484D02*
X6871682Y-8279722D01*
X6871682Y-8279722D02*
X6881206Y-8270198D01*
X6881206Y-8270198D02*
X6900253Y-8260674D01*
X6900253Y-8260674D02*
X6947872Y-8260674D01*
X6947872Y-8260674D02*
X6966920Y-8270198D01*
X6966920Y-8270198D02*
X6976444Y-8279722D01*
X6976444Y-8279722D02*
X6985968Y-8298769D01*
X6985968Y-8298769D02*
X6985968Y-8346388D01*
X6985968Y-8346388D02*
X6976444Y-8365436D01*
X6976444Y-8365436D02*
X6966920Y-8374960D01*
X6966920Y-8374960D02*
X6947872Y-8384484D01*
X6947872Y-8384484D02*
X6900253Y-8384484D01*
X6900253Y-8384484D02*
X6881206Y-8374960D01*
X6881206Y-8374960D02*
X6871682Y-8365436D01*
X7224063Y-8384484D02*
X7224063Y-8184484D01*
X7309777Y-8384484D02*
X7309777Y-8279722D01*
X7309777Y-8279722D02*
X7300253Y-8260674D01*
X7300253Y-8260674D02*
X7281206Y-8251150D01*
X7281206Y-8251150D02*
X7252634Y-8251150D01*
X7252634Y-8251150D02*
X7233587Y-8260674D01*
X7233587Y-8260674D02*
X7224063Y-8270198D01*
X7433587Y-8384484D02*
X7414539Y-8374960D01*
X7414539Y-8374960D02*
X7405015Y-8365436D01*
X7405015Y-8365436D02*
X7395491Y-8346388D01*
X7395491Y-8346388D02*
X7395491Y-8289246D01*
X7395491Y-8289246D02*
X7405015Y-8270198D01*
X7405015Y-8270198D02*
X7414539Y-8260674D01*
X7414539Y-8260674D02*
X7433587Y-8251150D01*
X7433587Y-8251150D02*
X7462158Y-8251150D01*
X7462158Y-8251150D02*
X7481206Y-8260674D01*
X7481206Y-8260674D02*
X7490730Y-8270198D01*
X7490730Y-8270198D02*
X7500253Y-8289246D01*
X7500253Y-8289246D02*
X7500253Y-8346388D01*
X7500253Y-8346388D02*
X7490730Y-8365436D01*
X7490730Y-8365436D02*
X7481206Y-8374960D01*
X7481206Y-8374960D02*
X7462158Y-8384484D01*
X7462158Y-8384484D02*
X7433587Y-8384484D01*
X7614539Y-8384484D02*
X7595491Y-8374960D01*
X7595491Y-8374960D02*
X7585968Y-8355912D01*
X7585968Y-8355912D02*
X7585968Y-8184484D01*
X7766920Y-8374960D02*
X7747872Y-8384484D01*
X7747872Y-8384484D02*
X7709777Y-8384484D01*
X7709777Y-8384484D02*
X7690730Y-8374960D01*
X7690730Y-8374960D02*
X7681206Y-8355912D01*
X7681206Y-8355912D02*
X7681206Y-8279722D01*
X7681206Y-8279722D02*
X7690730Y-8260674D01*
X7690730Y-8260674D02*
X7709777Y-8251150D01*
X7709777Y-8251150D02*
X7747872Y-8251150D01*
X7747872Y-8251150D02*
X7766920Y-8260674D01*
X7766920Y-8260674D02*
X7776444Y-8279722D01*
X7776444Y-8279722D02*
X7776444Y-8298769D01*
X7776444Y-8298769D02*
X7681206Y-8317817D01*
X7852634Y-8374960D02*
X7871682Y-8384484D01*
X7871682Y-8384484D02*
X7909777Y-8384484D01*
X7909777Y-8384484D02*
X7928825Y-8374960D01*
X7928825Y-8374960D02*
X7938349Y-8355912D01*
X7938349Y-8355912D02*
X7938349Y-8346388D01*
X7938349Y-8346388D02*
X7928825Y-8327341D01*
X7928825Y-8327341D02*
X7909777Y-8317817D01*
X7909777Y-8317817D02*
X7881206Y-8317817D01*
X7881206Y-8317817D02*
X7862158Y-8308293D01*
X7862158Y-8308293D02*
X7852634Y-8289246D01*
X7852634Y-8289246D02*
X7852634Y-8279722D01*
X7852634Y-8279722D02*
X7862158Y-8260674D01*
X7862158Y-8260674D02*
X7881206Y-8251150D01*
X7881206Y-8251150D02*
X7909777Y-8251150D01*
X7909777Y-8251150D02*
X7928825Y-8260674D01*
X8005015Y-8460674D02*
X8014539Y-8451150D01*
X8014539Y-8451150D02*
X8033587Y-8422579D01*
X8033587Y-8422579D02*
X8043111Y-8403531D01*
X8043111Y-8403531D02*
X8052634Y-8374960D01*
X8052634Y-8374960D02*
X8062158Y-8327341D01*
X8062158Y-8327341D02*
X8062158Y-8289246D01*
X8062158Y-8289246D02*
X8052634Y-8241627D01*
X8052634Y-8241627D02*
X8043111Y-8213055D01*
X8043111Y-8213055D02*
X8033587Y-8194008D01*
X8033587Y-8194008D02*
X8014539Y-8165436D01*
X8014539Y-8165436D02*
X8005015Y-8155912D01*
M02*
