%TF.GenerationSoftware,KiCad,Pcbnew,10.0.6*%
%TF.CreationDate,2026-09-05T21:59:17+01:00*%
%TF.ProjectId,CC1101ExtBoardV2,43433131-3031-4457-9874-426f61726456,rev?*%
%TF.SameCoordinates,Original*%
%TF.FileFunction,Legend,Bot*%
%TF.FilePolarity,Positive*%
%FSLAX46Y46*%
G04 Gerber Fmt 4.6, Leading zero omitted, Abs format (unit mm)*
G04 Created by KiCad (PCBNEW 10.0.6) date 2026-09-05 21:59:17*
%MOMM*%
%LPD*%
G01*
G04 APERTURE LIST*
%ADD10C,0.120000*%
G04 APERTURE END LIST*
D10*
X58228574Y-56325760D02*
X58114288Y-56363855D01*
X58114288Y-56363855D02*
X57923812Y-56363855D01*
X57923812Y-56363855D02*
X57847621Y-56325760D01*
X57847621Y-56325760D02*
X57809526Y-56287664D01*
X57809526Y-56287664D02*
X57771431Y-56211474D01*
X57771431Y-56211474D02*
X57771431Y-56135283D01*
X57771431Y-56135283D02*
X57809526Y-56059093D01*
X57809526Y-56059093D02*
X57847621Y-56020998D01*
X57847621Y-56020998D02*
X57923812Y-55982902D01*
X57923812Y-55982902D02*
X58076193Y-55944807D01*
X58076193Y-55944807D02*
X58152383Y-55906712D01*
X58152383Y-55906712D02*
X58190478Y-55868617D01*
X58190478Y-55868617D02*
X58228574Y-55792426D01*
X58228574Y-55792426D02*
X58228574Y-55716236D01*
X58228574Y-55716236D02*
X58190478Y-55640045D01*
X58190478Y-55640045D02*
X58152383Y-55601950D01*
X58152383Y-55601950D02*
X58076193Y-55563855D01*
X58076193Y-55563855D02*
X57885716Y-55563855D01*
X57885716Y-55563855D02*
X57771431Y-55601950D01*
X57085716Y-55830521D02*
X57085716Y-56363855D01*
X57428573Y-55830521D02*
X57428573Y-56249569D01*
X57428573Y-56249569D02*
X57390478Y-56325760D01*
X57390478Y-56325760D02*
X57314288Y-56363855D01*
X57314288Y-56363855D02*
X57200002Y-56363855D01*
X57200002Y-56363855D02*
X57123811Y-56325760D01*
X57123811Y-56325760D02*
X57085716Y-56287664D01*
X56704763Y-56363855D02*
X56704763Y-55563855D01*
X56704763Y-55868617D02*
X56628573Y-55830521D01*
X56628573Y-55830521D02*
X56476192Y-55830521D01*
X56476192Y-55830521D02*
X56400001Y-55868617D01*
X56400001Y-55868617D02*
X56361906Y-55906712D01*
X56361906Y-55906712D02*
X56323811Y-55982902D01*
X56323811Y-55982902D02*
X56323811Y-56211474D01*
X56323811Y-56211474D02*
X56361906Y-56287664D01*
X56361906Y-56287664D02*
X56400001Y-56325760D01*
X56400001Y-56325760D02*
X56476192Y-56363855D01*
X56476192Y-56363855D02*
X56628573Y-56363855D01*
X56628573Y-56363855D02*
X56704763Y-56325760D01*
X55980953Y-56059093D02*
X55371430Y-56059093D01*
X54571430Y-55601950D02*
X54647620Y-55563855D01*
X54647620Y-55563855D02*
X54761906Y-55563855D01*
X54761906Y-55563855D02*
X54876192Y-55601950D01*
X54876192Y-55601950D02*
X54952382Y-55678140D01*
X54952382Y-55678140D02*
X54990477Y-55754331D01*
X54990477Y-55754331D02*
X55028573Y-55906712D01*
X55028573Y-55906712D02*
X55028573Y-56020998D01*
X55028573Y-56020998D02*
X54990477Y-56173379D01*
X54990477Y-56173379D02*
X54952382Y-56249569D01*
X54952382Y-56249569D02*
X54876192Y-56325760D01*
X54876192Y-56325760D02*
X54761906Y-56363855D01*
X54761906Y-56363855D02*
X54685715Y-56363855D01*
X54685715Y-56363855D02*
X54571430Y-56325760D01*
X54571430Y-56325760D02*
X54533334Y-56287664D01*
X54533334Y-56287664D02*
X54533334Y-56020998D01*
X54533334Y-56020998D02*
X54685715Y-56020998D01*
X54190477Y-56363855D02*
X54190477Y-55563855D01*
X54190477Y-55944807D02*
X53733334Y-55944807D01*
X53733334Y-56363855D02*
X53733334Y-55563855D01*
X53428573Y-55830521D02*
X53009525Y-55830521D01*
X53009525Y-55830521D02*
X53428573Y-56363855D01*
X53428573Y-56363855D02*
X53009525Y-56363855D01*
X52095239Y-55830521D02*
X51485716Y-56059093D01*
X51485716Y-56059093D02*
X52095239Y-56287664D01*
X50038096Y-56363855D02*
X50304763Y-55982902D01*
X50495239Y-56363855D02*
X50495239Y-55563855D01*
X50495239Y-55563855D02*
X50190477Y-55563855D01*
X50190477Y-55563855D02*
X50114287Y-55601950D01*
X50114287Y-55601950D02*
X50076192Y-55640045D01*
X50076192Y-55640045D02*
X50038096Y-55716236D01*
X50038096Y-55716236D02*
X50038096Y-55830521D01*
X50038096Y-55830521D02*
X50076192Y-55906712D01*
X50076192Y-55906712D02*
X50114287Y-55944807D01*
X50114287Y-55944807D02*
X50190477Y-55982902D01*
X50190477Y-55982902D02*
X50495239Y-55982902D01*
X49352382Y-56363855D02*
X49352382Y-55944807D01*
X49352382Y-55944807D02*
X49390477Y-55868617D01*
X49390477Y-55868617D02*
X49466668Y-55830521D01*
X49466668Y-55830521D02*
X49619049Y-55830521D01*
X49619049Y-55830521D02*
X49695239Y-55868617D01*
X49352382Y-56325760D02*
X49428573Y-56363855D01*
X49428573Y-56363855D02*
X49619049Y-56363855D01*
X49619049Y-56363855D02*
X49695239Y-56325760D01*
X49695239Y-56325760D02*
X49733335Y-56249569D01*
X49733335Y-56249569D02*
X49733335Y-56173379D01*
X49733335Y-56173379D02*
X49695239Y-56097188D01*
X49695239Y-56097188D02*
X49619049Y-56059093D01*
X49619049Y-56059093D02*
X49428573Y-56059093D01*
X49428573Y-56059093D02*
X49352382Y-56020998D01*
X48628572Y-56363855D02*
X48628572Y-55563855D01*
X48628572Y-56325760D02*
X48704763Y-56363855D01*
X48704763Y-56363855D02*
X48857144Y-56363855D01*
X48857144Y-56363855D02*
X48933334Y-56325760D01*
X48933334Y-56325760D02*
X48971429Y-56287664D01*
X48971429Y-56287664D02*
X49009525Y-56211474D01*
X49009525Y-56211474D02*
X49009525Y-55982902D01*
X49009525Y-55982902D02*
X48971429Y-55906712D01*
X48971429Y-55906712D02*
X48933334Y-55868617D01*
X48933334Y-55868617D02*
X48857144Y-55830521D01*
X48857144Y-55830521D02*
X48704763Y-55830521D01*
X48704763Y-55830521D02*
X48628572Y-55868617D01*
X48247619Y-56363855D02*
X48247619Y-55830521D01*
X48247619Y-55563855D02*
X48285715Y-55601950D01*
X48285715Y-55601950D02*
X48247619Y-55640045D01*
X48247619Y-55640045D02*
X48209524Y-55601950D01*
X48209524Y-55601950D02*
X48247619Y-55563855D01*
X48247619Y-55563855D02*
X48247619Y-55640045D01*
X47752382Y-56363855D02*
X47828572Y-56325760D01*
X47828572Y-56325760D02*
X47866667Y-56287664D01*
X47866667Y-56287664D02*
X47904763Y-56211474D01*
X47904763Y-56211474D02*
X47904763Y-55982902D01*
X47904763Y-55982902D02*
X47866667Y-55906712D01*
X47866667Y-55906712D02*
X47828572Y-55868617D01*
X47828572Y-55868617D02*
X47752382Y-55830521D01*
X47752382Y-55830521D02*
X47638096Y-55830521D01*
X47638096Y-55830521D02*
X47561905Y-55868617D01*
X47561905Y-55868617D02*
X47523810Y-55906712D01*
X47523810Y-55906712D02*
X47485715Y-55982902D01*
X47485715Y-55982902D02*
X47485715Y-56211474D01*
X47485715Y-56211474D02*
X47523810Y-56287664D01*
X47523810Y-56287664D02*
X47561905Y-56325760D01*
X47561905Y-56325760D02*
X47638096Y-56363855D01*
X47638096Y-56363855D02*
X47752382Y-56363855D01*
X46571429Y-56325760D02*
X46457143Y-56363855D01*
X46457143Y-56363855D02*
X46266667Y-56363855D01*
X46266667Y-56363855D02*
X46190476Y-56325760D01*
X46190476Y-56325760D02*
X46152381Y-56287664D01*
X46152381Y-56287664D02*
X46114286Y-56211474D01*
X46114286Y-56211474D02*
X46114286Y-56135283D01*
X46114286Y-56135283D02*
X46152381Y-56059093D01*
X46152381Y-56059093D02*
X46190476Y-56020998D01*
X46190476Y-56020998D02*
X46266667Y-55982902D01*
X46266667Y-55982902D02*
X46419048Y-55944807D01*
X46419048Y-55944807D02*
X46495238Y-55906712D01*
X46495238Y-55906712D02*
X46533333Y-55868617D01*
X46533333Y-55868617D02*
X46571429Y-55792426D01*
X46571429Y-55792426D02*
X46571429Y-55716236D01*
X46571429Y-55716236D02*
X46533333Y-55640045D01*
X46533333Y-55640045D02*
X46495238Y-55601950D01*
X46495238Y-55601950D02*
X46419048Y-55563855D01*
X46419048Y-55563855D02*
X46228571Y-55563855D01*
X46228571Y-55563855D02*
X46114286Y-55601950D01*
X45466666Y-56325760D02*
X45542857Y-56363855D01*
X45542857Y-56363855D02*
X45695238Y-56363855D01*
X45695238Y-56363855D02*
X45771428Y-56325760D01*
X45771428Y-56325760D02*
X45809524Y-56249569D01*
X45809524Y-56249569D02*
X45809524Y-55944807D01*
X45809524Y-55944807D02*
X45771428Y-55868617D01*
X45771428Y-55868617D02*
X45695238Y-55830521D01*
X45695238Y-55830521D02*
X45542857Y-55830521D01*
X45542857Y-55830521D02*
X45466666Y-55868617D01*
X45466666Y-55868617D02*
X45428571Y-55944807D01*
X45428571Y-55944807D02*
X45428571Y-56020998D01*
X45428571Y-56020998D02*
X45809524Y-56097188D01*
X45200000Y-55830521D02*
X44895238Y-55830521D01*
X45085714Y-55563855D02*
X45085714Y-56249569D01*
X45085714Y-56249569D02*
X45047619Y-56325760D01*
X45047619Y-56325760D02*
X44971429Y-56363855D01*
X44971429Y-56363855D02*
X44895238Y-56363855D01*
X44742857Y-55830521D02*
X44438095Y-55830521D01*
X44628571Y-55563855D02*
X44628571Y-56249569D01*
X44628571Y-56249569D02*
X44590476Y-56325760D01*
X44590476Y-56325760D02*
X44514286Y-56363855D01*
X44514286Y-56363855D02*
X44438095Y-56363855D01*
X44171428Y-56363855D02*
X44171428Y-55830521D01*
X44171428Y-55563855D02*
X44209524Y-55601950D01*
X44209524Y-55601950D02*
X44171428Y-55640045D01*
X44171428Y-55640045D02*
X44133333Y-55601950D01*
X44133333Y-55601950D02*
X44171428Y-55563855D01*
X44171428Y-55563855D02*
X44171428Y-55640045D01*
X43790476Y-55830521D02*
X43790476Y-56363855D01*
X43790476Y-55906712D02*
X43752381Y-55868617D01*
X43752381Y-55868617D02*
X43676191Y-55830521D01*
X43676191Y-55830521D02*
X43561905Y-55830521D01*
X43561905Y-55830521D02*
X43485714Y-55868617D01*
X43485714Y-55868617D02*
X43447619Y-55944807D01*
X43447619Y-55944807D02*
X43447619Y-56363855D01*
X42723809Y-55830521D02*
X42723809Y-56478140D01*
X42723809Y-56478140D02*
X42761904Y-56554331D01*
X42761904Y-56554331D02*
X42800000Y-56592426D01*
X42800000Y-56592426D02*
X42876190Y-56630521D01*
X42876190Y-56630521D02*
X42990476Y-56630521D01*
X42990476Y-56630521D02*
X43066666Y-56592426D01*
X42723809Y-56325760D02*
X42800000Y-56363855D01*
X42800000Y-56363855D02*
X42952381Y-56363855D01*
X42952381Y-56363855D02*
X43028571Y-56325760D01*
X43028571Y-56325760D02*
X43066666Y-56287664D01*
X43066666Y-56287664D02*
X43104762Y-56211474D01*
X43104762Y-56211474D02*
X43104762Y-55982902D01*
X43104762Y-55982902D02*
X43066666Y-55906712D01*
X43066666Y-55906712D02*
X43028571Y-55868617D01*
X43028571Y-55868617D02*
X42952381Y-55830521D01*
X42952381Y-55830521D02*
X42800000Y-55830521D01*
X42800000Y-55830521D02*
X42723809Y-55868617D01*
X42380952Y-56325760D02*
X42304761Y-56363855D01*
X42304761Y-56363855D02*
X42152380Y-56363855D01*
X42152380Y-56363855D02*
X42076190Y-56325760D01*
X42076190Y-56325760D02*
X42038094Y-56249569D01*
X42038094Y-56249569D02*
X42038094Y-56211474D01*
X42038094Y-56211474D02*
X42076190Y-56135283D01*
X42076190Y-56135283D02*
X42152380Y-56097188D01*
X42152380Y-56097188D02*
X42266666Y-56097188D01*
X42266666Y-56097188D02*
X42342856Y-56059093D01*
X42342856Y-56059093D02*
X42380952Y-55982902D01*
X42380952Y-55982902D02*
X42380952Y-55944807D01*
X42380952Y-55944807D02*
X42342856Y-55868617D01*
X42342856Y-55868617D02*
X42266666Y-55830521D01*
X42266666Y-55830521D02*
X42152380Y-55830521D01*
X42152380Y-55830521D02*
X42076190Y-55868617D01*
X41085713Y-55830521D02*
X40476190Y-56059093D01*
X40476190Y-56059093D02*
X41085713Y-56287664D01*
X39485713Y-56363855D02*
X39485713Y-55563855D01*
X39485713Y-55563855D02*
X39219047Y-56135283D01*
X39219047Y-56135283D02*
X38952380Y-55563855D01*
X38952380Y-55563855D02*
X38952380Y-56363855D01*
X38457142Y-56363855D02*
X38533332Y-56325760D01*
X38533332Y-56325760D02*
X38571427Y-56287664D01*
X38571427Y-56287664D02*
X38609523Y-56211474D01*
X38609523Y-56211474D02*
X38609523Y-55982902D01*
X38609523Y-55982902D02*
X38571427Y-55906712D01*
X38571427Y-55906712D02*
X38533332Y-55868617D01*
X38533332Y-55868617D02*
X38457142Y-55830521D01*
X38457142Y-55830521D02*
X38342856Y-55830521D01*
X38342856Y-55830521D02*
X38266665Y-55868617D01*
X38266665Y-55868617D02*
X38228570Y-55906712D01*
X38228570Y-55906712D02*
X38190475Y-55982902D01*
X38190475Y-55982902D02*
X38190475Y-56211474D01*
X38190475Y-56211474D02*
X38228570Y-56287664D01*
X38228570Y-56287664D02*
X38266665Y-56325760D01*
X38266665Y-56325760D02*
X38342856Y-56363855D01*
X38342856Y-56363855D02*
X38457142Y-56363855D01*
X37504760Y-56363855D02*
X37504760Y-55563855D01*
X37504760Y-56325760D02*
X37580951Y-56363855D01*
X37580951Y-56363855D02*
X37733332Y-56363855D01*
X37733332Y-56363855D02*
X37809522Y-56325760D01*
X37809522Y-56325760D02*
X37847617Y-56287664D01*
X37847617Y-56287664D02*
X37885713Y-56211474D01*
X37885713Y-56211474D02*
X37885713Y-55982902D01*
X37885713Y-55982902D02*
X37847617Y-55906712D01*
X37847617Y-55906712D02*
X37809522Y-55868617D01*
X37809522Y-55868617D02*
X37733332Y-55830521D01*
X37733332Y-55830521D02*
X37580951Y-55830521D01*
X37580951Y-55830521D02*
X37504760Y-55868617D01*
X36780950Y-55830521D02*
X36780950Y-56363855D01*
X37123807Y-55830521D02*
X37123807Y-56249569D01*
X37123807Y-56249569D02*
X37085712Y-56325760D01*
X37085712Y-56325760D02*
X37009522Y-56363855D01*
X37009522Y-56363855D02*
X36895236Y-56363855D01*
X36895236Y-56363855D02*
X36819045Y-56325760D01*
X36819045Y-56325760D02*
X36780950Y-56287664D01*
X36285712Y-56363855D02*
X36361902Y-56325760D01*
X36361902Y-56325760D02*
X36399997Y-56249569D01*
X36399997Y-56249569D02*
X36399997Y-55563855D01*
X35676187Y-56325760D02*
X35752378Y-56363855D01*
X35752378Y-56363855D02*
X35904759Y-56363855D01*
X35904759Y-56363855D02*
X35980949Y-56325760D01*
X35980949Y-56325760D02*
X36019045Y-56249569D01*
X36019045Y-56249569D02*
X36019045Y-55944807D01*
X36019045Y-55944807D02*
X35980949Y-55868617D01*
X35980949Y-55868617D02*
X35904759Y-55830521D01*
X35904759Y-55830521D02*
X35752378Y-55830521D01*
X35752378Y-55830521D02*
X35676187Y-55868617D01*
X35676187Y-55868617D02*
X35638092Y-55944807D01*
X35638092Y-55944807D02*
X35638092Y-56020998D01*
X35638092Y-56020998D02*
X36019045Y-56097188D01*
X35295235Y-56287664D02*
X35257140Y-56325760D01*
X35257140Y-56325760D02*
X35295235Y-56363855D01*
X35295235Y-56363855D02*
X35333331Y-56325760D01*
X35333331Y-56325760D02*
X35295235Y-56287664D01*
X35295235Y-56287664D02*
X35295235Y-56363855D01*
X35295235Y-55868617D02*
X35257140Y-55906712D01*
X35257140Y-55906712D02*
X35295235Y-55944807D01*
X35295235Y-55944807D02*
X35333331Y-55906712D01*
X35333331Y-55906712D02*
X35295235Y-55868617D01*
X35295235Y-55868617D02*
X35295235Y-55944807D01*
X34304759Y-55944807D02*
X34038093Y-55944807D01*
X33923807Y-56363855D02*
X34304759Y-56363855D01*
X34304759Y-56363855D02*
X34304759Y-55563855D01*
X34304759Y-55563855D02*
X33923807Y-55563855D01*
X33657140Y-56363855D02*
X33238092Y-55830521D01*
X33657140Y-55830521D02*
X33238092Y-56363855D01*
X33047616Y-55830521D02*
X32742854Y-55830521D01*
X32933330Y-55563855D02*
X32933330Y-56249569D01*
X32933330Y-56249569D02*
X32895235Y-56325760D01*
X32895235Y-56325760D02*
X32819045Y-56363855D01*
X32819045Y-56363855D02*
X32742854Y-56363855D01*
X32171425Y-56325760D02*
X32247616Y-56363855D01*
X32247616Y-56363855D02*
X32399997Y-56363855D01*
X32399997Y-56363855D02*
X32476187Y-56325760D01*
X32476187Y-56325760D02*
X32514283Y-56249569D01*
X32514283Y-56249569D02*
X32514283Y-55944807D01*
X32514283Y-55944807D02*
X32476187Y-55868617D01*
X32476187Y-55868617D02*
X32399997Y-55830521D01*
X32399997Y-55830521D02*
X32247616Y-55830521D01*
X32247616Y-55830521D02*
X32171425Y-55868617D01*
X32171425Y-55868617D02*
X32133330Y-55944807D01*
X32133330Y-55944807D02*
X32133330Y-56020998D01*
X32133330Y-56020998D02*
X32514283Y-56097188D01*
X31790473Y-56363855D02*
X31790473Y-55830521D01*
X31790473Y-55982902D02*
X31752378Y-55906712D01*
X31752378Y-55906712D02*
X31714283Y-55868617D01*
X31714283Y-55868617D02*
X31638092Y-55830521D01*
X31638092Y-55830521D02*
X31561902Y-55830521D01*
X31295235Y-55830521D02*
X31295235Y-56363855D01*
X31295235Y-55906712D02*
X31257140Y-55868617D01*
X31257140Y-55868617D02*
X31180950Y-55830521D01*
X31180950Y-55830521D02*
X31066664Y-55830521D01*
X31066664Y-55830521D02*
X30990473Y-55868617D01*
X30990473Y-55868617D02*
X30952378Y-55944807D01*
X30952378Y-55944807D02*
X30952378Y-56363855D01*
X30228568Y-56363855D02*
X30228568Y-55944807D01*
X30228568Y-55944807D02*
X30266663Y-55868617D01*
X30266663Y-55868617D02*
X30342854Y-55830521D01*
X30342854Y-55830521D02*
X30495235Y-55830521D01*
X30495235Y-55830521D02*
X30571425Y-55868617D01*
X30228568Y-56325760D02*
X30304759Y-56363855D01*
X30304759Y-56363855D02*
X30495235Y-56363855D01*
X30495235Y-56363855D02*
X30571425Y-56325760D01*
X30571425Y-56325760D02*
X30609521Y-56249569D01*
X30609521Y-56249569D02*
X30609521Y-56173379D01*
X30609521Y-56173379D02*
X30571425Y-56097188D01*
X30571425Y-56097188D02*
X30495235Y-56059093D01*
X30495235Y-56059093D02*
X30304759Y-56059093D01*
X30304759Y-56059093D02*
X30228568Y-56020998D01*
X29733330Y-56363855D02*
X29809520Y-56325760D01*
X29809520Y-56325760D02*
X29847615Y-56249569D01*
X29847615Y-56249569D02*
X29847615Y-55563855D01*
X56895239Y-59325760D02*
X56819048Y-59363855D01*
X56819048Y-59363855D02*
X56666667Y-59363855D01*
X56666667Y-59363855D02*
X56590477Y-59325760D01*
X56590477Y-59325760D02*
X56552381Y-59249569D01*
X56552381Y-59249569D02*
X56552381Y-59211474D01*
X56552381Y-59211474D02*
X56590477Y-59135283D01*
X56590477Y-59135283D02*
X56666667Y-59097188D01*
X56666667Y-59097188D02*
X56780953Y-59097188D01*
X56780953Y-59097188D02*
X56857143Y-59059093D01*
X56857143Y-59059093D02*
X56895239Y-58982902D01*
X56895239Y-58982902D02*
X56895239Y-58944807D01*
X56895239Y-58944807D02*
X56857143Y-58868617D01*
X56857143Y-58868617D02*
X56780953Y-58830521D01*
X56780953Y-58830521D02*
X56666667Y-58830521D01*
X56666667Y-58830521D02*
X56590477Y-58868617D01*
X55866667Y-59363855D02*
X55866667Y-58944807D01*
X55866667Y-58944807D02*
X55904762Y-58868617D01*
X55904762Y-58868617D02*
X55980953Y-58830521D01*
X55980953Y-58830521D02*
X56133334Y-58830521D01*
X56133334Y-58830521D02*
X56209524Y-58868617D01*
X55866667Y-59325760D02*
X55942858Y-59363855D01*
X55942858Y-59363855D02*
X56133334Y-59363855D01*
X56133334Y-59363855D02*
X56209524Y-59325760D01*
X56209524Y-59325760D02*
X56247620Y-59249569D01*
X56247620Y-59249569D02*
X56247620Y-59173379D01*
X56247620Y-59173379D02*
X56209524Y-59097188D01*
X56209524Y-59097188D02*
X56133334Y-59059093D01*
X56133334Y-59059093D02*
X55942858Y-59059093D01*
X55942858Y-59059093D02*
X55866667Y-59020998D01*
X55180952Y-59325760D02*
X55257143Y-59363855D01*
X55257143Y-59363855D02*
X55409524Y-59363855D01*
X55409524Y-59363855D02*
X55485714Y-59325760D01*
X55485714Y-59325760D02*
X55523810Y-59249569D01*
X55523810Y-59249569D02*
X55523810Y-58944807D01*
X55523810Y-58944807D02*
X55485714Y-58868617D01*
X55485714Y-58868617D02*
X55409524Y-58830521D01*
X55409524Y-58830521D02*
X55257143Y-58830521D01*
X55257143Y-58830521D02*
X55180952Y-58868617D01*
X55180952Y-58868617D02*
X55142857Y-58944807D01*
X55142857Y-58944807D02*
X55142857Y-59020998D01*
X55142857Y-59020998D02*
X55523810Y-59097188D01*
X54800000Y-59363855D02*
X54800000Y-58830521D01*
X54800000Y-58982902D02*
X54761905Y-58906712D01*
X54761905Y-58906712D02*
X54723810Y-58868617D01*
X54723810Y-58868617D02*
X54647619Y-58830521D01*
X54647619Y-58830521D02*
X54571429Y-58830521D01*
X54000000Y-59325760D02*
X54076191Y-59363855D01*
X54076191Y-59363855D02*
X54228572Y-59363855D01*
X54228572Y-59363855D02*
X54304762Y-59325760D01*
X54304762Y-59325760D02*
X54342858Y-59249569D01*
X54342858Y-59249569D02*
X54342858Y-58944807D01*
X54342858Y-58944807D02*
X54304762Y-58868617D01*
X54304762Y-58868617D02*
X54228572Y-58830521D01*
X54228572Y-58830521D02*
X54076191Y-58830521D01*
X54076191Y-58830521D02*
X54000000Y-58868617D01*
X54000000Y-58868617D02*
X53961905Y-58944807D01*
X53961905Y-58944807D02*
X53961905Y-59020998D01*
X53961905Y-59020998D02*
X54342858Y-59097188D01*
X53695239Y-58830521D02*
X53504763Y-59363855D01*
X53314286Y-58830521D02*
X53504763Y-59363855D01*
X53504763Y-59363855D02*
X53580953Y-59554331D01*
X53580953Y-59554331D02*
X53619048Y-59592426D01*
X53619048Y-59592426D02*
X53695239Y-59630521D01*
X52666667Y-59363855D02*
X52666667Y-58944807D01*
X52666667Y-58944807D02*
X52704762Y-58868617D01*
X52704762Y-58868617D02*
X52780953Y-58830521D01*
X52780953Y-58830521D02*
X52933334Y-58830521D01*
X52933334Y-58830521D02*
X53009524Y-58868617D01*
X52666667Y-59325760D02*
X52742858Y-59363855D01*
X52742858Y-59363855D02*
X52933334Y-59363855D01*
X52933334Y-59363855D02*
X53009524Y-59325760D01*
X53009524Y-59325760D02*
X53047620Y-59249569D01*
X53047620Y-59249569D02*
X53047620Y-59173379D01*
X53047620Y-59173379D02*
X53009524Y-59097188D01*
X53009524Y-59097188D02*
X52933334Y-59059093D01*
X52933334Y-59059093D02*
X52742858Y-59059093D01*
X52742858Y-59059093D02*
X52666667Y-59020998D01*
X51714286Y-58525760D02*
X52400000Y-59554331D01*
X51180953Y-58944807D02*
X51447619Y-58944807D01*
X51447619Y-59363855D02*
X51447619Y-58563855D01*
X51447619Y-58563855D02*
X51066667Y-58563855D01*
X50647620Y-59363855D02*
X50723810Y-59325760D01*
X50723810Y-59325760D02*
X50761905Y-59249569D01*
X50761905Y-59249569D02*
X50761905Y-58563855D01*
X50342857Y-59363855D02*
X50342857Y-58830521D01*
X50342857Y-58563855D02*
X50380953Y-58601950D01*
X50380953Y-58601950D02*
X50342857Y-58640045D01*
X50342857Y-58640045D02*
X50304762Y-58601950D01*
X50304762Y-58601950D02*
X50342857Y-58563855D01*
X50342857Y-58563855D02*
X50342857Y-58640045D01*
X49961905Y-58830521D02*
X49961905Y-59630521D01*
X49961905Y-58868617D02*
X49885715Y-58830521D01*
X49885715Y-58830521D02*
X49733334Y-58830521D01*
X49733334Y-58830521D02*
X49657143Y-58868617D01*
X49657143Y-58868617D02*
X49619048Y-58906712D01*
X49619048Y-58906712D02*
X49580953Y-58982902D01*
X49580953Y-58982902D02*
X49580953Y-59211474D01*
X49580953Y-59211474D02*
X49619048Y-59287664D01*
X49619048Y-59287664D02*
X49657143Y-59325760D01*
X49657143Y-59325760D02*
X49733334Y-59363855D01*
X49733334Y-59363855D02*
X49885715Y-59363855D01*
X49885715Y-59363855D02*
X49961905Y-59325760D01*
X49238095Y-58830521D02*
X49238095Y-59630521D01*
X49238095Y-58868617D02*
X49161905Y-58830521D01*
X49161905Y-58830521D02*
X49009524Y-58830521D01*
X49009524Y-58830521D02*
X48933333Y-58868617D01*
X48933333Y-58868617D02*
X48895238Y-58906712D01*
X48895238Y-58906712D02*
X48857143Y-58982902D01*
X48857143Y-58982902D02*
X48857143Y-59211474D01*
X48857143Y-59211474D02*
X48895238Y-59287664D01*
X48895238Y-59287664D02*
X48933333Y-59325760D01*
X48933333Y-59325760D02*
X49009524Y-59363855D01*
X49009524Y-59363855D02*
X49161905Y-59363855D01*
X49161905Y-59363855D02*
X49238095Y-59325760D01*
X48209523Y-59325760D02*
X48285714Y-59363855D01*
X48285714Y-59363855D02*
X48438095Y-59363855D01*
X48438095Y-59363855D02*
X48514285Y-59325760D01*
X48514285Y-59325760D02*
X48552381Y-59249569D01*
X48552381Y-59249569D02*
X48552381Y-58944807D01*
X48552381Y-58944807D02*
X48514285Y-58868617D01*
X48514285Y-58868617D02*
X48438095Y-58830521D01*
X48438095Y-58830521D02*
X48285714Y-58830521D01*
X48285714Y-58830521D02*
X48209523Y-58868617D01*
X48209523Y-58868617D02*
X48171428Y-58944807D01*
X48171428Y-58944807D02*
X48171428Y-59020998D01*
X48171428Y-59020998D02*
X48552381Y-59097188D01*
X47828571Y-59363855D02*
X47828571Y-58830521D01*
X47828571Y-58982902D02*
X47790476Y-58906712D01*
X47790476Y-58906712D02*
X47752381Y-58868617D01*
X47752381Y-58868617D02*
X47676190Y-58830521D01*
X47676190Y-58830521D02*
X47600000Y-58830521D01*
X47333333Y-59059093D02*
X46723810Y-59059093D01*
X46419048Y-58563855D02*
X45885714Y-58563855D01*
X45885714Y-58563855D02*
X46419048Y-59363855D01*
X46419048Y-59363855D02*
X45885714Y-59363855D01*
X45276190Y-59325760D02*
X45352381Y-59363855D01*
X45352381Y-59363855D02*
X45504762Y-59363855D01*
X45504762Y-59363855D02*
X45580952Y-59325760D01*
X45580952Y-59325760D02*
X45619048Y-59249569D01*
X45619048Y-59249569D02*
X45619048Y-58944807D01*
X45619048Y-58944807D02*
X45580952Y-58868617D01*
X45580952Y-58868617D02*
X45504762Y-58830521D01*
X45504762Y-58830521D02*
X45352381Y-58830521D01*
X45352381Y-58830521D02*
X45276190Y-58868617D01*
X45276190Y-58868617D02*
X45238095Y-58944807D01*
X45238095Y-58944807D02*
X45238095Y-59020998D01*
X45238095Y-59020998D02*
X45619048Y-59097188D01*
X44895238Y-59363855D02*
X44895238Y-58830521D01*
X44895238Y-58982902D02*
X44857143Y-58906712D01*
X44857143Y-58906712D02*
X44819048Y-58868617D01*
X44819048Y-58868617D02*
X44742857Y-58830521D01*
X44742857Y-58830521D02*
X44666667Y-58830521D01*
X44285715Y-59363855D02*
X44361905Y-59325760D01*
X44361905Y-59325760D02*
X44400000Y-59287664D01*
X44400000Y-59287664D02*
X44438096Y-59211474D01*
X44438096Y-59211474D02*
X44438096Y-58982902D01*
X44438096Y-58982902D02*
X44400000Y-58906712D01*
X44400000Y-58906712D02*
X44361905Y-58868617D01*
X44361905Y-58868617D02*
X44285715Y-58830521D01*
X44285715Y-58830521D02*
X44171429Y-58830521D01*
X44171429Y-58830521D02*
X44095238Y-58868617D01*
X44095238Y-58868617D02*
X44057143Y-58906712D01*
X44057143Y-58906712D02*
X44019048Y-58982902D01*
X44019048Y-58982902D02*
X44019048Y-59211474D01*
X44019048Y-59211474D02*
X44057143Y-59287664D01*
X44057143Y-59287664D02*
X44095238Y-59325760D01*
X44095238Y-59325760D02*
X44171429Y-59363855D01*
X44171429Y-59363855D02*
X44285715Y-59363855D01*
X43676190Y-59059093D02*
X43066667Y-59059093D01*
X42228571Y-59287664D02*
X42266667Y-59325760D01*
X42266667Y-59325760D02*
X42380952Y-59363855D01*
X42380952Y-59363855D02*
X42457143Y-59363855D01*
X42457143Y-59363855D02*
X42571429Y-59325760D01*
X42571429Y-59325760D02*
X42647619Y-59249569D01*
X42647619Y-59249569D02*
X42685714Y-59173379D01*
X42685714Y-59173379D02*
X42723810Y-59020998D01*
X42723810Y-59020998D02*
X42723810Y-58906712D01*
X42723810Y-58906712D02*
X42685714Y-58754331D01*
X42685714Y-58754331D02*
X42647619Y-58678140D01*
X42647619Y-58678140D02*
X42571429Y-58601950D01*
X42571429Y-58601950D02*
X42457143Y-58563855D01*
X42457143Y-58563855D02*
X42380952Y-58563855D01*
X42380952Y-58563855D02*
X42266667Y-58601950D01*
X42266667Y-58601950D02*
X42228571Y-58640045D01*
X41428571Y-59287664D02*
X41466667Y-59325760D01*
X41466667Y-59325760D02*
X41580952Y-59363855D01*
X41580952Y-59363855D02*
X41657143Y-59363855D01*
X41657143Y-59363855D02*
X41771429Y-59325760D01*
X41771429Y-59325760D02*
X41847619Y-59249569D01*
X41847619Y-59249569D02*
X41885714Y-59173379D01*
X41885714Y-59173379D02*
X41923810Y-59020998D01*
X41923810Y-59020998D02*
X41923810Y-58906712D01*
X41923810Y-58906712D02*
X41885714Y-58754331D01*
X41885714Y-58754331D02*
X41847619Y-58678140D01*
X41847619Y-58678140D02*
X41771429Y-58601950D01*
X41771429Y-58601950D02*
X41657143Y-58563855D01*
X41657143Y-58563855D02*
X41580952Y-58563855D01*
X41580952Y-58563855D02*
X41466667Y-58601950D01*
X41466667Y-58601950D02*
X41428571Y-58640045D01*
X40666667Y-59363855D02*
X41123810Y-59363855D01*
X40895238Y-59363855D02*
X40895238Y-58563855D01*
X40895238Y-58563855D02*
X40971429Y-58678140D01*
X40971429Y-58678140D02*
X41047619Y-58754331D01*
X41047619Y-58754331D02*
X41123810Y-58792426D01*
X39904762Y-59363855D02*
X40361905Y-59363855D01*
X40133333Y-59363855D02*
X40133333Y-58563855D01*
X40133333Y-58563855D02*
X40209524Y-58678140D01*
X40209524Y-58678140D02*
X40285714Y-58754331D01*
X40285714Y-58754331D02*
X40361905Y-58792426D01*
X39409523Y-58563855D02*
X39333333Y-58563855D01*
X39333333Y-58563855D02*
X39257142Y-58601950D01*
X39257142Y-58601950D02*
X39219047Y-58640045D01*
X39219047Y-58640045D02*
X39180952Y-58716236D01*
X39180952Y-58716236D02*
X39142857Y-58868617D01*
X39142857Y-58868617D02*
X39142857Y-59059093D01*
X39142857Y-59059093D02*
X39180952Y-59211474D01*
X39180952Y-59211474D02*
X39219047Y-59287664D01*
X39219047Y-59287664D02*
X39257142Y-59325760D01*
X39257142Y-59325760D02*
X39333333Y-59363855D01*
X39333333Y-59363855D02*
X39409523Y-59363855D01*
X39409523Y-59363855D02*
X39485714Y-59325760D01*
X39485714Y-59325760D02*
X39523809Y-59287664D01*
X39523809Y-59287664D02*
X39561904Y-59211474D01*
X39561904Y-59211474D02*
X39600000Y-59059093D01*
X39600000Y-59059093D02*
X39600000Y-58868617D01*
X39600000Y-58868617D02*
X39561904Y-58716236D01*
X39561904Y-58716236D02*
X39523809Y-58640045D01*
X39523809Y-58640045D02*
X39485714Y-58601950D01*
X39485714Y-58601950D02*
X39409523Y-58563855D01*
X38380952Y-59363855D02*
X38838095Y-59363855D01*
X38609523Y-59363855D02*
X38609523Y-58563855D01*
X38609523Y-58563855D02*
X38685714Y-58678140D01*
X38685714Y-58678140D02*
X38761904Y-58754331D01*
X38761904Y-58754331D02*
X38838095Y-58792426D01*
X38038094Y-59059093D02*
X37428571Y-59059093D01*
X37047618Y-58944807D02*
X36780952Y-58944807D01*
X36666666Y-59363855D02*
X37047618Y-59363855D01*
X37047618Y-59363855D02*
X37047618Y-58563855D01*
X37047618Y-58563855D02*
X36666666Y-58563855D01*
X36399999Y-59363855D02*
X35980951Y-58830521D01*
X36399999Y-58830521D02*
X35980951Y-59363855D01*
X35790475Y-58830521D02*
X35485713Y-58830521D01*
X35676189Y-58563855D02*
X35676189Y-59249569D01*
X35676189Y-59249569D02*
X35638094Y-59325760D01*
X35638094Y-59325760D02*
X35561904Y-59363855D01*
X35561904Y-59363855D02*
X35485713Y-59363855D01*
X35219046Y-59059093D02*
X34609523Y-59059093D01*
X33961904Y-58944807D02*
X33847618Y-58982902D01*
X33847618Y-58982902D02*
X33809523Y-59020998D01*
X33809523Y-59020998D02*
X33771427Y-59097188D01*
X33771427Y-59097188D02*
X33771427Y-59211474D01*
X33771427Y-59211474D02*
X33809523Y-59287664D01*
X33809523Y-59287664D02*
X33847618Y-59325760D01*
X33847618Y-59325760D02*
X33923808Y-59363855D01*
X33923808Y-59363855D02*
X34228570Y-59363855D01*
X34228570Y-59363855D02*
X34228570Y-58563855D01*
X34228570Y-58563855D02*
X33961904Y-58563855D01*
X33961904Y-58563855D02*
X33885713Y-58601950D01*
X33885713Y-58601950D02*
X33847618Y-58640045D01*
X33847618Y-58640045D02*
X33809523Y-58716236D01*
X33809523Y-58716236D02*
X33809523Y-58792426D01*
X33809523Y-58792426D02*
X33847618Y-58868617D01*
X33847618Y-58868617D02*
X33885713Y-58906712D01*
X33885713Y-58906712D02*
X33961904Y-58944807D01*
X33961904Y-58944807D02*
X34228570Y-58944807D01*
X33314285Y-59363855D02*
X33390475Y-59325760D01*
X33390475Y-59325760D02*
X33428570Y-59287664D01*
X33428570Y-59287664D02*
X33466666Y-59211474D01*
X33466666Y-59211474D02*
X33466666Y-58982902D01*
X33466666Y-58982902D02*
X33428570Y-58906712D01*
X33428570Y-58906712D02*
X33390475Y-58868617D01*
X33390475Y-58868617D02*
X33314285Y-58830521D01*
X33314285Y-58830521D02*
X33199999Y-58830521D01*
X33199999Y-58830521D02*
X33123808Y-58868617D01*
X33123808Y-58868617D02*
X33085713Y-58906712D01*
X33085713Y-58906712D02*
X33047618Y-58982902D01*
X33047618Y-58982902D02*
X33047618Y-59211474D01*
X33047618Y-59211474D02*
X33085713Y-59287664D01*
X33085713Y-59287664D02*
X33123808Y-59325760D01*
X33123808Y-59325760D02*
X33199999Y-59363855D01*
X33199999Y-59363855D02*
X33314285Y-59363855D01*
X32361903Y-59363855D02*
X32361903Y-58944807D01*
X32361903Y-58944807D02*
X32399998Y-58868617D01*
X32399998Y-58868617D02*
X32476189Y-58830521D01*
X32476189Y-58830521D02*
X32628570Y-58830521D01*
X32628570Y-58830521D02*
X32704760Y-58868617D01*
X32361903Y-59325760D02*
X32438094Y-59363855D01*
X32438094Y-59363855D02*
X32628570Y-59363855D01*
X32628570Y-59363855D02*
X32704760Y-59325760D01*
X32704760Y-59325760D02*
X32742856Y-59249569D01*
X32742856Y-59249569D02*
X32742856Y-59173379D01*
X32742856Y-59173379D02*
X32704760Y-59097188D01*
X32704760Y-59097188D02*
X32628570Y-59059093D01*
X32628570Y-59059093D02*
X32438094Y-59059093D01*
X32438094Y-59059093D02*
X32361903Y-59020998D01*
X31980950Y-59363855D02*
X31980950Y-58830521D01*
X31980950Y-58982902D02*
X31942855Y-58906712D01*
X31942855Y-58906712D02*
X31904760Y-58868617D01*
X31904760Y-58868617D02*
X31828569Y-58830521D01*
X31828569Y-58830521D02*
X31752379Y-58830521D01*
X31142855Y-59363855D02*
X31142855Y-58563855D01*
X31142855Y-59325760D02*
X31219046Y-59363855D01*
X31219046Y-59363855D02*
X31371427Y-59363855D01*
X31371427Y-59363855D02*
X31447617Y-59325760D01*
X31447617Y-59325760D02*
X31485712Y-59287664D01*
X31485712Y-59287664D02*
X31523808Y-59211474D01*
X31523808Y-59211474D02*
X31523808Y-58982902D01*
X31523808Y-58982902D02*
X31485712Y-58906712D01*
X31485712Y-58906712D02*
X31447617Y-58868617D01*
X31447617Y-58868617D02*
X31371427Y-58830521D01*
X31371427Y-58830521D02*
X31219046Y-58830521D01*
X31219046Y-58830521D02*
X31142855Y-58868617D01*
%TO.C,J1*%
X28710000Y-68710000D02*
X28710000Y-69980000D01*
X28820000Y-71290000D02*
X48920000Y-71290000D01*
X28820000Y-73300000D02*
X28820000Y-71290000D01*
X29980000Y-68710000D02*
X28710000Y-68710000D01*
X31230000Y-71290000D02*
X31230000Y-73300000D01*
X33770000Y-71290000D02*
X33770000Y-73300000D01*
X36310000Y-71290000D02*
X36310000Y-73300000D01*
X38850000Y-71290000D02*
X38850000Y-73300000D01*
X41390000Y-71290000D02*
X41390000Y-73300000D01*
X43930000Y-71290000D02*
X43930000Y-73300000D01*
X46470000Y-71290000D02*
X46470000Y-73300000D01*
X48920000Y-71290000D02*
X48920000Y-73300000D01*
X48920000Y-73300000D02*
X28820000Y-73300000D01*
X64270000Y-68710000D02*
X64270000Y-69980000D01*
X64380000Y-71290000D02*
X89470000Y-71290000D01*
X64380000Y-73300000D02*
X64380000Y-71290000D01*
X65540000Y-68710000D02*
X64270000Y-68710000D01*
X66790000Y-71290000D02*
X66790000Y-73300000D01*
X69330000Y-71290000D02*
X69330000Y-73300000D01*
X71870000Y-71290000D02*
X71870000Y-73300000D01*
X74410000Y-71290000D02*
X74410000Y-73300000D01*
X76950000Y-71290000D02*
X76950000Y-73300000D01*
X79490000Y-71290000D02*
X79490000Y-73300000D01*
X82030000Y-71290000D02*
X82030000Y-73300000D01*
X84480000Y-71290000D02*
X84480000Y-73300000D01*
X87020000Y-71290000D02*
X87020000Y-73300000D01*
X89470000Y-71290000D02*
X89470000Y-73300000D01*
X89470000Y-73300000D02*
X64380000Y-73300000D01*
%TD*%
M02*
