M48
; DRILL file KiCad 10.0.6 date 2026-09-05T21:59:18
; FORMAT={-:-/ absolute / metric / decimal}
; #@! TF.CreationDate,2026-09-05T21:59:18+01:00
; #@! TF.GenerationSoftware,Kicad,Pcbnew,10.0.6
; #@! TF.FileFunction,MixedPlating,1,2
FMAT,2
METRIC
; #@! TA.AperFunction,Plated,PTH,ViaDrill
T1C0.400
; #@! TA.AperFunction,Plated,PTH,ComponentDrill
T2C1.000
%
G90
G05
T1
X33.81Y-61.5
X36.9Y-58.0
X38.89Y-61.5
X43.0Y-57.2
X43.97Y-61.5
X44.0Y-50.5
X46.3Y-59.0
X47.6Y-64.5
X52.0Y-57.9
X53.0Y-69.5
X56.5Y-60.0
X59.5Y-45.5
X60.0Y-66.0
X87.0Y-68.5
X88.0Y-50.0
X88.0Y-62.5
T2
X30.0Y-70.0
X32.54Y-70.0
X33.02Y-45.72
X33.02Y-48.26
X35.08Y-70.0
X35.56Y-45.72
X35.56Y-48.26
X37.62Y-70.0
X38.1Y-45.72
X38.1Y-48.26
X40.16Y-70.0
X40.64Y-45.72
X40.64Y-48.26
X42.7Y-70.0
X45.24Y-70.0
X47.78Y-70.0
X63.02Y-44.6
X63.02Y-47.14
X63.02Y-49.68
X63.02Y-52.22
X63.02Y-54.76
X63.02Y-57.3
X63.02Y-59.84
X65.56Y-44.6
X65.56Y-47.14
X65.56Y-49.68
X65.56Y-52.22
X65.56Y-54.76
X65.56Y-57.3
X65.56Y-59.84
X65.56Y-70.0
X67.0Y-64.92
X68.1Y-44.6
X68.1Y-47.14
X68.1Y-49.68
X68.1Y-52.22
X68.1Y-54.76
X68.1Y-57.3
X68.1Y-59.84
X68.1Y-70.0
X69.54Y-64.92
X70.64Y-44.6
X70.64Y-47.14
X70.64Y-49.68
X70.64Y-52.22
X70.64Y-54.76
X70.64Y-57.3
X70.64Y-59.84
X70.64Y-70.0
X72.08Y-64.92
X73.18Y-44.6
X73.18Y-47.14
X73.18Y-49.68
X73.18Y-52.22
X73.18Y-54.76
X73.18Y-57.3
X73.18Y-59.84
X73.18Y-70.0
X74.62Y-64.92
X75.72Y-44.6
X75.72Y-47.14
X75.72Y-49.68
X75.72Y-52.22
X75.72Y-54.76
X75.72Y-57.3
X75.72Y-59.84
X75.72Y-70.0
X77.16Y-64.92
X78.26Y-44.6
X78.26Y-47.14
X78.26Y-49.68
X78.26Y-52.22
X78.26Y-54.76
X78.26Y-57.3
X78.26Y-59.84
X78.26Y-70.0
X79.7Y-64.92
X80.8Y-44.6
X80.8Y-47.14
X80.8Y-49.68
X80.8Y-52.22
X80.8Y-54.76
X80.8Y-57.3
X80.8Y-59.84
X80.8Y-70.0
X82.24Y-64.92
X83.34Y-44.6
X83.34Y-47.14
X83.34Y-49.68
X83.34Y-52.22
X83.34Y-54.76
X83.34Y-57.3
X83.34Y-59.84
X83.34Y-70.0
X84.78Y-64.92
X85.88Y-44.6
X85.88Y-47.14
X85.88Y-49.68
X85.88Y-52.22
X85.88Y-54.76
X85.88Y-57.3
X85.88Y-59.84
X85.88Y-70.0
X87.32Y-64.92
X88.42Y-70.0
M30
