%TF.GenerationSoftware,KiCad,Pcbnew,10.0.6*%
%TF.CreationDate,2026-09-05T21:59:17+01:00*%
%TF.ProjectId,CC1101ExtBoardV2,43433131-3031-4457-9874-426f61726456,rev?*%
%TF.SameCoordinates,Original*%
%TF.FileFunction,Other,User*%
%FSLAX46Y46*%
G04 Gerber Fmt 4.6, Leading zero omitted, Abs format (unit mm)*
G04 Created by KiCad (PCBNEW 10.0.6) date 2026-09-05 21:59:17*
%MOMM*%
%LPD*%
G01*
G04 APERTURE LIST*
%ADD10C,0.050000*%
G04 APERTURE END LIST*
%TO.C,J1*%
D10*
X28180000Y-68180000D02*
X49530000Y-68180000D01*
X28180000Y-73840000D02*
X28180000Y-68180000D01*
X49530000Y-68180000D02*
X49530000Y-73840000D01*
X49530000Y-73840000D02*
X28180000Y-73840000D01*
X63740000Y-68180000D02*
X90120000Y-68180000D01*
X63740000Y-73840000D02*
X63740000Y-68180000D01*
X90120000Y-68180000D02*
X90120000Y-73840000D01*
X90120000Y-73840000D02*
X63740000Y-73840000D01*
%TO.C,C3*%
X46020000Y-41660000D02*
X47980000Y-41660000D01*
X47980000Y-45420000D01*
X46020000Y-45420000D01*
X46020000Y-41660000D01*
%TO.C,J3*%
X60230000Y-42450000D02*
X88670000Y-42450000D01*
X60230000Y-61990000D02*
X60230000Y-42450000D01*
X88670000Y-42450000D02*
X88670000Y-61990000D01*
X88670000Y-61990000D02*
X60230000Y-61990000D01*
%TO.C,R1*%
X57050000Y-60150000D02*
X58950000Y-60150000D01*
X58950000Y-63850000D01*
X57050000Y-63850000D01*
X57050000Y-60150000D01*
%TO.C,C4*%
X43520000Y-41660000D02*
X45480000Y-41660000D01*
X45480000Y-45420000D01*
X43520000Y-45420000D01*
X43520000Y-41660000D01*
%TO.C,J2*%
X31250000Y-43950000D02*
X42410000Y-43950000D01*
X31250000Y-50030000D02*
X31250000Y-43950000D01*
X42410000Y-43950000D02*
X42410000Y-50030000D01*
X42410000Y-50030000D02*
X31250000Y-50030000D01*
%TO.C,D4*%
X42170000Y-62200000D02*
X45770000Y-62200000D01*
X42170000Y-67000000D02*
X42170000Y-62200000D01*
X45770000Y-62200000D02*
X45770000Y-67000000D01*
X45770000Y-67000000D02*
X42170000Y-67000000D01*
%TO.C,C2*%
X51020000Y-60120000D02*
X52980000Y-60120000D01*
X52980000Y-63880000D01*
X51020000Y-63880000D01*
X51020000Y-60120000D01*
%TO.C,D5*%
X57050000Y-55650000D02*
X58950000Y-55650000D01*
X58950000Y-59350000D01*
X57050000Y-59350000D01*
X57050000Y-55650000D01*
%TO.C,FB1*%
X48150000Y-60070000D02*
X49850000Y-60070000D01*
X49850000Y-63930000D01*
X48150000Y-63930000D01*
X48150000Y-60070000D01*
%TO.C,D2*%
X32010000Y-62200000D02*
X35610000Y-62200000D01*
X32010000Y-67000000D02*
X32010000Y-62200000D01*
X35610000Y-62200000D02*
X35610000Y-67000000D01*
X35610000Y-67000000D02*
X32010000Y-67000000D01*
%TO.C,D1*%
X54300000Y-65850000D02*
X54300000Y-68150000D01*
X54300000Y-65850000D02*
X59000000Y-65850000D01*
X59000000Y-65850000D02*
X59000000Y-68150000D01*
X59000000Y-68150000D02*
X54300000Y-68150000D01*
%TO.C,D3*%
X37090000Y-62200000D02*
X40690000Y-62200000D01*
X37090000Y-67000000D02*
X37090000Y-62200000D01*
X40690000Y-62200000D02*
X40690000Y-67000000D01*
X40690000Y-67000000D02*
X37090000Y-67000000D01*
%TO.C,C1*%
X54020000Y-60120000D02*
X55980000Y-60120000D01*
X55980000Y-63880000D01*
X54020000Y-63880000D01*
X54020000Y-60120000D01*
%TO.C,J4*%
X65230000Y-63150000D02*
X89090000Y-63150000D01*
X89090000Y-66690000D01*
X65230000Y-66690000D01*
X65230000Y-63150000D01*
%TD*%
M02*
