%TF.GenerationSoftware,KiCad,Pcbnew,10.0.6*%
%TF.CreationDate,2026-09-05T21:59:17+01:00*%
%TF.ProjectId,CC1101ExtBoardV2,43433131-3031-4457-9874-426f61726456,rev?*%
%TF.SameCoordinates,Original*%
%TF.FileFunction,AssemblyDrawing,Top*%
%FSLAX46Y46*%
G04 Gerber Fmt 4.6, Leading zero omitted, Abs format (unit mm)*
G04 Created by KiCad (PCBNEW 10.0.6) date 2026-09-05 21:59:17*
%MOMM*%
%LPD*%
G01*
G04 APERTURE LIST*
%ADD10C,0.080000*%
%ADD11C,0.150000*%
%ADD12C,0.075000*%
%ADD13C,0.100000*%
G04 APERTURE END LIST*
D10*
X46916666Y-43719530D02*
X46892857Y-43743340D01*
X46892857Y-43743340D02*
X46821428Y-43767149D01*
X46821428Y-43767149D02*
X46773809Y-43767149D01*
X46773809Y-43767149D02*
X46702381Y-43743340D01*
X46702381Y-43743340D02*
X46654762Y-43695720D01*
X46654762Y-43695720D02*
X46630952Y-43648101D01*
X46630952Y-43648101D02*
X46607143Y-43552863D01*
X46607143Y-43552863D02*
X46607143Y-43481435D01*
X46607143Y-43481435D02*
X46630952Y-43386197D01*
X46630952Y-43386197D02*
X46654762Y-43338578D01*
X46654762Y-43338578D02*
X46702381Y-43290959D01*
X46702381Y-43290959D02*
X46773809Y-43267149D01*
X46773809Y-43267149D02*
X46821428Y-43267149D01*
X46821428Y-43267149D02*
X46892857Y-43290959D01*
X46892857Y-43290959D02*
X46916666Y-43314768D01*
X47083333Y-43267149D02*
X47392857Y-43267149D01*
X47392857Y-43267149D02*
X47226190Y-43457625D01*
X47226190Y-43457625D02*
X47297619Y-43457625D01*
X47297619Y-43457625D02*
X47345238Y-43481435D01*
X47345238Y-43481435D02*
X47369047Y-43505244D01*
X47369047Y-43505244D02*
X47392857Y-43552863D01*
X47392857Y-43552863D02*
X47392857Y-43671911D01*
X47392857Y-43671911D02*
X47369047Y-43719530D01*
X47369047Y-43719530D02*
X47345238Y-43743340D01*
X47345238Y-43743340D02*
X47297619Y-43767149D01*
X47297619Y-43767149D02*
X47154762Y-43767149D01*
X47154762Y-43767149D02*
X47107143Y-43743340D01*
X47107143Y-43743340D02*
X47083333Y-43719530D01*
X57916666Y-62227149D02*
X57750000Y-61989054D01*
X57630952Y-62227149D02*
X57630952Y-61727149D01*
X57630952Y-61727149D02*
X57821428Y-61727149D01*
X57821428Y-61727149D02*
X57869047Y-61750959D01*
X57869047Y-61750959D02*
X57892857Y-61774768D01*
X57892857Y-61774768D02*
X57916666Y-61822387D01*
X57916666Y-61822387D02*
X57916666Y-61893816D01*
X57916666Y-61893816D02*
X57892857Y-61941435D01*
X57892857Y-61941435D02*
X57869047Y-61965244D01*
X57869047Y-61965244D02*
X57821428Y-61989054D01*
X57821428Y-61989054D02*
X57630952Y-61989054D01*
X58392857Y-62227149D02*
X58107143Y-62227149D01*
X58250000Y-62227149D02*
X58250000Y-61727149D01*
X58250000Y-61727149D02*
X58202381Y-61798578D01*
X58202381Y-61798578D02*
X58154762Y-61846197D01*
X58154762Y-61846197D02*
X58107143Y-61870006D01*
X44416666Y-43719530D02*
X44392857Y-43743340D01*
X44392857Y-43743340D02*
X44321428Y-43767149D01*
X44321428Y-43767149D02*
X44273809Y-43767149D01*
X44273809Y-43767149D02*
X44202381Y-43743340D01*
X44202381Y-43743340D02*
X44154762Y-43695720D01*
X44154762Y-43695720D02*
X44130952Y-43648101D01*
X44130952Y-43648101D02*
X44107143Y-43552863D01*
X44107143Y-43552863D02*
X44107143Y-43481435D01*
X44107143Y-43481435D02*
X44130952Y-43386197D01*
X44130952Y-43386197D02*
X44154762Y-43338578D01*
X44154762Y-43338578D02*
X44202381Y-43290959D01*
X44202381Y-43290959D02*
X44273809Y-43267149D01*
X44273809Y-43267149D02*
X44321428Y-43267149D01*
X44321428Y-43267149D02*
X44392857Y-43290959D01*
X44392857Y-43290959D02*
X44416666Y-43314768D01*
X44845238Y-43433816D02*
X44845238Y-43767149D01*
X44726190Y-43243340D02*
X44607143Y-43600482D01*
X44607143Y-43600482D02*
X44916666Y-43600482D01*
D11*
X36284819Y-47323333D02*
X36999104Y-47323333D01*
X36999104Y-47323333D02*
X37141961Y-47370952D01*
X37141961Y-47370952D02*
X37237200Y-47466190D01*
X37237200Y-47466190D02*
X37284819Y-47609047D01*
X37284819Y-47609047D02*
X37284819Y-47704285D01*
X36380057Y-46894761D02*
X36332438Y-46847142D01*
X36332438Y-46847142D02*
X36284819Y-46751904D01*
X36284819Y-46751904D02*
X36284819Y-46513809D01*
X36284819Y-46513809D02*
X36332438Y-46418571D01*
X36332438Y-46418571D02*
X36380057Y-46370952D01*
X36380057Y-46370952D02*
X36475295Y-46323333D01*
X36475295Y-46323333D02*
X36570533Y-46323333D01*
X36570533Y-46323333D02*
X36713390Y-46370952D01*
X36713390Y-46370952D02*
X37284819Y-46942380D01*
X37284819Y-46942380D02*
X37284819Y-46323333D01*
D12*
X44197409Y-64969047D02*
X43697409Y-64969047D01*
X43697409Y-64969047D02*
X43697409Y-64849999D01*
X43697409Y-64849999D02*
X43721219Y-64778571D01*
X43721219Y-64778571D02*
X43768838Y-64730952D01*
X43768838Y-64730952D02*
X43816457Y-64707142D01*
X43816457Y-64707142D02*
X43911695Y-64683333D01*
X43911695Y-64683333D02*
X43983123Y-64683333D01*
X43983123Y-64683333D02*
X44078361Y-64707142D01*
X44078361Y-64707142D02*
X44125980Y-64730952D01*
X44125980Y-64730952D02*
X44173600Y-64778571D01*
X44173600Y-64778571D02*
X44197409Y-64849999D01*
X44197409Y-64849999D02*
X44197409Y-64969047D01*
X43864076Y-64254761D02*
X44197409Y-64254761D01*
X43673600Y-64373809D02*
X44030742Y-64492856D01*
X44030742Y-64492856D02*
X44030742Y-64183333D01*
D10*
X51916666Y-62179530D02*
X51892857Y-62203340D01*
X51892857Y-62203340D02*
X51821428Y-62227149D01*
X51821428Y-62227149D02*
X51773809Y-62227149D01*
X51773809Y-62227149D02*
X51702381Y-62203340D01*
X51702381Y-62203340D02*
X51654762Y-62155720D01*
X51654762Y-62155720D02*
X51630952Y-62108101D01*
X51630952Y-62108101D02*
X51607143Y-62012863D01*
X51607143Y-62012863D02*
X51607143Y-61941435D01*
X51607143Y-61941435D02*
X51630952Y-61846197D01*
X51630952Y-61846197D02*
X51654762Y-61798578D01*
X51654762Y-61798578D02*
X51702381Y-61750959D01*
X51702381Y-61750959D02*
X51773809Y-61727149D01*
X51773809Y-61727149D02*
X51821428Y-61727149D01*
X51821428Y-61727149D02*
X51892857Y-61750959D01*
X51892857Y-61750959D02*
X51916666Y-61774768D01*
X52107143Y-61774768D02*
X52130952Y-61750959D01*
X52130952Y-61750959D02*
X52178571Y-61727149D01*
X52178571Y-61727149D02*
X52297619Y-61727149D01*
X52297619Y-61727149D02*
X52345238Y-61750959D01*
X52345238Y-61750959D02*
X52369047Y-61774768D01*
X52369047Y-61774768D02*
X52392857Y-61822387D01*
X52392857Y-61822387D02*
X52392857Y-61870006D01*
X52392857Y-61870006D02*
X52369047Y-61941435D01*
X52369047Y-61941435D02*
X52083333Y-62227149D01*
X52083333Y-62227149D02*
X52392857Y-62227149D01*
X57630952Y-57727149D02*
X57630952Y-57227149D01*
X57630952Y-57227149D02*
X57750000Y-57227149D01*
X57750000Y-57227149D02*
X57821428Y-57250959D01*
X57821428Y-57250959D02*
X57869047Y-57298578D01*
X57869047Y-57298578D02*
X57892857Y-57346197D01*
X57892857Y-57346197D02*
X57916666Y-57441435D01*
X57916666Y-57441435D02*
X57916666Y-57512863D01*
X57916666Y-57512863D02*
X57892857Y-57608101D01*
X57892857Y-57608101D02*
X57869047Y-57655720D01*
X57869047Y-57655720D02*
X57821428Y-57703340D01*
X57821428Y-57703340D02*
X57750000Y-57727149D01*
X57750000Y-57727149D02*
X57630952Y-57727149D01*
X58369047Y-57227149D02*
X58130952Y-57227149D01*
X58130952Y-57227149D02*
X58107143Y-57465244D01*
X58107143Y-57465244D02*
X58130952Y-57441435D01*
X58130952Y-57441435D02*
X58178571Y-57417625D01*
X58178571Y-57417625D02*
X58297619Y-57417625D01*
X58297619Y-57417625D02*
X58345238Y-57441435D01*
X58345238Y-57441435D02*
X58369047Y-57465244D01*
X58369047Y-57465244D02*
X58392857Y-57512863D01*
X58392857Y-57512863D02*
X58392857Y-57631911D01*
X58392857Y-57631911D02*
X58369047Y-57679530D01*
X58369047Y-57679530D02*
X58345238Y-57703340D01*
X58345238Y-57703340D02*
X58297619Y-57727149D01*
X58297619Y-57727149D02*
X58178571Y-57727149D01*
X58178571Y-57727149D02*
X58130952Y-57703340D01*
X58130952Y-57703340D02*
X58107143Y-57679530D01*
X48583334Y-61965244D02*
X48416667Y-61965244D01*
X48416667Y-62227149D02*
X48416667Y-61727149D01*
X48416667Y-61727149D02*
X48654762Y-61727149D01*
X49011905Y-61965244D02*
X49083333Y-61989054D01*
X49083333Y-61989054D02*
X49107143Y-62012863D01*
X49107143Y-62012863D02*
X49130952Y-62060482D01*
X49130952Y-62060482D02*
X49130952Y-62131911D01*
X49130952Y-62131911D02*
X49107143Y-62179530D01*
X49107143Y-62179530D02*
X49083333Y-62203340D01*
X49083333Y-62203340D02*
X49035714Y-62227149D01*
X49035714Y-62227149D02*
X48845238Y-62227149D01*
X48845238Y-62227149D02*
X48845238Y-61727149D01*
X48845238Y-61727149D02*
X49011905Y-61727149D01*
X49011905Y-61727149D02*
X49059524Y-61750959D01*
X49059524Y-61750959D02*
X49083333Y-61774768D01*
X49083333Y-61774768D02*
X49107143Y-61822387D01*
X49107143Y-61822387D02*
X49107143Y-61870006D01*
X49107143Y-61870006D02*
X49083333Y-61917625D01*
X49083333Y-61917625D02*
X49059524Y-61941435D01*
X49059524Y-61941435D02*
X49011905Y-61965244D01*
X49011905Y-61965244D02*
X48845238Y-61965244D01*
X49607143Y-62227149D02*
X49321429Y-62227149D01*
X49464286Y-62227149D02*
X49464286Y-61727149D01*
X49464286Y-61727149D02*
X49416667Y-61798578D01*
X49416667Y-61798578D02*
X49369048Y-61846197D01*
X49369048Y-61846197D02*
X49321429Y-61870006D01*
D12*
X34037409Y-64969047D02*
X33537409Y-64969047D01*
X33537409Y-64969047D02*
X33537409Y-64849999D01*
X33537409Y-64849999D02*
X33561219Y-64778571D01*
X33561219Y-64778571D02*
X33608838Y-64730952D01*
X33608838Y-64730952D02*
X33656457Y-64707142D01*
X33656457Y-64707142D02*
X33751695Y-64683333D01*
X33751695Y-64683333D02*
X33823123Y-64683333D01*
X33823123Y-64683333D02*
X33918361Y-64707142D01*
X33918361Y-64707142D02*
X33965980Y-64730952D01*
X33965980Y-64730952D02*
X34013600Y-64778571D01*
X34013600Y-64778571D02*
X34037409Y-64849999D01*
X34037409Y-64849999D02*
X34037409Y-64969047D01*
X33585028Y-64492856D02*
X33561219Y-64469047D01*
X33561219Y-64469047D02*
X33537409Y-64421428D01*
X33537409Y-64421428D02*
X33537409Y-64302380D01*
X33537409Y-64302380D02*
X33561219Y-64254761D01*
X33561219Y-64254761D02*
X33585028Y-64230952D01*
X33585028Y-64230952D02*
X33632647Y-64207142D01*
X33632647Y-64207142D02*
X33680266Y-64207142D01*
X33680266Y-64207142D02*
X33751695Y-64230952D01*
X33751695Y-64230952D02*
X34037409Y-64516666D01*
X34037409Y-64516666D02*
X34037409Y-64207142D01*
D11*
X55911905Y-65454819D02*
X55911905Y-64454819D01*
X55911905Y-64454819D02*
X56150000Y-64454819D01*
X56150000Y-64454819D02*
X56292857Y-64502438D01*
X56292857Y-64502438D02*
X56388095Y-64597676D01*
X56388095Y-64597676D02*
X56435714Y-64692914D01*
X56435714Y-64692914D02*
X56483333Y-64883390D01*
X56483333Y-64883390D02*
X56483333Y-65026247D01*
X56483333Y-65026247D02*
X56435714Y-65216723D01*
X56435714Y-65216723D02*
X56388095Y-65311961D01*
X56388095Y-65311961D02*
X56292857Y-65407200D01*
X56292857Y-65407200D02*
X56150000Y-65454819D01*
X56150000Y-65454819D02*
X55911905Y-65454819D01*
X57435714Y-65454819D02*
X56864286Y-65454819D01*
X57150000Y-65454819D02*
X57150000Y-64454819D01*
X57150000Y-64454819D02*
X57054762Y-64597676D01*
X57054762Y-64597676D02*
X56959524Y-64692914D01*
X56959524Y-64692914D02*
X56864286Y-64740533D01*
D12*
X39117409Y-64969047D02*
X38617409Y-64969047D01*
X38617409Y-64969047D02*
X38617409Y-64849999D01*
X38617409Y-64849999D02*
X38641219Y-64778571D01*
X38641219Y-64778571D02*
X38688838Y-64730952D01*
X38688838Y-64730952D02*
X38736457Y-64707142D01*
X38736457Y-64707142D02*
X38831695Y-64683333D01*
X38831695Y-64683333D02*
X38903123Y-64683333D01*
X38903123Y-64683333D02*
X38998361Y-64707142D01*
X38998361Y-64707142D02*
X39045980Y-64730952D01*
X39045980Y-64730952D02*
X39093600Y-64778571D01*
X39093600Y-64778571D02*
X39117409Y-64849999D01*
X39117409Y-64849999D02*
X39117409Y-64969047D01*
X38617409Y-64516666D02*
X38617409Y-64207142D01*
X38617409Y-64207142D02*
X38807885Y-64373809D01*
X38807885Y-64373809D02*
X38807885Y-64302380D01*
X38807885Y-64302380D02*
X38831695Y-64254761D01*
X38831695Y-64254761D02*
X38855504Y-64230952D01*
X38855504Y-64230952D02*
X38903123Y-64207142D01*
X38903123Y-64207142D02*
X39022171Y-64207142D01*
X39022171Y-64207142D02*
X39069790Y-64230952D01*
X39069790Y-64230952D02*
X39093600Y-64254761D01*
X39093600Y-64254761D02*
X39117409Y-64302380D01*
X39117409Y-64302380D02*
X39117409Y-64445237D01*
X39117409Y-64445237D02*
X39093600Y-64492856D01*
X39093600Y-64492856D02*
X39069790Y-64516666D01*
D10*
X54916666Y-62179530D02*
X54892857Y-62203340D01*
X54892857Y-62203340D02*
X54821428Y-62227149D01*
X54821428Y-62227149D02*
X54773809Y-62227149D01*
X54773809Y-62227149D02*
X54702381Y-62203340D01*
X54702381Y-62203340D02*
X54654762Y-62155720D01*
X54654762Y-62155720D02*
X54630952Y-62108101D01*
X54630952Y-62108101D02*
X54607143Y-62012863D01*
X54607143Y-62012863D02*
X54607143Y-61941435D01*
X54607143Y-61941435D02*
X54630952Y-61846197D01*
X54630952Y-61846197D02*
X54654762Y-61798578D01*
X54654762Y-61798578D02*
X54702381Y-61750959D01*
X54702381Y-61750959D02*
X54773809Y-61727149D01*
X54773809Y-61727149D02*
X54821428Y-61727149D01*
X54821428Y-61727149D02*
X54892857Y-61750959D01*
X54892857Y-61750959D02*
X54916666Y-61774768D01*
X55392857Y-62227149D02*
X55107143Y-62227149D01*
X55250000Y-62227149D02*
X55250000Y-61727149D01*
X55250000Y-61727149D02*
X55202381Y-61798578D01*
X55202381Y-61798578D02*
X55154762Y-61846197D01*
X55154762Y-61846197D02*
X55107143Y-61870006D01*
D11*
X76614819Y-65253333D02*
X77329104Y-65253333D01*
X77329104Y-65253333D02*
X77471961Y-65300952D01*
X77471961Y-65300952D02*
X77567200Y-65396190D01*
X77567200Y-65396190D02*
X77614819Y-65539047D01*
X77614819Y-65539047D02*
X77614819Y-65634285D01*
X76948152Y-64348571D02*
X77614819Y-64348571D01*
X76567200Y-64586666D02*
X77281485Y-64824761D01*
X77281485Y-64824761D02*
X77281485Y-64205714D01*
%TO.C,J1*%
D13*
X29660000Y-69660000D02*
X30300000Y-69660000D01*
X32200000Y-69660000D02*
X32840000Y-69660000D01*
X34740000Y-69660000D02*
X35380000Y-69660000D01*
X37280000Y-69660000D02*
X37920000Y-69660000D01*
X39820000Y-69660000D02*
X40460000Y-69660000D01*
X42360000Y-69660000D02*
X43000000Y-69660000D01*
X44900000Y-69660000D02*
X45540000Y-69660000D01*
X47440000Y-69660000D02*
X48080000Y-69660000D01*
X65220000Y-69660000D02*
X65860000Y-69660000D01*
X67760000Y-69660000D02*
X68400000Y-69660000D01*
X70300000Y-69660000D02*
X70940000Y-69660000D01*
X72840000Y-69660000D02*
X73480000Y-69660000D01*
X75380000Y-69660000D02*
X76020000Y-69660000D01*
X77920000Y-69660000D02*
X78560000Y-69660000D01*
X80460000Y-69660000D02*
X81100000Y-69660000D01*
X83000000Y-69660000D02*
X83640000Y-69660000D01*
X83000000Y-69660000D02*
X83640000Y-69660000D01*
X85540000Y-69660000D02*
X86180000Y-69660000D01*
X88080000Y-69660000D02*
X88720000Y-69660000D01*
%TO.C,C3*%
X46375000Y-42540000D02*
X47625000Y-42540000D01*
X47625000Y-44540000D01*
X46375000Y-44540000D01*
X46375000Y-42540000D01*
%TO.C,R1*%
X57375000Y-61000000D02*
X58625000Y-61000000D01*
X58625000Y-63000000D01*
X57375000Y-63000000D01*
X57375000Y-61000000D01*
%TO.C,C4*%
X43875000Y-42540000D02*
X45125000Y-42540000D01*
X45125000Y-44540000D01*
X43875000Y-44540000D01*
X43875000Y-42540000D01*
%TO.C,J2*%
X31750000Y-44450000D02*
X41910000Y-44450000D01*
X31750000Y-49530000D02*
X31750000Y-44450000D01*
X40910000Y-49530000D02*
X31750000Y-49530000D01*
X41910000Y-44450000D02*
X41910000Y-48530000D01*
X41910000Y-48530000D02*
X40910000Y-49530000D01*
%TO.C,D4*%
X42420000Y-63700000D02*
X42420000Y-64850000D01*
X42420000Y-63700000D02*
X45520000Y-63700000D01*
X43070000Y-65500000D02*
X42420000Y-64850000D01*
X43070000Y-65500000D02*
X45520000Y-65500000D01*
X45520000Y-63700000D02*
X45520000Y-65500000D01*
%TO.C,C2*%
X51375000Y-61000000D02*
X52625000Y-61000000D01*
X52625000Y-63000000D01*
X51375000Y-63000000D01*
X51375000Y-61000000D01*
%TO.C,D5*%
X57400000Y-56500000D02*
X57400000Y-58500000D01*
X57400000Y-58500000D02*
X58600000Y-58500000D01*
X58300000Y-56500000D02*
X57400000Y-56500000D01*
X58600000Y-56800000D02*
X58300000Y-56500000D01*
X58600000Y-58500000D02*
X58600000Y-56800000D01*
%TO.C,FB1*%
X48550000Y-61000000D02*
X49450000Y-61000000D01*
X49450000Y-63000000D01*
X48550000Y-63000000D01*
X48550000Y-61000000D01*
%TO.C,D2*%
X32260000Y-63700000D02*
X32260000Y-64850000D01*
X32260000Y-63700000D02*
X35360000Y-63700000D01*
X32910000Y-65500000D02*
X32260000Y-64850000D01*
X32910000Y-65500000D02*
X35360000Y-65500000D01*
X35360000Y-63700000D02*
X35360000Y-65500000D01*
%TO.C,D1*%
X55250000Y-66100000D02*
X58050000Y-66100000D01*
X55250000Y-67900000D02*
X55250000Y-66100000D01*
X55900000Y-67000000D02*
X56300000Y-67000000D01*
X56300000Y-67000000D02*
X56300000Y-66450000D01*
X56300000Y-67000000D02*
X56300000Y-67550000D01*
X56300000Y-67000000D02*
X56900000Y-66600000D01*
X56900000Y-66600000D02*
X56900000Y-67400000D01*
X56900000Y-67000000D02*
X57400000Y-67000000D01*
X56900000Y-67400000D02*
X56300000Y-67000000D01*
X58050000Y-66100000D02*
X58050000Y-67900000D01*
X58050000Y-67900000D02*
X55250000Y-67900000D01*
%TO.C,D3*%
X37340000Y-63700000D02*
X37340000Y-64850000D01*
X37340000Y-63700000D02*
X40440000Y-63700000D01*
X37990000Y-65500000D02*
X37340000Y-64850000D01*
X37990000Y-65500000D02*
X40440000Y-65500000D01*
X40440000Y-63700000D02*
X40440000Y-65500000D01*
%TO.C,C1*%
X54375000Y-61000000D02*
X55625000Y-61000000D01*
X55625000Y-63000000D01*
X54375000Y-63000000D01*
X54375000Y-61000000D01*
%TO.C,J4*%
X65730000Y-63650000D02*
X88590000Y-63650000D01*
X65730000Y-65555000D02*
X65730000Y-63650000D01*
X66365000Y-66190000D02*
X65730000Y-65555000D01*
X88590000Y-63650000D02*
X88590000Y-66190000D01*
X88590000Y-66190000D02*
X66365000Y-66190000D01*
%TD*%
M02*
